<svg width="232" height="72" viewBox="0 0 232 72" fill="none" xmlns="http://www.w3.org/2000/svg">
<path d="M230.711 63.7048C230.711 67.5382 227.758 70.6434 224.105 70.6434H7.90419C4.25286 70.6434 1.28906 67.5382 1.28906 63.7048V8.37151C1.28906 4.53987 4.25286 1.42383 7.90419 1.42383H224.103C227.758 1.42383 230.71 4.53987 230.71 8.37151L230.711 63.7048Z" fill="black"/>
<path d="M223.407 1.50637C227.386 1.50637 230.623 4.89402 230.623 9.0572V63.0078C230.623 67.1709 227.386 70.5586 223.407 70.5586H8.59259C4.61422 70.5586 1.37696 67.1709 1.37696 63.0078V9.0572C1.37696 4.89402 4.61422 1.50637 8.59259 1.50637H223.407ZM223.407 0.0654413H8.59259C3.86881 0.0654413 0 4.11398 0 9.0572V63.0078C0 67.951 3.86881 71.9995 8.59259 71.9995H223.407C228.131 71.9995 232 67.951 232 63.0078V9.0572C232 4.11398 228.131 0.0654413 223.407 0.0654413Z" fill="#A6A6A6"/>
<path d="M51.7758 35.6438C51.726 29.8478 56.311 27.0279 56.5206 26.8967C53.9239 22.9349 49.8992 22.3936 48.4848 22.3504C45.1045 21.9782 41.8256 24.4671 40.1036 24.4671C38.3473 24.4671 35.6956 22.3864 32.8377 22.4475C29.1601 22.5069 25.7196 24.735 23.8327 28.1951C19.9385 35.25 22.8428 45.6175 26.5737 51.3201C28.44 54.1129 30.6208 57.2313 33.4753 57.1215C36.2679 57.0011 37.311 55.2585 40.681 55.2585C44.0201 55.2585 44.9997 57.1215 47.9108 57.0514C50.9079 57.0011 52.7949 54.246 54.5959 51.428C56.7526 48.2269 57.6188 45.0744 57.6531 44.9125C57.5827 44.8874 51.8325 42.5909 51.7758 35.6438Z" fill="white"/>
<path d="M46.2765 18.5991C47.7785 16.6335 48.8062 13.9593 48.5209 11.2456C46.347 11.3463 43.6283 12.8192 42.0627 14.7416C40.6776 16.4356 39.4403 19.2123 39.7599 21.8235C42.2019 22.0141 44.7092 20.5341 46.2765 18.5991Z" fill="white"/>
<path d="M92.1904 56.721H88.2876L86.1498 49.6913H78.7189L76.6825 56.721H72.8828L80.2449 32.7886H84.7921L92.1904 56.721ZM85.5053 46.742L83.572 40.4927C83.3675 39.8543 82.9843 38.3509 82.4189 35.9842H82.3501C82.125 37.0021 81.7624 38.5055 81.264 40.4927L79.3651 46.742H85.5053V46.742Z" fill="white"/>
<path d="M110.881 47.3975C110.881 50.3324 110.123 52.6523 108.607 54.3553C107.25 55.8713 105.564 56.6285 103.551 56.6285C101.379 56.6285 99.8187 55.812 98.8684 54.1791H98.7996V63.2698H95.1358V44.6622C95.1358 42.8171 95.0894 40.9234 95 38.9812H98.2222L98.4267 41.7165H98.4955C99.7173 39.6556 101.572 38.627 104.06 38.627C106.005 38.627 107.629 39.4308 108.929 41.0403C110.231 42.6517 110.881 44.7701 110.881 47.3975ZM107.148 47.5378C107.148 45.8581 106.787 44.4734 106.062 43.3836C105.27 42.247 104.206 41.6788 102.873 41.6788C101.969 41.6788 101.147 41.9953 100.413 42.6193C99.6778 43.2487 99.1966 44.0706 98.9715 45.0884C98.8581 45.5632 98.8014 45.9516 98.8014 46.2574V49.1347C98.8014 50.39 99.1691 51.4492 99.9047 52.3142C100.64 53.1792 101.596 53.6108 102.771 53.6108C104.151 53.6108 105.225 53.0533 105.993 51.9419C106.763 50.8288 107.148 49.3613 107.148 47.5378Z" fill="white"/>
<path d="M130.09 47.8799C130.09 50.8148 129.332 53.1347 127.815 54.8378C126.459 56.3538 124.773 57.1109 122.761 57.1109C120.588 57.1109 119.028 56.2944 118.079 54.6615H118.011V63.7522H114.347V45.1446C114.347 43.2995 114.3 41.4059 114.211 39.4637H117.433L117.638 42.1989H117.706C118.927 40.138 120.781 39.1094 123.271 39.1094C125.215 39.1094 126.839 39.9132 128.141 41.5228C129.439 43.1341 130.09 45.2525 130.09 47.8799ZM126.357 48.0202C126.357 46.3405 125.995 44.9558 125.27 43.866C124.477 42.7295 123.417 42.1612 122.082 42.1612C121.176 42.1612 120.356 42.4777 119.621 43.1017C118.885 43.7311 118.406 44.553 118.181 45.5709C118.069 46.0456 118.011 46.4341 118.011 46.7398V49.6171C118.011 50.8724 118.378 51.9316 119.11 52.7966C119.846 53.6598 120.801 54.0932 121.98 54.0932C123.36 54.0932 124.434 53.5358 125.203 52.4244C125.972 51.3112 126.357 49.8437 126.357 48.0202Z" fill="white"/>
<path d="M151.297 50.0097C151.297 52.0454 150.622 53.7017 149.266 54.9803C147.776 56.3777 145.702 57.0754 143.037 57.0754C140.576 57.0754 138.603 56.5791 137.109 55.5846L137.958 52.3889C139.567 53.4068 141.332 53.9175 143.255 53.9175C144.635 53.9175 145.709 53.5902 146.48 52.9392C147.249 52.2882 147.632 51.4142 147.632 50.3244C147.632 49.3533 147.316 48.535 146.682 47.8714C146.051 47.2079 144.997 46.591 143.526 46.0209C139.522 44.4582 137.522 42.1689 137.522 39.1584C137.522 37.191 138.223 35.5779 139.627 34.3227C141.026 33.0656 142.892 32.438 145.226 32.438C147.307 32.438 149.036 32.8174 150.416 33.5745L149.5 36.7001C148.211 35.9664 146.754 35.5995 145.123 35.5995C143.834 35.5995 142.827 35.9322 142.105 36.594C141.495 37.1856 141.189 37.9068 141.189 38.761C141.189 39.7069 141.538 40.4892 142.239 41.1042C142.849 41.6725 143.958 42.2876 145.566 42.9512C147.534 43.7802 148.979 44.7495 149.909 45.8609C150.835 46.9687 151.297 48.3552 151.297 50.0097Z" fill="white"/>
<path d="M163.411 42.3413H159.373V50.7198C159.373 52.8509 160.084 53.9155 161.511 53.9155C162.165 53.9155 162.708 53.8561 163.138 53.7374L163.239 56.649C162.518 56.9313 161.567 57.0734 160.39 57.0734C158.943 57.0734 157.812 56.6112 156.996 55.6887C156.183 54.7643 155.774 53.2141 155.774 51.0363V42.3377H153.368V39.4603H155.774V36.3006L159.373 35.1641V39.4603H163.411V42.3413Z" fill="white"/>
<path d="M181.633 47.9517C181.633 50.6043 180.908 52.7821 179.461 54.4851C177.943 56.2385 175.929 57.1125 173.418 57.1125C170.999 57.1125 169.072 56.2727 167.635 54.593C166.199 52.9133 165.48 50.7931 165.48 48.2376C165.48 45.5635 166.219 43.3731 167.703 41.6701C169.182 39.9652 171.179 39.1128 173.69 39.1128C176.11 39.1128 178.057 39.9526 179.526 41.6341C180.932 43.2652 181.633 45.3711 181.633 47.9517ZM177.831 48.0758C177.831 46.4842 177.507 45.1193 176.848 43.9809C176.08 42.6034 174.982 41.9164 173.559 41.9164C172.086 41.9164 170.968 42.6052 170.2 43.9809C169.541 45.1211 169.217 46.5076 169.217 48.1477C169.217 49.7393 169.541 51.1042 170.2 52.2408C170.992 53.6183 172.098 54.3053 173.527 54.3053C174.925 54.3053 176.024 53.6039 176.816 52.2048C177.491 51.0449 177.831 49.6655 177.831 48.0758Z" fill="white"/>
<path d="M193.542 42.8356C193.179 42.7654 192.792 42.7295 192.387 42.7295C191.098 42.7295 190.101 43.2384 189.4 44.2581C188.79 45.1572 188.484 46.2938 188.484 47.6659V56.7206H184.822L184.856 44.8983C184.856 42.9093 184.81 41.0984 184.719 39.4654H187.91L188.044 42.7672H188.145C188.532 41.6325 189.142 40.7189 189.977 40.0337C190.794 39.4169 191.675 39.1094 192.626 39.1094C192.964 39.1094 193.27 39.1346 193.542 39.1795V42.8356Z" fill="white"/>
<path d="M209.929 47.2768C209.929 47.9638 209.886 48.5428 209.795 49.0158H198.803C198.846 50.7207 199.377 52.0245 200.398 52.9236C201.324 53.7275 202.522 54.1303 203.993 54.1303C205.621 54.1303 207.105 53.8588 208.441 53.3139L209.015 55.9754C207.454 56.6876 205.612 57.0419 203.486 57.0419C200.929 57.0419 198.922 56.2542 197.461 54.6806C196.004 53.1071 195.273 50.994 195.273 48.3432C195.273 45.741 195.952 43.574 197.312 41.8458C198.735 40.0007 200.658 39.0781 203.077 39.0781C205.454 39.0781 207.253 40.0007 208.475 41.8458C209.443 43.3114 209.929 45.1242 209.929 47.2768ZM206.435 46.2823C206.459 45.1458 206.22 44.1639 205.724 43.3348C205.09 42.2684 204.115 41.7361 202.804 41.7361C201.606 41.7361 200.632 42.2558 199.888 43.2989C199.278 44.1279 198.915 45.1224 198.803 46.2805H206.435V46.2823Z" fill="white"/>
<path d="M84.2939 18.0666C84.2939 20.1833 83.6873 21.7766 82.4757 22.8466C81.3535 23.8339 79.7587 24.3285 77.6931 24.3285C76.6688 24.3285 75.7924 24.2817 75.0586 24.1882V12.623C76.0158 12.4611 77.0469 12.3784 78.1605 12.3784C80.1282 12.3784 81.6113 12.8262 82.6115 13.7218C83.732 14.7343 84.2939 16.1819 84.2939 18.0666ZM82.395 18.1188C82.395 16.7466 82.0478 15.6946 81.3535 14.9609C80.6593 14.2289 79.6453 13.8621 78.31 13.8621C77.7429 13.8621 77.26 13.9016 76.8596 13.9843V22.7765C77.0813 22.8125 77.4869 22.8286 78.0763 22.8286C79.4546 22.8286 80.5183 22.4276 81.2676 21.6255C82.0169 20.8235 82.395 19.6546 82.395 18.1188Z" fill="white"/>
<path d="M94.3621 19.914C94.3621 21.2178 94.0064 22.286 93.2949 23.124C92.5491 23.9854 91.561 24.4152 90.3271 24.4152C89.1378 24.4152 88.1909 24.0034 87.4846 23.1762C86.78 22.3507 86.4277 21.3095 86.4277 20.0542C86.4277 18.7414 86.7903 17.6642 87.519 16.828C88.2476 15.9918 89.2272 15.5728 90.4611 15.5728C91.6503 15.5728 92.6058 15.9846 93.3293 16.81C94.0167 17.6121 94.3621 18.6479 94.3621 19.914ZM92.4941 19.9751C92.4941 19.1928 92.3326 18.522 92.0112 17.9628C91.6331 17.2866 91.0952 16.9485 90.3958 16.9485C89.6723 16.9485 89.1224 17.2866 88.7443 17.9628C88.4212 18.522 88.2614 19.2036 88.2614 20.0093C88.2614 20.7916 88.4229 21.4624 88.7443 22.0216C89.1344 22.6978 89.6775 23.0359 90.3786 23.0359C91.066 23.0359 91.6056 22.6924 91.994 22.0037C92.3274 21.4336 92.4941 20.7574 92.4941 19.9751Z" fill="white"/>
<path d="M107.864 15.7456L105.33 24.223H103.68L102.63 20.5418C102.363 19.6229 102.147 18.7093 101.979 17.8029H101.946C101.789 18.7345 101.573 19.6462 101.295 20.5418L100.179 24.223H98.5105L96.127 15.7456H97.9778L98.8938 19.7757C99.1154 20.7288 99.2976 21.637 99.4437 22.4966H99.4763C99.6104 21.7881 99.8321 20.8853 100.145 19.7937L101.295 15.7474H102.762L103.864 19.7074C104.13 20.6731 104.347 21.6028 104.513 22.4984H104.563C104.685 21.6262 104.869 20.6965 105.113 19.7074L106.096 15.7474H107.864V15.7456Z" fill="white"/>
<path d="M117.201 24.2233H115.4V19.3678C115.4 17.8716 114.856 17.1234 113.767 17.1234C113.232 17.1234 112.801 17.3285 112.466 17.7403C112.134 18.1521 111.966 18.6377 111.966 19.1933V24.2215H110.165V18.1683C110.165 17.4238 110.143 16.6163 110.1 15.7423H111.682L111.767 17.0677H111.816C112.026 16.6559 112.339 16.316 112.75 16.0444C113.238 15.7279 113.784 15.5679 114.382 15.5679C115.138 15.5679 115.767 15.8232 116.267 16.3358C116.889 16.9634 117.201 17.9003 117.201 19.1448V24.2233V24.2233Z" fill="white"/>
<path d="M122.166 24.2237H120.367V11.8564H122.166V24.2237Z" fill="white"/>
<path d="M132.77 19.914C132.77 21.2178 132.415 22.286 131.703 23.124C130.957 23.9854 129.967 24.4152 128.735 24.4152C127.544 24.4152 126.597 24.0034 125.893 23.1762C125.188 22.3507 124.836 21.3095 124.836 20.0542C124.836 18.7414 125.199 17.6642 125.927 16.828C126.656 15.9918 127.635 15.5728 128.868 15.5728C130.059 15.5728 131.012 15.9846 131.738 16.81C132.425 17.6121 132.77 18.6479 132.77 19.914ZM130.901 19.9751C130.901 19.1928 130.739 18.522 130.418 17.9628C130.041 17.2866 129.502 16.9485 128.804 16.9485C128.079 16.9485 127.529 17.2866 127.152 17.9628C126.829 18.522 126.67 19.2036 126.67 20.0093C126.67 20.7916 126.831 21.4624 127.152 22.0216C127.543 22.6978 128.086 23.0359 128.787 23.0359C129.474 23.0359 130.012 22.6924 130.4 22.0037C130.736 21.4336 130.901 20.7574 130.901 19.9751Z" fill="white"/>
<path d="M141.487 24.2228H139.869L139.735 23.2463H139.686C139.132 24.025 138.343 24.4152 137.319 24.4152C136.554 24.4152 135.936 24.1581 135.47 23.6474C135.047 23.1834 134.836 22.6061 134.836 21.9209C134.836 20.8851 135.248 20.0956 136.078 19.5489C136.907 19.0022 138.072 18.7343 139.572 18.7468V18.5886C139.572 17.4718 139.012 16.9143 137.89 16.9143C137.091 16.9143 136.386 17.1247 135.778 17.5419L135.412 16.3047C136.164 15.8173 137.094 15.5728 138.19 15.5728C140.308 15.5728 141.37 16.7417 141.37 19.0795V22.2015C141.37 23.0485 141.409 23.7229 141.487 24.2228ZM139.617 21.3095V20.0021C137.63 19.9661 136.637 20.5362 136.637 21.7105C136.637 22.1529 136.75 22.4838 136.982 22.705C137.214 22.9262 137.51 23.0359 137.862 23.0359C138.258 23.0359 138.627 22.9046 138.964 22.6439C139.302 22.3813 139.51 22.0486 139.588 21.6404C139.607 21.5487 139.617 21.4372 139.617 21.3095Z" fill="white"/>
<path d="M151.72 24.2237H150.121L150.037 22.8624H149.987C149.477 23.8982 148.607 24.4161 147.386 24.4161C146.409 24.4161 145.597 24.0151 144.952 23.213C144.308 22.411 143.986 21.3697 143.986 20.0911C143.986 18.719 144.335 17.6076 145.036 16.7588C145.715 15.9675 146.547 15.5718 147.537 15.5718C148.625 15.5718 149.386 15.9549 149.819 16.7228H149.853V11.8564H151.656V21.9398C151.656 22.7652 151.677 23.5259 151.72 24.2237ZM149.853 20.6486V19.2351C149.853 18.9905 149.836 18.7927 149.803 18.6416C149.702 18.1884 149.484 17.8072 149.152 17.4997C148.817 17.1922 148.413 17.0375 147.947 17.0375C147.276 17.0375 146.75 17.3162 146.363 17.8755C145.98 18.4348 145.786 19.1488 145.786 20.021C145.786 20.859 145.969 21.5388 146.339 22.0621C146.729 22.6196 147.255 22.8983 147.913 22.8983C148.504 22.8983 148.977 22.6663 149.336 22.2006C149.683 21.7708 149.853 21.2528 149.853 20.6486Z" fill="white"/>
<path d="M167.124 19.914C167.124 21.2178 166.768 22.286 166.057 23.124C165.311 23.9854 164.324 24.4152 163.089 24.4152C161.901 24.4152 160.954 24.0034 160.246 23.1762C159.542 22.3507 159.189 21.3095 159.189 20.0542C159.189 18.7414 159.552 17.6642 160.281 16.828C161.009 15.9918 161.989 15.5728 163.225 15.5728C164.412 15.5728 165.369 15.9846 166.091 16.81C166.778 17.6121 167.124 18.6479 167.124 19.914ZM165.258 19.9751C165.258 19.1928 165.096 18.522 164.775 17.9628C164.395 17.2866 163.859 16.9485 163.158 16.9485C162.436 16.9485 161.886 17.2866 161.506 17.9628C161.183 18.522 161.023 19.2036 161.023 20.0093C161.023 20.7916 161.185 21.4624 161.506 22.0216C161.896 22.6978 162.439 23.0359 163.14 23.0359C163.828 23.0359 164.369 22.6924 164.757 22.0037C165.089 21.4336 165.258 20.7574 165.258 19.9751Z" fill="white"/>
<path d="M176.808 24.2233H175.009V19.3678C175.009 17.8716 174.466 17.1234 173.375 17.1234C172.84 17.1234 172.409 17.3285 172.075 17.7403C171.742 18.1521 171.575 18.6377 171.575 19.1933V24.2215H169.773V18.1683C169.773 17.4238 169.752 16.6163 169.709 15.7423H171.29L171.374 17.0677H171.424C171.635 16.6559 171.948 16.316 172.357 16.0444C172.847 15.7279 173.392 15.5679 173.992 15.5679C174.746 15.5679 175.375 15.8232 175.875 16.3358C176.499 16.9634 176.808 17.9003 176.808 19.1448V24.2233V24.2233Z" fill="white"/>
<path d="M188.928 17.1587H186.945V21.2769C186.945 22.3236 187.297 22.8469 187.995 22.8469C188.318 22.8469 188.586 22.8181 188.797 22.7588L188.844 24.1885C188.488 24.3287 188.021 24.3989 187.445 24.3989C186.733 24.3989 186.18 24.1723 185.78 23.7191C185.378 23.2659 185.178 22.5034 185.178 21.4334V17.1587H183.994V15.747H185.178V14.1932L186.943 13.6357V15.7452H188.926V17.1587H188.928Z" fill="white"/>
<path d="M198.462 24.2237H196.66V19.4041C196.66 17.8845 196.117 17.1238 195.029 17.1238C194.194 17.1238 193.623 17.5644 193.31 18.4456C193.257 18.6308 193.226 18.8574 193.226 19.1236V24.2219H191.427V11.8564H193.226V16.9656H193.26C193.828 16.0358 194.64 15.5718 195.694 15.5718C196.44 15.5718 197.057 15.8272 197.546 16.3397C198.157 16.9782 198.462 17.9277 198.462 19.1829V24.2237V24.2237Z" fill="white"/>
<path d="M208.297 19.5836C208.297 19.9217 208.273 20.2059 208.23 20.4379H202.829C202.853 21.2759 203.111 21.9143 203.611 22.3567C204.068 22.7523 204.657 22.9502 205.379 22.9502C206.178 22.9502 206.907 22.8171 207.563 22.5491L207.845 23.8583C207.077 24.2072 206.173 24.3816 205.126 24.3816C203.872 24.3816 202.884 23.995 202.169 23.2217C201.45 22.4484 201.095 21.4108 201.095 20.1088C201.095 18.8301 201.426 17.7655 202.095 16.9167C202.793 16.0103 203.736 15.5571 204.927 15.5571C206.092 15.5571 206.977 16.0103 207.575 16.9167C208.058 17.636 208.297 18.5262 208.297 19.5836ZM206.579 19.0963C206.592 18.537 206.474 18.055 206.23 17.6486C205.917 17.1253 205.441 16.8627 204.796 16.8627C204.209 16.8627 203.729 17.1181 203.363 17.6306C203.064 18.0389 202.887 18.5262 202.829 19.0963H206.579Z" fill="white"/>
</svg>
