<svg width="232" height="71" viewBox="0 0 232 71" fill="none" xmlns="http://www.w3.org/2000/svg">
<path d="M223.026 71H8.57794C3.86222 71 0 67.0509 0 62.2292V9.6043C0 4.78255 3.86222 0.833486 8.57794 0.833486H223.026C227.742 0.833486 231.604 4.78255 231.604 9.6043V62.2292C231.604 67.0509 227.742 71 223.026 71Z" fill="black"/>
<path d="M223.026 2.23901C226.998 2.23901 230.23 5.54341 230.23 9.6043V62.2292C230.23 66.2901 226.998 69.5945 223.026 69.5945H8.57794C4.60635 69.5945 1.37461 66.2901 1.37461 62.2292V9.6043C1.37461 5.54341 4.60635 2.23901 8.57794 2.23901H223.026ZM223.026 0.833486H8.57794C3.86222 0.833486 0 4.78255 0 9.6043V62.2292C0 67.0509 3.86222 71 8.57794 71H223.026C227.742 71 231.604 67.0509 231.604 62.2292V9.6043C231.604 4.78255 227.742 0.833486 223.026 0.833486Z" fill="#A6A6A6"/>
<path d="M81.3484 18.8024C81.3484 20.2671 80.9195 21.4402 80.0746 22.3151C79.1031 23.3522 77.8379 23.8741 76.2874 23.8741C74.8056 23.8741 73.5403 23.3435 72.5024 22.2975C71.4623 21.2363 70.9434 19.9338 70.9434 18.3748C70.9434 16.8158 71.4623 15.5133 72.5024 14.4608C73.5403 13.4061 74.8056 12.8755 76.2874 12.8755C77.0251 12.8755 77.7285 13.0312 78.3997 13.3206C79.0688 13.6122 79.6135 14.0069 80.0081 14.4937L79.1117 15.419C78.4233 14.588 77.4862 14.178 76.2874 14.178C75.2066 14.178 74.2695 14.5639 73.4739 15.3423C72.6868 16.1229 72.2922 17.1337 72.2922 18.3748C72.2922 19.6159 72.6868 20.6355 73.4739 21.4161C74.2695 22.1857 75.2066 22.5804 76.2874 22.5804C77.4347 22.5804 78.3997 22.1857 79.161 21.4073C79.6628 20.892 79.9481 20.1816 80.0231 19.2738H76.2874V18.0064H81.2712C81.3312 18.2805 81.3484 18.5458 81.3484 18.8024V18.8024Z" fill="white" stroke="white" stroke-width="0.16" stroke-miterlimit="10"/>
<path d="M89.2557 14.4077H84.5743V17.7406H88.7947V19.008H84.5743V22.3409H89.2557V23.6324H83.249V13.1162H89.2557V14.4077Z" fill="white" stroke="white" stroke-width="0.16" stroke-miterlimit="10"/>
<path d="M94.8364 23.6324H93.5111V14.4077H90.6396V13.1162H97.71V14.4077H94.8364V23.6324V23.6324Z" fill="white" stroke="white" stroke-width="0.16" stroke-miterlimit="10"/>
<path d="M102.826 23.6324V13.1162H104.149V23.6324H102.826Z" fill="white" stroke="white" stroke-width="0.16" stroke-miterlimit="10"/>
<path d="M110.014 23.6324H108.7V14.4077H105.817V13.1162H112.896V14.4077H110.014V23.6324Z" fill="white" stroke="white" stroke-width="0.16" stroke-miterlimit="10"/>
<path d="M126.282 22.28C125.267 23.3435 124.011 23.8741 122.512 23.8741C121.004 23.8741 119.747 23.3435 118.733 22.28C117.721 21.2187 117.217 19.9163 117.217 18.3748C117.217 16.8333 117.721 15.5309 118.733 14.4696C119.747 13.4061 121.004 12.8755 122.512 12.8755C124.002 12.8755 125.259 13.4061 126.273 14.4784C127.294 15.5484 127.798 16.8421 127.798 18.3748C127.798 19.9163 127.294 21.2187 126.282 22.28ZM119.713 21.3985C120.476 22.1857 121.405 22.5804 122.512 22.5804C123.61 22.5804 124.547 22.1857 125.302 21.3985C126.063 20.6113 126.449 19.6005 126.449 18.3748C126.449 17.1491 126.063 16.1382 125.302 15.3511C124.547 14.5639 123.61 14.1692 122.512 14.1692C121.405 14.1692 120.476 14.5639 119.713 15.3511C118.952 16.1382 118.566 17.1491 118.566 18.3748C118.566 19.6005 118.952 20.6113 119.713 21.3985V21.3985Z" fill="white" stroke="white" stroke-width="0.16" stroke-miterlimit="10"/>
<path d="M129.658 23.6324V13.1162H131.267L136.268 21.295H136.325L136.268 19.2733V13.1162H137.591V23.6324H136.21L130.973 15.0502H130.915L130.973 17.0806V23.6324H129.658V23.6324Z" fill="white" stroke="white" stroke-width="0.16" stroke-miterlimit="10"/>
<path d="M116.892 38.9903C112.863 38.9903 109.571 42.1259 109.571 46.4521C109.571 50.7432 112.863 53.9116 116.892 53.9116C120.93 53.9116 124.222 50.7432 124.222 46.4521C124.222 42.1259 120.93 38.9903 116.892 38.9903ZM116.892 50.9734C114.681 50.9734 112.779 49.1074 112.779 46.4521C112.779 43.7616 114.681 41.9285 116.892 41.9285C119.103 41.9285 121.014 43.7616 121.014 46.4521C121.014 49.1074 119.103 50.9734 116.892 50.9734V50.9734ZM100.918 38.9903C96.8797 38.9903 93.5965 42.1259 93.5965 46.4521C93.5965 50.7432 96.8797 53.9116 100.918 53.9116C104.954 53.9116 108.239 50.7432 108.239 46.4521C108.239 42.1259 104.954 38.9903 100.918 38.9903ZM100.918 50.9734C98.7047 50.9734 96.7961 49.1074 96.7961 46.4521C96.7961 43.7616 98.7047 41.9285 100.918 41.9285C103.129 41.9285 105.031 43.7616 105.031 46.4521C105.031 49.1074 103.129 50.9734 100.918 50.9734ZM81.9091 41.2773V44.4479H89.314C89.0974 46.2196 88.5184 47.5221 87.6305 48.4299C86.5497 49.5262 84.8663 50.7432 81.9091 50.7432C77.352 50.7432 73.7836 46.9827 73.7836 42.3232C73.7836 37.6637 77.352 33.9032 81.9091 33.9032C84.3731 33.9032 86.1659 34.8878 87.489 36.1639L89.6742 33.9295C87.8236 32.1228 85.3617 30.7348 81.9091 30.7348C75.66 30.7348 70.4082 35.9337 70.4082 42.3232C70.4082 48.7127 75.66 53.9116 81.9091 53.9116C85.2866 53.9116 87.8236 52.7802 89.8179 50.6577C91.8616 48.568 92.4985 45.6298 92.4985 43.2573C92.4985 42.5206 92.4385 41.843 92.3313 41.2773H81.9091ZM159.638 43.7353C159.035 42.0667 157.176 38.9903 153.389 38.9903C149.636 38.9903 146.512 42.014 146.512 46.4521C146.512 50.6314 149.604 53.9116 153.749 53.9116C157.101 53.9116 159.035 51.822 159.831 50.605L157.343 48.9101C156.514 50.1512 155.383 50.9734 153.749 50.9734C152.126 50.9734 150.961 50.2126 150.215 48.7127L159.975 44.5839L159.638 43.7353V43.7353ZM149.688 46.2196C149.604 43.3428 151.873 41.8693 153.498 41.8693C154.772 41.8693 155.853 42.5206 156.213 43.4525L149.688 46.2196V46.2196ZM141.755 53.4578H144.963V31.5307H141.755V53.4578ZM136.501 40.6524H136.394C135.673 39.7797 134.299 38.9903 132.557 38.9903C128.903 38.9903 125.562 42.2706 125.562 46.4762C125.562 50.6577 128.903 53.9116 132.557 53.9116C134.299 53.9116 135.673 53.1157 136.394 52.2167H136.501V53.2867C136.501 56.1394 135.011 57.6721 132.607 57.6721C130.647 57.6721 129.431 56.2249 128.929 55.008L126.139 56.1986C126.943 58.1765 129.073 60.6104 132.607 60.6104C136.368 60.6104 139.542 58.3475 139.542 52.8416V39.4442H136.501V40.6524V40.6524ZM132.832 50.9734C130.621 50.9734 128.77 49.0811 128.77 46.4762C128.77 43.8471 130.621 41.9285 132.832 41.9285C135.011 41.9285 136.729 43.8471 136.729 46.4762C136.729 49.0811 135.011 50.9734 132.832 50.9734V50.9734ZM174.658 31.5307H166.985V53.4578H170.185V45.1496H174.658C178.211 45.1496 181.696 42.5206 181.696 38.3391C181.696 34.1598 178.203 31.5307 174.658 31.5307V31.5307ZM174.742 42.0996H170.185V34.5808H174.742C177.131 34.5808 178.494 36.609 178.494 38.3391C178.494 40.0362 177.131 42.0996 174.742 42.0996ZM194.52 38.9486C192.208 38.9486 189.804 39.9924 188.816 42.3057L191.655 43.5226C192.266 42.3057 193.39 41.911 194.578 41.911C196.238 41.911 197.921 42.9306 197.947 44.7308V44.961C197.368 44.619 196.129 44.1125 194.604 44.1125C191.546 44.1125 188.43 45.8337 188.43 49.046C188.43 51.9843 190.935 53.8766 193.75 53.8766C195.903 53.8766 197.091 52.8833 197.838 51.7277H197.947V53.4227H201.037V45.0115C201.037 41.1238 198.198 38.9486 194.52 38.9486ZM194.134 50.9647C193.088 50.9647 191.629 50.434 191.629 49.1074C191.629 47.4103 193.448 46.759 195.022 46.759C196.431 46.759 197.091 47.077 197.947 47.4958C197.696 49.5262 195.987 50.9647 194.134 50.9647V50.9647ZM212.296 39.4288L208.618 48.9342H208.509L204.706 39.4288H201.256L206.969 52.7122L203.709 60.1038H207.053L215.856 39.4288H212.296V39.4288ZM183.455 53.4578H186.663V31.5307H183.455V53.4578Z" fill="white"/>
<path d="M17.902 14.057C17.3981 14.5964 17.1064 15.4362 17.1064 16.5238V55.3171C17.1064 56.4047 17.3981 57.2445 17.902 57.7839L18.0264 57.9023L39.2868 36.1726V35.6596L18.0264 13.9299L17.902 14.057Z" fill="url(#paint0_linear_140_7442)"/>
<path d="M46.3651 43.4194L39.2861 36.1725V35.6595L46.3737 28.4126L46.5323 28.5069L54.9259 33.39C57.3212 34.7758 57.3212 37.0562 54.9259 38.4508L46.5323 43.3251L46.3651 43.4194V43.4194Z" fill="url(#paint1_linear_140_7442)"/>
<path d="M46.5333 43.3251L39.2871 35.916L17.9023 57.7838C18.6979 58.6389 19.9954 58.742 21.4708 57.8868L46.5333 43.3251" fill="url(#paint2_linear_140_7442)"/>
<path d="M46.5333 28.5074L21.4708 13.9456C19.9954 13.0992 18.6979 13.2023 17.9023 14.0574L39.2871 35.9165L46.5333 28.5074Z" fill="url(#paint3_linear_140_7442)"/>
<defs>
<linearGradient id="paint0_linear_140_7442" x1="37.3992" y1="55.7211" x2="7.96738" y2="26.9366" gradientUnits="userSpaceOnUse">
<stop stop-color="#00A0FF"/>
<stop offset="0.0066" stop-color="#00A1FF"/>
<stop offset="0.2601" stop-color="#00BEFF"/>
<stop offset="0.5122" stop-color="#00D2FF"/>
<stop offset="0.7604" stop-color="#00DFFF"/>
<stop offset="1" stop-color="#00E3FF"/>
</linearGradient>
<linearGradient id="paint1_linear_140_7442" x1="58.045" y1="35.9135" x2="16.5332" y2="35.9135" gradientUnits="userSpaceOnUse">
<stop stop-color="#FFE000"/>
<stop offset="0.4087" stop-color="#FFBD00"/>
<stop offset="0.7754" stop-color="#FFA500"/>
<stop offset="1" stop-color="#FF9C00"/>
</linearGradient>
<linearGradient id="paint2_linear_140_7442" x1="42.5931" y1="31.8882" x2="2.68117" y2="-7.14598" gradientUnits="userSpaceOnUse">
<stop stop-color="#FF3A44"/>
<stop offset="1" stop-color="#C31162"/>
</linearGradient>
<linearGradient id="paint3_linear_140_7442" x1="12.5193" y1="70.6907" x2="30.3418" y2="53.2603" gradientUnits="userSpaceOnUse">
<stop stop-color="#32A071"/>
<stop offset="0.0685" stop-color="#2DA771"/>
<stop offset="0.4762" stop-color="#15CF74"/>
<stop offset="0.8009" stop-color="#06E775"/>
<stop offset="1" stop-color="#00F076"/>
</linearGradient>
</defs>
</svg>
