<svg width="683" height="683" viewBox="0 0 683 683" fill="none" xmlns="http://www.w3.org/2000/svg">
<g clip-path="url(#clip0_324_7708)">
<path d="M299.066 2.66652C294.4 5.46652 292.666 9.73318 293.6 15.7332C294.533 21.1999 327.866 72.7999 331.6 74.5332C337.333 77.1999 342.533 76.2665 346.8 72.1332C353.866 65.0665 352.8 61.9999 333.866 31.9999C324.666 17.3332 315.6 4.13318 313.733 2.66652C309.466 -0.666817 304.533 -0.666817 299.066 2.66652Z" fill="#FFBB00"/>
<path d="M402 5.0663C398.933 5.73296 394.933 8.93296 393.333 12.133C390.933 16.533 378.533 75.1996 379.333 78.2663C381.6 87.4663 393.467 91.1996 400.8 84.933C403.867 82.2663 405.067 78.3996 411.467 49.9996C415.467 32.3996 418.4 16.6663 418 15.1996C416.533 8.53296 408.667 3.73296 402 5.0663Z" fill="#FFBB00"/>
<path d="M465.866 59.4664C451.333 68.6664 438 77.5997 436.4 79.4664C430.266 86.133 434.666 98.6664 443.6 100.4C448.933 101.333 452.266 99.5997 480.8 81.5997C505.866 65.733 509.333 62.533 509.333 55.9997C509.333 49.0664 502.8 42.6664 495.6 42.6664C493.866 42.6664 480.8 49.9997 465.866 59.4664Z" fill="#FFBB00"/>
<path d="M162.533 72.6665C157.867 75.1998 97.3332 210.4 92.3999 229.333C86.7999 251.2 88.1332 278 95.8665 300.267C108.267 336.133 139.867 370.267 174 384.8L182.133 388.133L168.933 437.733C161.733 465.067 155.067 488 154.267 488.933C153.333 489.733 135.333 498 114 507.067C92.7999 516.133 72.2665 525.2 68.5332 527.067C60.7999 530.933 54.1332 538 50.5332 545.867C47.4665 552.533 47.1999 567.467 49.8665 573.867C52.6665 580.533 60.9332 589.067 68.1332 592.667C71.5999 594.4 102.667 603.467 137.333 612.8C194.4 628 201.2 629.6 209.2 629.067C223.733 628.133 234.667 620.8 240.4 608.133C244.133 599.867 244.133 586.8 240.4 578.533C238.933 575.2 225.2 555.733 210 535.333C194.8 514.933 182.133 497.467 181.867 496.667C181.333 495.467 202 415.333 207.467 397.2C208 395.467 209.2 395.333 216.4 396.267C228.533 398.133 250.667 396.533 266.667 392.667C281.733 388.933 304 379.2 314.8 371.333L321.2 366.8L324.533 374.133C337.333 402 366.133 427.867 397.733 439.733C417.867 447.2 432.133 449.6 454.933 449.067C467.6 448.8 474.8 449.2 475.2 450C475.467 450.8 481.6 473.467 488.667 500.267L501.733 549.2L473.333 587.2C457.867 608.267 443.867 627.867 442.267 631.067C438.267 639.067 438.4 653.2 442.4 661.6C449.2 675.333 464.267 683.867 479.333 682.267C487.6 681.467 604.933 650.133 612.8 646.8C637.067 636.133 642.4 604.8 623.067 586.267C618.8 582.133 608.933 577.333 573.333 562C548.933 551.467 528.533 542.267 528 541.733C526.8 540.533 501.333 445.333 501.333 442.533C501.333 441.467 505.467 438.933 510.4 436.667C524.533 430.4 541.067 418.533 553.467 405.733C566.667 392.133 574.267 381.333 581.467 366.133C590 347.867 592.267 337.867 592.933 315.333C593.867 286.267 592.667 282.533 560.267 209.733C524 128.4 523.467 127.2 520 125.333C518.4 124.4 515.067 123.733 512.8 123.733C510.533 123.866 480.8 131.333 446.667 140.533C412.533 149.733 384.133 157.333 383.6 157.333C382.933 157.333 382.933 152 383.333 145.467C384.267 133.867 384.267 133.733 380.533 129.6C377.2 125.866 373.733 124.533 354.8 119.333C328.533 112.133 325.2 112 319.867 117.2C314.8 122.266 314.667 128.8 319.333 134.4C322 137.6 325.333 139.067 339.333 142.8C354.133 146.8 356 147.6 356 150.133C356 153.067 352.533 186.8 351.2 196.933L350.533 202.533L345.6 200.4C322.267 190.533 290.8 188.267 264.533 194.533C250.533 198 242.8 201.067 228.8 209.067C202 224.533 165.733 226.8 136.4 215.067C130 212.533 128 211.067 128.4 209.467C128.933 207.467 176 101.333 176.933 100.133C177.067 99.8665 186 101.866 196.533 104.666L215.867 109.733L220.133 107.066C222.8 105.6 225.333 102.666 226.4 99.7331C228 95.4665 228 94.3998 226 90.2665C223.333 84.5331 220.667 83.3331 193.2 76.1331C170.533 70.1331 167.733 69.8665 162.533 72.6665ZM530.533 208.267C543.733 238.133 554.667 262.933 554.667 263.333C554.667 264.8 539.733 270.8 530.8 272.933C525.067 274.267 516.133 275.067 505.333 275.067C483.733 275.067 474.133 272.533 450.4 260.267C428.133 248.8 414.933 245.333 390.133 244.267L373.067 243.6L373.867 237.467C374.267 234.133 375.6 221.467 376.8 209.333C378 197.2 379.333 186.933 379.867 186.533C380.267 186.133 407.333 178.667 440 170C472.667 161.333 500.533 153.733 502 153.2C503.467 152.667 505.067 152.667 505.467 153.2C506 153.6 517.2 178.4 530.533 208.267ZM323.333 221.333C328.8 222.667 336.533 225.467 340.667 227.467C348.133 230.933 348.133 231.067 347.467 235.867C347.067 238.533 345.733 250.267 344.533 262C341.867 288.133 339.067 299.6 331.733 313.733C324.667 327.467 307.733 344.933 293.867 353.067C273.733 365.067 246.133 371.733 224.267 370C193.6 367.6 168.667 355.6 146.533 332.4C127.067 312 117.333 290.133 116.267 264.4C116 256.267 116.133 246.667 116.667 243.333C117.733 236.133 117.333 236.133 132.4 241.867C151.467 249.2 179.733 251.333 201.333 247.2C216.133 244.4 229.067 239.6 242.667 232C255.067 224.933 266.933 220.667 279.333 218.8C290.267 217.067 311.333 218.267 323.333 221.333ZM414.667 274C419.467 275.2 427.2 278.267 432 280.8C465.467 298.533 477.2 301.867 505.333 301.867C526.267 301.867 539.467 299.467 556.133 292.667C560.667 290.8 564.8 289.6 565.2 290C567.067 292 566.8 322.667 564.8 332.667C557.2 369.733 525.333 404.4 486.933 417.333C475.6 421.333 471.867 421.867 456.267 422.4C430.4 423.2 411.733 418.933 391.467 407.333C368.8 394.4 351.067 373.6 344 351.6C342.4 346.667 342.533 346.267 347.733 338.933C358.4 323.733 365.333 306.267 368 288.4C370.4 272.533 370.533 272.267 373.067 271.467C377.733 270.133 406.267 271.733 414.667 274ZM189.2 552C204 571.867 216.4 589.733 216.8 591.733C217.867 597.2 213.067 602.667 207.2 602.667C200.8 602.667 82.6665 570.933 78.7999 568.133C74.1332 564.8 73.1999 561.067 75.7332 555.867C77.8665 551.867 81.3332 550.133 118.667 533.867C141.067 524.133 160 516.133 160.933 516.133C161.733 516 174.533 532.267 189.2 552ZM571.2 590.133C588.667 597.733 604.133 604.933 605.467 606.133C609.333 609.6 608.933 618 604.667 620.8C600.933 623.333 481.333 655.867 475.867 656C470.4 656 466.133 651.867 466.133 646.4C466.133 642.4 470.133 636.267 493.333 605.067L520.533 568.4L530 572.4C535.067 574.533 553.733 582.533 571.2 590.133Z" fill="#FFBB00"/>
<path d="M264.533 98.6666C260.4 100.267 257.333 105.2 257.333 110.4C257.333 116.267 259.2 119.467 264 122C269.733 124.933 274.133 124.4 278.933 120.133C290.133 110.133 278.667 92.9333 264.533 98.6666Z" fill="#FFBB00"/>
</g>
<defs>
<clipPath id="clip0_324_7708">
<rect width="682.667" height="682.667" fill="white"/>
</clipPath>
</defs>
</svg>
