<svg width="683" height="683" viewBox="0 0 683 683" fill="none" xmlns="http://www.w3.org/2000/svg">
<g clip-path="url(#clip0_324_7723)">
<path d="M315.067 1.86647C298.267 6.13314 280.8 19.4665 273.067 34.1331C262.8 53.1998 262.8 77.5998 273.067 96.5331C280.667 110.8 297.734 124 313.867 128.133L320 129.6V169.333V208.933L309.867 209.733C302.934 210.266 297.6 211.466 293.467 213.6C286.534 217.2 279.467 225.733 277.334 233.066C275.6 239.466 275.6 288.533 277.334 294.933C279.467 302.266 286.534 310.8 293.6 314.4C298 316.666 302.934 317.733 310.534 318.266C321.067 319.066 321.334 319.066 321.334 322.533C321.334 329.066 326.667 348.133 331.2 357.866C337.2 370.933 345.2 382.4 355.467 392.933L364 401.6V419.2V436.666L350.4 450.266L336.667 464H317.6C293.467 464 281.734 466.266 266 474C244.667 484.4 229.867 499.066 220 519.333C210.8 538.266 210.4 541.2 209.734 598.266C209.067 655.067 209.6 660.533 216.534 669.733C223.734 679.2 230.134 681.867 247.734 682.4C255.867 682.667 264.267 682.533 266.134 682.133C273.067 680.4 274.4 667.467 268 664C266.667 663.2 259.734 662.667 252.667 662.667C237.067 662.667 232.8 660.933 230.667 653.6C229.6 650.133 229.334 633.333 229.6 598.666C230.134 555.2 230.534 547.733 232.534 541.333C238.8 522.266 249.467 507.733 264.667 497.466C280.267 487.066 288.267 485.066 315.867 484.266L338.934 483.733L376.134 500.133C396.534 509.2 412.8 517.066 412.267 517.6C411.734 518 399.734 522.8 385.6 528.133C371.467 533.333 357.6 539.333 354.8 541.333C351.867 543.6 348.267 548 346.134 552.133L342.667 559.2V610.933V662.667H324.267C306.667 662.667 305.6 662.8 302.934 665.733C299.067 669.867 299.067 676 303.067 679.733L306.267 682.667L477.467 682.4L648.667 682L654.267 679.067C661.6 675.067 667.6 667.467 670.134 658.933C671.867 652.933 672.134 643.867 671.734 598.933C671.2 549.066 670.934 545.466 668.134 536.266C660.8 511.466 644.4 490.133 623.6 477.866C605.6 467.333 591.2 464 563.734 464H544.667L530.934 450.266L517.334 436.666V419.066V401.6L525.734 393.066C535.867 382.933 544 371.066 550.267 357.733C555.2 346.933 560 330.133 560 323.066C560 318.666 560 318.666 566.667 318.666C582.934 318.666 594.934 312.666 601.334 301.333C604.667 295.466 604.667 294.933 604.667 264C604.667 233.066 604.667 232.533 601.334 226.666C595.067 215.466 582.934 209.333 567.334 209.333H561.334V169.6V129.866L567.467 128.266C583.867 123.866 600.8 110.8 608.267 96.5331C625.734 63.7331 612.4 22.5331 579.334 6.66647C556.134 -4.4002 530.534 -1.2002 509.334 15.4665C499.467 23.1998 493.334 23.8665 486 17.8665C470.267 5.1998 458.4 0.666468 440.667 0.666468C422.8 0.666468 411.2 5.1998 394.4 18.7998C389.2 23.0665 381.334 22.6665 375.2 17.8665C360 5.5998 349.334 1.1998 333.334 0.533135C326.667 0.266468 319.2 0.799802 315.067 1.86647ZM348 23.7331C351.334 25.0665 356.667 28.5331 360 31.3331C376.134 44.9331 395.2 45.1998 410.4 31.8665C413.067 29.4665 418.534 25.9998 422.667 24.1331C428.8 21.1998 431.734 20.6665 441.334 20.7998C454.534 20.9331 458.267 22.2665 471.067 31.8665C481.6 39.5998 487.067 41.7331 496.8 41.5998C504.934 41.5998 513.467 38.1331 520.134 32.2665C522.8 29.9998 528.134 26.3998 532.134 24.3998C538.267 21.3331 540.934 20.7998 550.667 20.6665C560.934 20.6665 562.934 21.0665 570.934 25.0665C580.667 29.8665 587.467 36.6665 592.267 46.5331C594.8 51.5998 595.334 54.7998 595.334 65.3331C595.334 76.1331 594.8 79.0665 592 84.6665C587.6 93.5998 578.8 102.133 569.6 106.4C562.267 109.866 561.2 110 532.667 110.4C505.067 110.8 503.2 111.066 500.4 113.733C496 117.6 496.267 124.266 500.8 127.866C504 130.4 506.134 130.666 522.8 130.666H541.334V148V165.333H440.667H340V148V130.666H358.534C375.2 130.666 377.334 130.4 380.534 127.866C384.534 124.8 385.2 118.266 382.134 113.866C380.4 111.466 378 111.333 349.734 110.666C320.4 110 319.067 109.866 311.867 106.4C302.667 102.133 294.667 94.3998 289.734 85.0665C286.4 78.7998 286 76.6665 286 65.3331C286 54.1331 286.4 51.8665 289.6 45.8665C296.267 33.0665 304.4 26.2665 317.734 21.8665C325.067 19.4665 340.267 20.3998 348 23.7331ZM541.334 197.333V209.333H440.667H340V197.333V185.333H440.667H541.334V197.333ZM320 264V298.666H314.134C305.867 298.666 300.267 296.266 298 291.866C295.334 286.933 295.067 242 297.6 236.533C299.734 232 305.467 229.466 313.734 229.333H320V264ZM541.334 272.533C541.334 319.2 540.534 327.6 534.134 344.4C527.6 361.866 513.2 380.133 497.867 390.666C489.067 396.8 474.134 403.333 463.067 406C448.934 409.466 422.8 408.266 410 403.733C382.534 394 363.334 377.333 351.2 352.666C341.2 332.266 340.934 330.533 340.267 278.933C340 253.733 340.134 232.4 340.534 231.333C341.2 229.6 354.934 229.333 441.334 229.333H541.334V272.533ZM578 231.333C580.8 232.4 583.2 234.666 584 236.666C584.8 238.666 585.334 250.933 585.334 264C585.334 277.066 584.8 289.333 584 291.333C582.4 295.6 575.467 298.666 567.334 298.666H561.334V264V229.333H567.334C570.667 229.333 575.467 230.266 578 231.333ZM411.867 424.8C421.6 427.333 427.867 428 440.134 428C458.4 428 470.667 425.733 486.267 419.466L497.334 415.066V424.8V434.666L469.334 448.666L441.334 462.666L412.667 448.4L384 434V424.4V414.8L391.734 418.266C395.867 420.133 404.934 423.066 411.867 424.8ZM404 466.666L430.667 480V491.333V502.666L423.734 499.466C419.867 497.733 404.134 490.8 388.667 484C373.334 477.2 360.4 471.333 360.134 471.066C359.6 470.666 376 453.333 376.934 453.333C377.2 453.333 389.334 459.333 404 466.666ZM514.667 462L523.2 470.533L517.2 473.066C514 474.533 500.267 480.666 486.667 486.666C473.067 492.666 459.467 498.8 456.4 500.133L450.667 502.533V491.333V480L477.067 466.8C491.467 459.466 504 453.466 504.667 453.466C505.467 453.333 509.867 457.2 514.667 462ZM592.667 486.666C623.067 494.4 645.467 519.2 650.534 550.666C651.334 555.6 652 579.733 652 605.733C652 656.267 651.734 658.667 644.534 661.333C642.4 662.133 587.334 662.667 501.867 662.667H362.667V612.133V561.6L365.734 558.666C367.6 556.933 385.6 549.333 408.8 540.666C430.667 532.4 469.334 516.266 494.667 504.933L540.667 484.266L561.467 484.133C578.267 484 584.267 484.533 592.667 486.666Z" fill="#FFBB00"/>
<path d="M389.334 257.333C387.2 259.466 386.667 261.733 386.667 269.333C386.667 277.733 387.067 279.2 390.134 282.266C392.8 284.933 394.267 285.466 397.734 284.8C404.4 283.6 406.667 279.733 406.667 270C406.667 263.6 406 260.933 403.867 258.133C400.4 253.733 393.334 253.333 389.334 257.333Z" fill="#FFBB00"/>
<path d="M477.467 258.133C475.467 260.8 474.667 263.6 474.667 268.8C474.667 277.333 476.534 281.866 480.934 283.866C485.734 286 487.734 285.733 491.334 282C494.267 279.2 494.667 277.6 494.667 269.333C494.667 261.733 494.134 259.466 492 257.333C488 253.333 480.934 253.733 477.467 258.133Z" fill="#FFBB00"/>
<path d="M414.933 312.4C408.4 319.333 414.267 330.8 427.2 336.8C440 342.8 452.933 340.4 463.067 330.4C470.4 323.066 471.467 317.2 466.267 312.266C461.467 307.733 456.933 308.533 450.8 314.666C446.533 318.933 444.533 320 440.667 320C436.8 320 434.8 318.933 430.667 314.666C424.533 308.4 419.333 307.6 414.933 312.4Z" fill="#FFBB00"/>
<path d="M404.267 578C380.933 589.867 381.067 622.667 404.533 634.933C412.133 639.067 425.2 639.067 432.8 634.933C449.6 626.133 455.467 605.333 445.6 589.467C437.2 575.733 418.8 570.667 404.267 578ZM427.2 598.8C431.6 603.867 431.6 609.333 427.467 614.267C422.933 619.467 414.4 619.467 409.867 614.267C405.733 609.333 405.733 603.867 410.133 598.8C412.8 595.467 414.667 594.667 418.667 594.667C422.667 594.667 424.533 595.467 427.2 598.8Z" fill="#FFBB00"/>
<path d="M32.9334 244.8C28.8001 246.133 24.4001 248.8 20.6667 252.667C10.8001 262.4 10.6667 263.867 10.6667 330C10.6667 363.2 11.2001 390.667 12.0001 394.667C17.2001 421.867 40.0001 440 68.9334 440H77.3334V519.333V598.8L80.6668 602C84.8001 606.267 89.8668 606.267 94.0001 602L97.3334 598.8V541.333V484H109.333H121.333V573.333V662.667H109.333H97.3334V650.667C97.3334 639.6 97.0668 638.267 94.0001 635.333C89.8668 631.067 84.8001 631.067 80.5334 635.333C77.2001 638.667 77.0668 639.2 77.6001 654C78.0001 670.4 79.0668 673.2 87.2001 679.2C90.5334 681.733 92.8001 682 109.333 682C129.867 682 132 681.2 138.4 672L141.333 667.6V553.867V440H149.733C178 440 200.933 422.267 206.533 396.267C207.467 391.6 208 368.933 208 330.8C208 263.733 207.867 262.4 198 252.667C188 242.667 188.133 242.667 108.8 242.8C51.3334 242.8 38.2667 243.2 32.9334 244.8ZM180.667 264.267C187.867 267.6 188 268.267 188 331.067C188 398.267 187.867 398.933 177.333 409.333C167.067 419.733 165.067 420 109.333 420C56.1334 420 52.6668 419.6 43.0667 411.333C40.0001 408.8 36.1334 403.867 34.4001 400.267C31.3334 394 31.3334 393.867 30.9334 334.133C30.5334 269.867 30.6667 268.267 37.2001 264.667C41.8667 262.133 175.2 261.733 180.667 264.267ZM121.333 452V464H109.333H97.3334V452V440H109.333H121.333V452Z" fill="#FFBB00"/>
<path d="M72.4001 288C70.8001 288.666 68.9334 290.4 68.1334 291.866C67.2001 293.6 66.6667 310.8 66.6667 341.733C66.6667 385.733 66.8001 389.2 69.0667 392.133C72.6667 396.533 79.4667 396.133 83.6001 391.466L86.6667 387.866V341.333C86.6667 294.933 86.6667 294.8 83.7334 291.466C80.1334 287.6 76.4001 286.4 72.4001 288Z" fill="#FFBB00"/>
<path d="M138.667 288.4C132.133 291.733 132 293.333 132.267 342.933C132.667 388.666 132.667 389.333 135.6 392.133C139.2 395.733 145.6 396 149.333 392.666C151.867 390.266 152 388.666 152 341.333C152 296.4 151.867 292.266 149.733 290.4C146.133 287.2 142.4 286.533 138.667 288.4Z" fill="#FFBB00"/>
</g>
<defs>
<clipPath id="clip0_324_7723">
<rect width="682.667" height="682.667" fill="white"/>
</clipPath>
</defs>
</svg>
