<?xml version="1.0" standalone="no"?>
<!DOCTYPE svg PUBLIC "-//W3C//DTD SVG 20010904//EN"
 "http://www.w3.org/TR/2001/REC-SVG-20010904/DTD/svg10.dtd">
<svg version="1.0" xmlns="http://www.w3.org/2000/svg"
 width="28px" height="28px" viewBox="0 0 1037.000000 1037.000000"
 preserveAspectRatio="xMidYMid meet">
<metadata>
Created by potrace 1.16, written by Peter Selinger 2001-2019
</metadata>
<g transform="translate(0.000000,1037.000000) scale(0.100000,-0.100000)"
fill="#ffbb00" stroke="none">
<path d="M2725 10344 c-246 -52 -442 -242 -505 -490 -20 -76 -20 -122 -20
-4214 0 -4084 0 -4138 20 -4214 46 -181 177 -344 340 -424 155 -76 85 -72
1233 -72 l1029 0 29 29 c41 41 41 101 0 142 l-29 29 -989 0 c-1085 0 -1068 -1
-1183 61 -79 42 -163 132 -203 216 l-32 68 -3 3098 -2 3097 2675 0 2675 0 2
-1685 3 -1685 28 -27 c22 -22 37 -28 73 -28 39 0 50 5 75 33 l29 33 -2 2757
-3 2757 -23 65 c-43 119 -83 182 -172 271 -69 71 -100 94 -170 127 -162 78 30
72 -2522 71 -1965 -1 -2293 -3 -2353 -15z m4682 -208 c119 -32 228 -113 290
-217 65 -109 63 -77 63 -1106 l0 -933 -2675 0 -2675 0 2 963 3 962 37 78 c60
126 168 216 299 251 80 22 4576 23 4656 2z"/>
<path d="M7090 9717 c-14 -7 -33 -28 -42 -47 -17 -32 -18 -86 -18 -673 0 -685
0 -690 51 -717 12 -7 40 -12 63 -12 33 1 47 7 69 32 l27 30 0 666 c0 437 -4
672 -10 685 -13 23 -61 49 -92 49 -13 0 -34 -6 -48 -13z"/>
<path d="M7073 6352 c-12 -9 -27 -30 -32 -45 -8 -19 -11 -325 -11 -933 0
-1004 -3 -961 64 -989 46 -20 90 -10 121 27 l25 30 0 935 0 935 -29 29 c-24
23 -38 29 -73 29 -25 0 -52 -8 -65 -18z"/>
<path d="M7229 3545 c-15 -8 -30 -22 -35 -32 -5 -10 -11 -87 -14 -172 l-5
-153 -99 110 c-105 118 -135 138 -190 128 -48 -9 -76 -47 -76 -102 0 -50 -14
-31 222 -291 l148 -161 0 -379 0 -378 -270 270 -270 270 -10 235 c-14 302 -16
317 -47 346 -40 37 -105 34 -145 -7 l-31 -31 7 -161 6 -162 -97 96 c-107 106
-126 119 -173 119 -42 0 -67 -15 -86 -52 -31 -60 -16 -91 103 -211 l108 -109
-50 6 c-43 5 -192 9 -263 7 -13 -1 -37 -14 -53 -30 -23 -23 -29 -38 -29 -71 0
-33 6 -48 29 -71 16 -16 38 -29 48 -30 10 0 134 -6 276 -13 l258 -12 272 -272
272 -272 -380 0 -380 0 -185 171 c-201 185 -232 209 -270 209 -71 0 -123 -79
-96 -144 7 -17 62 -76 123 -131 l110 -100 -162 -5 c-114 -4 -167 -9 -178 -18
-27 -23 -40 -77 -27 -116 19 -60 40 -66 215 -66 l155 0 -114 -105 c-67 -62
-119 -118 -125 -136 -15 -44 6 -98 47 -122 62 -37 83 -24 305 178 l202 185
380 0 380 0 -272 -272 -272 -272 -258 -12 c-142 -7 -266 -13 -276 -13 -10 -1
-32 -14 -48 -30 -39 -40 -40 -96 -2 -142 l27 -32 169 5 169 5 -106 -106 c-118
-118 -133 -149 -102 -209 20 -39 44 -52 96 -52 39 0 47 6 151 107 l109 106 -6
-161 -7 -160 31 -31 c41 -42 106 -44 145 -5 32 32 33 43 46 344 l11 234 270
271 270 270 0 -378 0 -379 -148 -161 c-236 -260 -222 -241 -222 -291 0 -55 28
-93 76 -102 55 -10 85 10 190 128 l99 110 5 -153 c3 -85 9 -162 14 -172 11
-24 58 -47 95 -47 20 0 42 11 63 29 l33 29 5 154 5 154 103 -112 c83 -91 110
-115 138 -120 83 -15 148 63 117 142 -3 10 -87 106 -185 213 l-178 196 0 380
0 380 269 -269 269 -269 7 -186 c4 -102 10 -228 15 -280 7 -86 10 -97 34 -118
29 -25 92 -31 127 -13 43 23 49 58 43 222 l-7 153 110 -108 c103 -101 112
-107 151 -107 29 0 49 7 71 26 27 23 31 32 31 76 l0 51 -105 107 -105 107 160
-5 c135 -4 163 -2 184 11 34 23 51 77 36 121 -21 63 -33 66 -331 80 l-270 13
-272 271 -272 272 378 0 378 0 187 -171 c241 -222 248 -226 317 -194 50 24 69
84 44 138 -6 13 -60 68 -121 123 l-110 99 162 5 162 5 24 28 c16 19 24 40 24
67 0 27 -8 48 -24 67 l-24 28 -163 5 -162 5 111 99 c61 55 115 110 121 123 25
54 6 112 -44 138 -61 34 -82 21 -302 -180 l-202 -185 -378 0 -378 0 272 272
272 272 263 12 c165 7 273 16 290 24 41 19 63 73 49 120 -18 61 -45 72 -175
71 -61 -1 -133 -4 -161 -7 l-50 -7 108 110 107 110 0 51 c0 44 -4 53 -31 76
-22 19 -42 26 -71 26 -39 0 -48 -6 -151 -107 l-110 -108 7 153 c6 164 0 199
-43 222 -35 18 -98 12 -127 -13 -24 -21 -27 -32 -34 -118 -5 -52 -11 -178 -15
-280 l-7 -186 -269 -269 -269 -269 0 380 0 380 178 196 c98 107 182 203 185
213 31 79 -34 157 -117 142 -28 -5 -55 -29 -138 -120 l-103 -112 -5 153 c-5
148 -6 153 -31 179 -32 31 -93 41 -130 19z"/>
</g>
</svg>
