<svg width="683" height="683" viewBox="0 0 683 683" fill="none" xmlns="http://www.w3.org/2000/svg">
<g clip-path="url(#clip0_324_7720)">
<path d="M330.8 1.7334C321.733 4.5334 302.267 25.6001 287.467 48.4001C255.333 97.4667 253.733 145.2 282.267 194C293.067 212.4 314.533 238.533 324.133 244.933L329.333 248.4V326.533V404.667L297.333 372.667L265.467 340.667L266.933 334.933C268.667 327.867 266.533 302.933 262.533 284.267C255.2 250.667 242.8 226.667 222.667 207.6C196.267 182.4 157.333 169.333 107.867 169.333C94 169.333 91.8667 169.6 85.4667 172.8C77.4667 176.8 71.8667 183.6 69.3334 192.533C67.2 200.267 69.4667 227.2 74 247.067C88.9334 313.2 126.667 347.733 195.333 358C210.667 360.267 240.8 360.667 246.133 358.667C249.733 357.2 250.933 358.267 289.6 396.933L329.333 436.667V486.267V536L300.667 517.067L272.133 498L272.8 493.2C274.4 483.467 259.867 448.933 247.067 432C234.4 415.067 218 403.2 199.333 397.333C174.4 389.333 122.933 394.267 109.867 405.6C99.6 414.667 98.1334 422.933 104 440.133C119.067 484.133 144.533 511.2 179.333 520C197.6 524.667 229.733 523.333 250.933 516.933L257.067 514.933L293.2 539.067L329.333 563.067V617.2C329.333 666.133 329.6 671.733 331.733 676C336.133 684.8 346.533 684.8 350.933 676C352.8 672.4 353.333 667.867 353.333 656V640.667L373.733 620.267L394.133 600L398.533 601.467C405.2 603.867 444.267 602.133 459.733 598.8C510.667 588 542.8 562.533 560 519.6C571.067 491.867 577.733 448.4 573.067 433.2C570.8 425.6 563.867 418.133 555.733 414.667C549.067 411.867 547.467 411.733 527.333 412.4C494.8 413.467 472.133 418.533 450.133 429.6C435.733 436.8 428.933 441.6 418.533 451.867C392.267 478.267 377.2 518.667 376.533 565.2L376.267 585.733L364.8 597.2L353.333 608.667V544L353.467 479.333L391.067 416.667L428.8 354L436.8 353.067C451.333 351.467 478 340.133 494.133 328.533C512.133 315.867 526 295.867 531.6 274.667C534.933 262.4 534.8 230.133 531.467 214.667C528.533 200.667 526.267 195.067 521.6 190.133C513.6 181.6 502.8 180.533 485.067 186.533C444.4 200.267 419.333 222.533 408.4 254.533C402.133 272.933 402.8 312.933 409.867 333.467L411.6 338.533L382.8 386.667L354 434.667L353.6 341.733L353.333 248.667L356.267 246.8C366.267 240.533 388 214.533 399.333 195.467C424.4 153.6 427.333 112.133 408.133 71.4667C394.267 41.7334 364.8 5.7334 351.067 1.60006C344.667 -0.266605 337.067 -0.266605 330.8 1.7334ZM354 32.4001C373.2 52.5334 388.8 78.6667 394.8 100.667C398.667 114.933 398.8 135.067 394.933 149.6C389.867 168.533 377.733 190.133 361.467 209.6L354 218.533L353.333 147.6C352.8 95.6001 352.267 75.8667 351.067 73.8667C350.133 72.2667 347.6 70.2667 345.333 69.3334C340.533 67.3334 334.133 69.3334 331.6 73.8667C330.4 75.8667 329.867 95.6001 329.333 147.6L328.667 218.533L321.2 209.6C304.933 190.133 292.8 168.533 287.733 149.6C283.867 135.067 284 114.933 287.867 100.667C293.867 78.6667 309.467 52.5334 328.667 32.4001C340.8 19.7334 341.867 19.7334 354 32.4001ZM149.867 196C165.867 199.333 182.8 206.133 194.133 213.467C204.267 220 217.6 234 223.867 244.533C233.333 260.4 241.6 288 243.467 309.467L244.267 319.333L193.2 268.4C136.533 212 136.933 212.267 129.333 219.733C126.533 222.667 125.333 225.067 125.333 228.133C125.333 232.267 130 237.2 177.6 284.933L230 337.333H220.667C198.4 337.333 171.2 331.067 152 321.733C141.467 316.533 137.467 313.6 128 304.133C120.667 296.667 114.667 289.067 111.067 282.667C100.8 264.4 93.7334 237.733 91.4667 209.2C90.6667 200.133 90.9334 198.8 93.6 195.333L96.5334 191.6L116.533 192.4C128.8 192.933 141.867 194.4 149.867 196ZM508.267 216C514.133 240.4 512.533 265.6 504 283.733C499.333 293.867 486 307.733 474.533 314.4C466.133 319.333 446.4 328.133 445.6 327.333C445.333 327.067 455.067 310.133 467.333 289.733C491.2 249.867 491.733 248.533 485.333 242.133C481.867 238.533 474.133 238.667 470.533 242.133C469.067 243.733 458.933 259.733 448 277.867C428.8 310 428.267 310.8 427.2 306.4C425.333 298.133 426.4 277.2 429.2 266.4C434.4 246.533 442.533 235.333 460.4 223.467C471.6 216 475.733 214 490.667 208.533C504.267 203.6 505.467 204.133 508.267 216ZM188.667 418C206 422.533 218.8 431.6 230.133 447.333C236.133 455.867 247.467 478.4 246.267 479.467C245.867 479.867 229.333 469.333 209.467 456.133C189.467 442.8 172.267 432 171.2 432C162.267 432 156.267 443.867 161.733 450.533C162.667 451.6 178.667 462.667 197.333 475.067C236.267 501.067 235.733 500.133 209.333 500.267C186.667 500.4 168.933 494.8 156 483.067C144 472.267 133.467 455.333 126.133 434.8C123.2 426.667 122.933 424.533 124.267 423.2C125.2 422.267 131.733 420.267 138.667 418.8C154.533 415.467 177.467 415.2 188.667 418ZM549.467 437.467C552.133 440.133 552.267 441.2 551.467 453.733C549.333 487.2 539.6 516.8 523.867 537.6C505.067 562.667 472 577.2 428.667 579.467L414 580.267L457.067 537.2C496.667 497.333 500 493.6 500 489.467C500 482.8 495.6 478.667 488.8 478.667C483.467 478.667 482.667 479.467 440.933 520.933L398.4 563.333L399.333 554.667C403.733 512.4 419.067 478.8 442.4 460.933C457.067 449.6 479.467 440.533 500 437.467C505.467 436.667 511.467 435.733 513.333 435.467C515.2 435.2 523.467 434.933 531.733 434.8C545.333 434.667 546.933 434.933 549.467 437.467Z" fill="#FFBB00"/>
</g>
<defs>
<clipPath id="clip0_324_7720">
<rect width="682.667" height="682.667" fill="white"/>
</clipPath>
</defs>
</svg>
