<svg width="384" height="384" viewBox="0 0 384 384" fill="none" xmlns="http://www.w3.org/2000/svg">
<g clip-path="url(#clip0_503_7695)">
<path d="M115.2 76.8C51.69 76.8 0 128.49 0 192C0 255.51 51.69 307.2 115.2 307.2C143.82 307.2 171.3 296.46 192 277.68C212.4 295.95 239.31 307.2 268.8 307.2C332.31 307.2 384 255.51 384 192C384 128.49 332.31 76.8 268.8 76.8C239.31 76.8 212.4 88.0501 192 106.32C171.3 87.5401 143.82 76.8 115.2 76.8ZM268.8 92.16C323.85 92.16 368.64 136.95 368.64 192C368.64 247.05 323.85 291.84 268.8 291.84C242.91 291.84 219.36 281.91 201.6 265.68C204.45 261.63 207.81 257.49 211.2 253.44H190.32C188.37 250.95 186.51 248.43 184.8 245.76H215.76C218.82 241.14 221.13 235.77 223.44 230.4H176.64C175.59 227.88 174.6 225.36 173.76 222.72H225.12C226.65 218.1 227.22 212.73 228 207.36H170.16C169.77 204.84 169.65 202.26 169.44 199.68H229.68V184.32H169.44C169.65 181.74 169.77 179.16 170.16 176.64H229.68C228.9 171.27 228.09 165.9 226.56 161.28H173.76C174.6 158.64 175.59 156.12 176.64 153.6H222.72C220.41 148.23 218.1 142.86 215.04 138.24H184.8C186.51 135.57 188.37 133.05 190.32 130.56H210.48C207.93 126.75 204.72 122.85 201.12 119.04C218.94 102.48 242.61 92.16 268.8 92.16Z" fill="black"/>
<path d="M72.6222 351V318.273H81.2727V324.047H81.6562C82.3381 322.129 83.4744 320.616 85.0653 319.509C86.6562 318.401 88.5597 317.847 90.7756 317.847C93.0199 317.847 94.9304 318.408 96.5071 319.53C98.0838 320.638 99.1349 322.143 99.6605 324.047H100.001C100.669 322.172 101.876 320.673 103.624 319.551C105.385 318.415 107.466 317.847 109.866 317.847C112.92 317.847 115.399 318.82 117.303 320.766C119.22 322.697 120.179 325.439 120.179 328.99V351H111.124V330.78C111.124 328.962 110.641 327.598 109.675 326.689C108.709 325.78 107.501 325.325 106.053 325.325C104.405 325.325 103.119 325.851 102.196 326.902C101.273 327.939 100.811 329.31 100.811 331.014V351H92.0114V330.588C92.0114 328.983 91.5497 327.705 90.6264 326.753C89.7173 325.801 88.517 325.325 87.0256 325.325C86.017 325.325 85.108 325.581 84.2983 326.092C83.5028 326.589 82.8707 327.293 82.402 328.202C81.9332 329.097 81.6989 330.148 81.6989 331.355V351H72.6222ZM136.681 351.618C134.593 351.618 132.732 351.256 131.099 350.531C129.465 349.793 128.173 348.706 127.221 347.271C126.283 345.822 125.815 344.018 125.815 341.859C125.815 340.041 126.148 338.514 126.816 337.278C127.484 336.043 128.393 335.048 129.543 334.295C130.694 333.543 132.001 332.974 133.464 332.591C134.941 332.207 136.489 331.938 138.109 331.781C140.012 331.582 141.546 331.398 142.711 331.227C143.876 331.043 144.721 330.773 145.246 330.418C145.772 330.062 146.035 329.537 146.035 328.841V328.713C146.035 327.364 145.609 326.32 144.756 325.581C143.918 324.842 142.725 324.473 141.177 324.473C139.543 324.473 138.244 324.835 137.278 325.56C136.312 326.27 135.673 327.165 135.36 328.244L126.965 327.562C127.391 325.574 128.229 323.855 129.479 322.406C130.729 320.943 132.342 319.821 134.316 319.04C136.305 318.244 138.606 317.847 141.219 317.847C143.038 317.847 144.778 318.06 146.44 318.486C148.116 318.912 149.6 319.572 150.893 320.467C152.2 321.362 153.229 322.513 153.982 323.919C154.735 325.311 155.112 326.98 155.112 328.926V351H146.504V346.462H146.248C145.722 347.484 145.019 348.386 144.138 349.168C143.258 349.935 142.2 350.538 140.964 350.979C139.728 351.405 138.3 351.618 136.681 351.618ZM139.281 345.354C140.616 345.354 141.795 345.091 142.817 344.565C143.84 344.026 144.643 343.301 145.225 342.392C145.808 341.483 146.099 340.453 146.099 339.303V335.83C145.815 336.014 145.424 336.185 144.927 336.341C144.444 336.483 143.897 336.618 143.286 336.746C142.675 336.859 142.065 336.966 141.454 337.065C140.843 337.151 140.289 337.229 139.792 337.3C138.727 337.456 137.796 337.705 137.001 338.045C136.205 338.386 135.587 338.848 135.147 339.43C134.707 339.999 134.487 340.709 134.487 341.561C134.487 342.797 134.934 343.741 135.829 344.395C136.738 345.034 137.888 345.354 139.281 345.354ZM177.068 351.639C173.702 351.639 170.804 350.957 168.375 349.594C165.96 348.216 164.099 346.27 162.793 343.756C161.486 341.227 160.832 338.237 160.832 334.786C160.832 331.419 161.486 328.464 162.793 325.922C164.099 323.379 165.939 321.398 168.311 319.977C170.697 318.557 173.496 317.847 176.706 317.847C178.865 317.847 180.875 318.195 182.736 318.891C184.611 319.572 186.244 320.602 187.636 321.98C189.043 323.358 190.136 325.091 190.918 327.179C191.699 329.253 192.089 331.682 192.089 334.466V336.959H164.455V331.334H183.545C183.545 330.027 183.261 328.869 182.693 327.861C182.125 326.852 181.337 326.064 180.328 325.496C179.334 324.913 178.176 324.622 176.855 324.622C175.477 324.622 174.256 324.942 173.19 325.581C172.139 326.206 171.315 327.051 170.719 328.116C170.122 329.168 169.817 330.339 169.803 331.632V336.98C169.803 338.599 170.101 339.999 170.697 341.178C171.308 342.357 172.168 343.266 173.276 343.905C174.384 344.544 175.697 344.864 177.217 344.864C178.226 344.864 179.149 344.722 179.987 344.438C180.825 344.153 181.543 343.727 182.139 343.159C182.736 342.591 183.19 341.895 183.503 341.071L191.898 341.625C191.472 343.642 190.598 345.403 189.277 346.909C187.97 348.401 186.28 349.565 184.206 350.403C182.146 351.227 179.767 351.639 177.068 351.639ZM225.243 327.605L216.933 328.116C216.791 327.406 216.486 326.767 216.017 326.199C215.548 325.616 214.93 325.155 214.163 324.814C213.411 324.459 212.509 324.281 211.457 324.281C210.051 324.281 208.865 324.58 207.899 325.176C206.933 325.759 206.45 326.54 206.45 327.52C206.45 328.301 206.763 328.962 207.388 329.501C208.013 330.041 209.085 330.474 210.605 330.801L216.528 331.994C219.71 332.648 222.082 333.699 223.645 335.148C225.207 336.597 225.989 338.5 225.989 340.858C225.989 343.003 225.357 344.885 224.092 346.504C222.842 348.124 221.124 349.388 218.936 350.297C216.763 351.192 214.256 351.639 211.415 351.639C207.082 351.639 203.631 350.737 201.06 348.933C198.503 347.115 197.004 344.643 196.564 341.518L205.491 341.05C205.761 342.371 206.415 343.379 207.452 344.075C208.489 344.757 209.817 345.098 211.436 345.098C213.027 345.098 214.305 344.793 215.271 344.182C216.251 343.557 216.749 342.754 216.763 341.774C216.749 340.95 216.401 340.276 215.719 339.75C215.037 339.21 213.986 338.798 212.565 338.514L206.898 337.385C203.702 336.746 201.322 335.638 199.76 334.061C198.212 332.484 197.438 330.474 197.438 328.031C197.438 325.929 198.006 324.118 199.142 322.598C200.293 321.078 201.905 319.906 203.979 319.082C206.067 318.259 208.51 317.847 211.308 317.847C215.442 317.847 218.695 318.72 221.067 320.467C223.453 322.214 224.845 324.594 225.243 327.605ZM249.112 318.273V325.091H229.403V318.273H249.112ZM233.877 310.432H242.954V340.943C242.954 341.781 243.082 342.435 243.338 342.903C243.593 343.358 243.949 343.678 244.403 343.862C244.872 344.047 245.412 344.139 246.022 344.139C246.449 344.139 246.875 344.104 247.301 344.033C247.727 343.947 248.054 343.884 248.281 343.841L249.708 350.595C249.254 350.737 248.615 350.901 247.791 351.085C246.967 351.284 245.966 351.405 244.787 351.447C242.599 351.533 240.681 351.241 239.034 350.574C237.4 349.906 236.129 348.869 235.22 347.463C234.311 346.057 233.863 344.281 233.877 342.136V310.432ZM255.025 351V318.273H263.824V323.983H264.165C264.762 321.952 265.763 320.418 267.169 319.381C268.576 318.33 270.195 317.804 272.027 317.804C272.482 317.804 272.972 317.832 273.498 317.889C274.023 317.946 274.485 318.024 274.882 318.124V326.178C274.456 326.05 273.867 325.936 273.114 325.837C272.361 325.737 271.672 325.688 271.047 325.688C269.712 325.688 268.519 325.979 267.468 326.561C266.431 327.129 265.607 327.925 264.996 328.947C264.4 329.97 264.101 331.149 264.101 332.484V351H255.025ZM292.839 351.639C289.529 351.639 286.667 350.936 284.252 349.53C281.852 348.109 279.998 346.135 278.691 343.607C277.384 341.064 276.731 338.116 276.731 334.764C276.731 331.384 277.384 328.429 278.691 325.901C279.998 323.358 281.852 321.384 284.252 319.977C286.667 318.557 289.529 317.847 292.839 317.847C296.148 317.847 299.004 318.557 301.404 319.977C303.819 321.384 305.68 323.358 306.987 325.901C308.293 328.429 308.947 331.384 308.947 334.764C308.947 338.116 308.293 341.064 306.987 343.607C305.68 346.135 303.819 348.109 301.404 349.53C299.004 350.936 296.148 351.639 292.839 351.639ZM292.881 344.608C294.387 344.608 295.644 344.182 296.653 343.33C297.661 342.463 298.421 341.284 298.933 339.793C299.458 338.301 299.721 336.604 299.721 334.7C299.721 332.797 299.458 331.099 298.933 329.608C298.421 328.116 297.661 326.937 296.653 326.071C295.644 325.205 294.387 324.771 292.881 324.771C291.362 324.771 290.083 325.205 289.046 326.071C288.023 326.937 287.249 328.116 286.724 329.608C286.212 331.099 285.957 332.797 285.957 334.7C285.957 336.604 286.212 338.301 286.724 339.793C287.249 341.284 288.023 342.463 289.046 343.33C290.083 344.182 291.362 344.608 292.881 344.608Z" fill="black"/>
</g>
<defs>
<clipPath id="clip0_503_7695">
<rect width="384" height="384" fill="white"/>
</clipPath>
</defs>
</svg>
