<svg width="683" height="683" viewBox="0 0 683 683" fill="none" xmlns="http://www.w3.org/2000/svg">
<path d="M294 69.7333C292.4 71.0666 291.067 74.9333 289.867 82.1333C286.4 103.467 287.867 111.067 297.067 118.667L302.4 123.2L299.867 130.533C298.4 134.533 294.933 147.067 292.133 158.533C283.867 191.467 280 218.133 280 242.133V255.733L255.2 278C241.6 290.267 229.6 301.6 228.533 303.333C226.933 305.867 226.667 324.4 226.933 442.8C227.333 572.133 227.467 579.733 229.867 585.733C233.2 594.533 243.867 605.733 253.067 610.267L260.667 614H341.333H422L429.6 610.267C438.8 605.733 449.467 594.533 452.8 585.733C455.2 579.733 455.333 572.133 455.733 443.333C456 345.6 455.6 306.4 454.533 304C453.733 302.133 441.867 290.667 428.133 278.4L403.067 256.133L402.267 235.067C401.2 205.067 392.533 158.667 382.667 130L380.267 123.2L385.6 118.667C394.8 111.067 396.267 103.467 392.8 82.1333C391.6 74.9333 390.267 71.0666 388.667 69.7333C385.067 67.2 297.6 67.2 294 69.7333ZM379.067 84.2666C383.067 100.933 381.067 108.533 372.667 110.133C369.867 110.667 367.067 112.267 365.867 114C364.267 116.533 364.267 117.6 366 122.533C369.733 133.333 378.667 166 381.333 179.333C386.267 203.467 388 217.733 388.933 240.267L389.733 262.533L415.467 285.6L441.333 308.667V443.467V578.267L438.267 584.133C434.267 591.733 425.867 598 417.333 599.867C408 601.867 274.667 601.867 265.333 599.867C256.8 598 248.4 591.733 244.4 584.133L241.333 578.267V443.467V308.667L267.2 285.6L292.933 262.533L293.733 240.267C295.067 206 301.733 169.733 313.867 131.333C319.2 114.533 318.667 111.733 310 110.133C301.6 108.533 299.467 100.4 303.467 84.4L304.267 81.3333H341.333H378.4L379.067 84.2666Z" fill="#FFBB00"/>
<path d="M386.133 330.933C384.4 333.333 384 338.4 384 358.267C384 380.933 384.133 382.8 386.667 385.333C388.133 386.8 390.267 388 391.333 388C392.4 388 394.533 386.8 396 385.333C398.533 382.8 398.667 380.933 398.667 358.267C398.667 331.733 397.733 328 391.333 328C389.6 328 387.2 329.333 386.133 330.933Z" fill="#FFBB00"/>
<path d="M386.133 422.933C384.267 425.466 384 432 384 467.6C384 507.6 384.133 509.467 386.667 512C388.133 513.467 390.267 514.667 391.333 514.667C392.4 514.667 394.533 513.467 396 512C398.533 509.467 398.667 507.6 398.667 467.6C398.667 422.266 398.267 420 391.333 420C389.6 420 387.2 421.333 386.133 422.933Z" fill="#FFBB00"/>
</svg>
