<svg width="683" height="683" viewBox="0 0 683 683" fill="none" xmlns="http://www.w3.org/2000/svg">
<path d="M295 63.5C293.365 64.8622 287.726 68.4365 286.5 75.7925C282.957 97.588 289.364 106.17 298.766 113.935L303 117.885L297 124.5C295.501 128.587 289.362 137.785 286.5 149.5C278.052 183.147 277 213.649 277 238.169L272.5 251L253.5 272C239.601 284.532 220.59 298.229 219.5 300C217.865 302.588 217.727 324.807 218 445.772C218.409 577.907 220.047 588.37 222.5 594.5C225.906 603.491 232.406 619.868 241.808 624.5L257 633.5H343.5H429L452 624.5C461.402 619.868 470.5 594.5 470.5 594.5C470.5 594.5 470.091 577.362 470.5 445.772C470.772 345.921 464.59 304.952 463.5 302.5C462.682 300.593 452.035 284.532 438 272L415.5 253.971V230.5C414.41 199.85 402.462 155.346 392.378 126.058L384.884 118.566L392.378 113.935C401.78 106.17 400.145 98.4053 396.602 76.6098C395.376 69.2538 395.135 63.3622 393.5 62C389.821 59.4118 298.679 60.9118 295 63.5ZM382.567 78.7894C386.655 95.8171 384.611 103.582 376.027 105.216C373.165 105.761 370.304 107.396 369.077 109.167C367.442 111.755 367.442 112.845 369.214 117.885C373.029 128.919 382.158 162.294 384.884 175.916C389.925 200.572 391.697 215.148 392.651 238.169L393.468 260.918L419.767 284.485L446.202 308.051V445.772V583.492L443.068 589.486C438.98 597.251 430.395 603.653 421.675 605.56C412.136 607.604 275.874 607.604 266.335 605.56C257.615 603.653 249.03 597.251 244.942 589.486L241.808 583.492V445.772V308.051L268.243 284.485L294.542 260.918L295.359 238.169C296.722 203.16 303.535 166.108 315.935 126.876C321.385 109.712 320.84 106.851 311.983 105.216C303.399 103.582 301.219 95.2723 305.307 78.9256L306.124 75.7925H344.005H381.886L382.567 78.7894Z" fill="#FFBB00"/>
<path d="M386.133 330.933C384.4 333.333 384 338.4 384 358.267C384 380.933 384.133 382.8 386.667 385.333C388.133 386.8 390.267 388 391.333 388C392.4 388 394.533 386.8 396 385.333C398.533 382.8 398.667 380.933 398.667 358.267C398.667 331.733 397.733 328 391.333 328C389.6 328 387.2 329.333 386.133 330.933Z" fill="#FFBB00"/>
<path d="M386.133 422.933C384.267 425.466 384 432 384 467.6C384 507.6 384.133 509.467 386.667 512C388.133 513.467 390.267 514.667 391.333 514.667C392.4 514.667 394.533 513.467 396 512C398.533 509.467 398.667 507.6 398.667 467.6C398.667 422.267 398.267 420 391.333 420C389.6 420 387.2 421.333 386.133 422.933Z" fill="#FFBB00"/>
</svg>
