<svg width="294" height="65" viewBox="0 0 294 65" fill="none" xmlns="http://www.w3.org/2000/svg">
<path d="M104.386 32.3646C102.383 30.1923 98.9412 29.0389 94.4297 29.0389C89.0492 29.0389 84.5162 30.1437 80.9292 32.3048C78.712 30.1176 74.9752 29.0389 69.5091 29.0389C62.9986 29.0389 58.1146 29.7929 53.1707 31.5546L52.9824 31.6255L44.7939 63.9038H56.7277C56.7277 63.9038 63.6107 36.7577 63.7048 36.3732C65.1302 35.9701 66.2645 35.8208 68.0366 35.8208C69.9029 35.8208 71.2769 36.25 72.026 37.06C72.6466 37.7281 72.8178 38.6911 72.5311 39.8257L66.4272 63.9038H78.3567C78.3567 63.9038 85.047 37.5564 85.1112 37.3026C86.5366 36.3172 88.1417 35.8208 90.0251 35.8208C91.6859 35.8208 92.8716 36.1978 93.5522 36.9368C94.2071 37.646 94.3826 38.6873 94.0573 39.9526L87.9834 63.9038H99.9214L105.961 40.1019C106.744 37.0115 106.201 34.339 104.386 32.3646Z" fill="#1A468E"/>
<path d="M170.676 29.1676C161.271 28.7682 154.667 29.5073 149.273 31.5564L149.089 31.6273L140.905 63.9019H152.835C152.835 63.9019 159.709 36.8154 159.808 36.4384C161.896 35.7255 164.567 35.8039 166.691 36.6661L167.037 36.8005L171.266 29.19L170.676 29.1676Z" fill="#1A468E"/>
<path d="M130.829 46.3665C128.873 54.0815 125.269 57.9931 120.12 57.9931C119.015 57.9931 118.009 57.8513 117.277 57.6161C122.85 35.6058 128.244 14.3532 122.735 36.1023C123.891 35.6469 125.025 35.4491 126.587 35.4491C128.364 35.4491 129.639 35.8858 130.474 36.7928C131.942 38.3902 132.058 41.518 130.829 46.3665ZM140.627 32.8102C138.465 30.4662 135.187 29.2271 131.137 29.2271C128.419 29.2271 126.352 29.5518 124.216 30.2759C124.507 29.1375 128.565 13.241 128.565 13.241L128.025 13.2932C127.957 13.2969 121.357 13.9091 116.584 14.4727L116.314 14.5063L107.531 48.9792L104.273 61.8338L104.475 61.9644C107.013 63.6142 111.816 64.5249 117.996 64.5249C130.718 64.5249 139.737 57.7281 142.737 45.8925C144.124 40.4431 143.375 35.7999 140.627 32.8102" fill="#1A468E"/>
<path d="M220.217 29.8742C220.422 29.0829 222.682 20.1586 222.682 20.1586L222.16 20.1922C217.473 20.4945 213.706 21.241 210.303 22.5362L210.128 22.6034C210.128 22.6034 208.142 30.4079 208.035 30.8297C206.712 31.0126 205.535 31.2104 204.465 31.4344L204.247 31.4754L202.059 37.8952L202.659 37.8206C203.84 37.675 205.064 37.5556 206.357 37.4436C205.663 40.1795 202.089 54.2733 202.081 54.3031C202.081 54.3031 202.046 54.445 202.046 54.4673C201.841 55.3333 201.738 56.1619 201.738 56.942C201.738 58.8269 202.329 60.443 203.498 61.6934C205.175 63.4887 207.889 64.3994 211.575 64.3994C213.976 64.3994 216.189 63.903 217.452 63.4364L217.636 63.3693L219.19 57.2704L219.288 56.8412L216.099 56.942C215.17 56.942 214.562 56.7703 214.25 56.4344C214.032 56.1955 213.92 55.8334 213.92 55.337C213.92 54.8928 214.006 54.3442 214.177 53.6723C214.177 53.6723 218.325 37.3242 218.449 36.824C218.916 36.8054 224.433 36.6187 224.433 36.6187L226.094 30.0795L226.205 29.6428C226.205 29.6428 221.069 29.8406 220.217 29.8742Z" fill="#1A468E"/>
<path d="M279.051 19.6752C273.717 21.6944 267.1 23.374 267.027 23.389L266.809 23.445L256.54 63.9048H268.474L279.757 19.4139L279.051 19.6752Z" fill="#1A468E"/>
<path d="M174.657 53.3014C175.916 48.3335 180.196 46.9152 186.698 46.3329C186.48 47.1727 183.852 57.5527 183.762 57.8923C182.709 58.273 181.331 58.4895 179.854 58.4895C177.585 58.4895 176.01 58.0304 175.18 57.1272C174.679 56.5822 174.431 55.8507 174.431 54.9512C174.431 54.451 174.503 53.9023 174.657 53.3014M197.673 32.422C195.606 30.1788 191.907 29.0404 186.677 29.0404C183.094 29.0404 179.447 29.4771 175.843 30.3393L175.633 30.3879L173.228 37.6214L173.951 37.3862C176.25 36.6472 179.708 35.7589 183.081 35.7589C185.598 35.7589 187.19 36.162 187.948 36.9868C188.333 37.3974 188.522 37.9312 188.522 38.603C188.522 38.9725 188.462 39.3793 188.35 39.831C188.35 39.831 188.098 40.8014 188.008 41.1448C177.731 41.9809 165.754 44.1756 163.378 53.5291C163.139 54.4883 163.015 55.3916 163.015 56.2314C163.015 58.0603 163.588 59.6055 164.731 60.8484C166.974 63.2857 171.413 64.5249 177.923 64.5249C184.237 64.5249 189.87 63.6291 193.791 62.0018L193.958 61.9271L199.086 41.7196C200.109 37.6811 199.634 34.5533 197.673 32.422" fill="#1A468E"/>
<path d="M243.79 35.4496C245.327 35.4496 246.418 35.8265 247.138 36.6029C247.805 37.327 248.139 38.4169 248.139 39.8539C248.139 40.8616 247.972 42.0224 247.647 43.3661C244.411 44.1163 238.076 44.8703 234.605 45.042C235.966 38.9506 239.287 35.4496 243.79 35.4496ZM256.486 32.8256C254.256 30.3137 250.618 29.0409 245.674 29.0409C234.613 29.0409 226.343 35.6101 223.552 46.6171C223.073 48.5281 222.829 50.3234 222.829 51.9843C222.829 55.3323 223.809 58.1354 225.744 60.2368C228.329 63.0399 232.584 64.5254 238.059 64.5254C242.515 64.5254 246.423 64.014 249.988 62.9615L250.198 62.898L252.159 55.1009L251.315 55.407C250.001 55.9407 246.363 57.1836 241.034 57.1836C238.414 57.1836 236.578 56.6536 235.435 55.5675C234.438 54.6269 233.945 53.2496 233.945 51.3797C233.945 51.096 233.967 50.7862 233.997 50.469C241.761 49.8456 251.906 48.5243 258.138 46.2811L258.207 46.0647C258.994 43.4034 258.969 42.3434 258.969 40.2308C258.969 37.1702 258.138 34.6881 256.486 32.8256" fill="#1A468E"/>
<path d="M211.762 1.44708C157.182 5.10488 129.689 9.47932 91.1396 16.1194C91.4992 16.0559 91.8545 16.0186 92.2183 15.9701C127.352 11.0544 169.66 6.77329 208.423 5.07129C287.812 1.57771 301.381 10.976 258.641 23.7261C258.641 23.7298 258.654 23.7298 258.654 23.7373C261.432 23.0095 269.59 20.9193 272.107 20.1691C312.668 8.07965 295.966 -4.1964 211.762 1.44708Z" fill="#FDDD04"/>
<path d="M31.5622 28.4368C31.5622 28.4368 32.4183 24.8088 32.4611 24.611H46.3596L48.6325 23.9056L50.3446 16.5452H21.4732L17.5566 33.0874L31.5622 28.4368Z" fill="#1A468E"/>
<path d="M27.9598 43.6495H41.0878L42.9541 35.7852H29.826C29.8902 35.5202 30.2412 34.0347 30.665 32.2319C24.8308 34.1989 20.1137 36.0353 16.4583 37.7298L10.2773 63.8384H41.152L43.3264 54.8432H25.3102C25.4857 54.0892 27.8399 44.1497 27.9598 43.6495Z" fill="#1A468E"/>
<path d="M31.2363 27.6254C-5.27139 37.759 -5.54961 46.2429 12.5137 46.7505C12.2655 46.7132 12.0301 46.6758 11.7946 46.6422C11.8032 46.6422 11.8032 46.6422 11.8075 46.646C6.56825 46.213 4.50081 45.1791 4.2611 43.3913C3.63616 38.61 18.0783 31.7609 54.7015 22.9188C63.1511 20.8771 72.5209 19.2348 82.3787 17.5179C82.3573 17.5216 82.3359 17.5254 82.3145 17.5328C82.4643 17.4992 82.6227 17.4731 82.7725 17.4432C82.9309 17.4209 83.0807 17.391 83.2305 17.3611C67.4187 19.5484 47.8101 23.0233 31.2363 27.6254Z" fill="#4DBE54"/>
<path d="M143.184 9.18502C127.74 10.943 112.921 12.9212 99.0654 15.0338C132.727 10.5474 171.794 6.90822 208.066 5.24728C287.417 1.68278 301.367 10.9691 258.699 23.708C278.025 18.5945 289.313 13.608 288.718 9.63665C287.34 0.402551 222.179 0.204731 143.184 9.18502Z" fill="#4DBE54"/>
<path d="M34.7513 29.1369C50.302 24.2996 67.5607 20.179 82.3795 17.514C72.5217 19.2384 63.1476 20.8769 54.698 22.9186C18.0791 31.7645 2.71665 38.9458 3.82099 43.3949C4.25332 45.1603 6.56902 46.2129 11.804 46.6421C7.28813 45.9591 5.66157 45.5037 5.59737 43.7009C5.49036 40.6067 14.8174 35.3626 34.7513 29.1369Z" fill="#FDDD04"/>
</svg>
