<svg width="272" height="82" viewBox="0 0 272 82" fill="none" xmlns="http://www.w3.org/2000/svg">
<path d="M115.75 42.0464C115.75 53.1817 105.76 61.387 93.5 61.387C81.24 61.387 71.25 53.1817 71.25 42.0464C71.25 30.8327 81.24 22.7058 93.5 22.7058C105.76 22.7058 115.75 30.8327 115.75 42.0464ZM106.01 42.0464C106.01 35.088 100.22 30.327 93.5 30.327C86.78 30.327 80.99 35.088 80.99 42.0464C80.99 48.9351 86.78 53.7659 93.5 53.7659C100.22 53.7659 106.01 48.9264 106.01 42.0464Z" fill="#EA4335"/>
<path d="M163.75 42.0464C163.75 53.1817 153.76 61.387 141.5 61.387C129.24 61.387 119.25 53.1817 119.25 42.0464C119.25 30.8414 129.24 22.7058 141.5 22.7058C153.76 22.7058 163.75 30.8327 163.75 42.0464ZM154.01 42.0464C154.01 35.088 148.22 30.327 141.5 30.327C134.78 30.327 128.99 35.088 128.99 42.0464C128.99 48.9351 134.78 53.7659 141.5 53.7659C148.22 53.7659 154.01 48.9264 154.01 42.0464Z" fill="#FBBC05"/>
<path d="M209.75 23.8743V58.5967C209.75 72.8798 200.09 78.7133 188.67 78.7133C177.92 78.7133 171.45 72.4438 169.01 67.3165L177.49 64.2384C179 67.3863 182.7 71.1009 188.66 71.1009C195.97 71.1009 200.5 67.1683 200.5 59.7651V56.9835H200.16C197.98 59.3291 193.78 61.3783 188.48 61.3783C177.39 61.3783 167.23 52.9549 167.23 42.1162C167.23 31.1989 177.39 22.7058 188.48 22.7058C193.77 22.7058 197.97 24.755 200.16 27.0309H200.5V23.883H209.75V23.8743ZM201.19 42.1162C201.19 35.306 195.98 30.327 189.35 30.327C182.63 30.327 177 35.306 177 42.1162C177 48.8566 182.63 53.7659 189.35 53.7659C195.98 53.7659 201.19 48.8566 201.19 42.1162Z" fill="#4285F4"/>
<path d="M225 3.52222V60.2012H215.5V3.52222H225Z" fill="#34A853"/>
<path d="M262.02 48.4118L269.58 52.8066C267.14 55.9545 261.26 61.3782 251.1 61.3782C238.5 61.3782 229.09 52.8851 229.09 42.0376C229.09 30.5362 238.58 22.697 250.01 22.697C261.52 22.697 267.15 30.6844 268.99 35.0007L270 37.1981L240.35 47.9061C242.62 51.7864 246.15 53.7658 251.1 53.7658C256.06 53.7658 259.5 51.6382 262.02 48.4118ZM238.75 41.4534L258.57 34.277C257.48 31.8616 254.2 30.1786 250.34 30.1786C245.39 30.1786 238.5 33.9892 238.75 41.4534Z" fill="#EA4335"/>
<path d="M35.2904 37.0152V28.8098H67.0004C67.3103 30.2399 67.4704 31.9315 67.4704 33.7627C67.4704 39.9189 65.5404 47.5313 59.3204 52.9551C53.2704 58.4486 45.5404 61.3784 35.3004 61.3784C16.3204 61.3784 0.360352 47.8975 0.360352 31.3473C0.360352 14.797 16.3204 1.31616 35.3004 1.31616C45.8004 1.31616 53.2804 4.90874 58.9004 9.59129L52.2603 15.3813C48.2304 12.0852 42.7704 9.52153 35.2904 9.52153C21.4304 9.52153 10.5904 19.2616 10.5904 31.3473C10.5904 43.433 21.4304 53.1731 35.2904 53.1731C44.2803 53.1731 49.4004 50.0252 52.6804 47.1651C55.3404 44.8456 57.0904 41.5321 57.7803 37.0065L35.2904 37.0152Z" fill="#4285F4"/>
</svg>
