<svg width="344" height="39" viewBox="0 0 344 39" fill="none" xmlns="http://www.w3.org/2000/svg">
<path d="M142.802 24.8984H164.654L153.107 8.62624L131.914 38.0164H122.235L148.039 2.74541C149.14 1.31551 151.029 0.44986 153.095 0.44986C155.116 0.44986 156.973 1.28747 158.075 2.68233L183.958 38.0164H174.304L169.754 31.4451H147.625L142.802 24.8984ZM243.068 31.4451V0.810839H234.861V34.4591C234.861 35.3738 235.303 36.2745 236.075 36.9229C236.855 37.6273 237.932 38.0164 239.057 38.0164H276.383L281.246 31.4451H243.068ZM107.549 25.9673C115.527 25.9673 121.938 20.3318 121.938 13.3856C121.938 6.43933 115.527 0.810839 107.549 0.810839H71.7063V38.0164H79.8974V7.38559H107.007C110.809 7.38559 113.896 10.0667 113.896 13.3856C113.896 16.701 110.809 19.4276 107.007 19.4276L83.9045 19.4101L108.373 38.0164H120.258L103.824 25.9673H107.549ZM21.3097 38.0164H46.0719C57.8521 38.0164 67.3414 29.7033 67.3414 19.4276C67.3414 9.13792 57.8521 0.810839 46.0719 0.810839H21.3097C9.54154 0.810839 0 9.13792 0 19.4276C0 29.7033 9.54154 38.0164 21.3097 38.0164M45.5052 31.4696H21.8563C14.244 31.4696 8.07454 26.0655 8.07454 19.4276C8.07454 12.7617 14.244 7.38559 21.8563 7.38559H45.5052C53.1457 7.38559 59.3031 12.7617 59.3031 19.4276C59.3031 26.0655 53.1457 31.4696 45.5052 31.4696M201.064 38.0164H226.344L231.131 31.4696H201.626C193.978 31.4696 187.816 26.0655 187.816 19.4276C187.816 12.7617 193.978 7.38559 201.626 7.38559H225.641L230.484 0.810839H201.064C189.292 0.810839 179.726 9.13792 179.726 19.4276C179.726 29.7033 189.292 38.0164 201.064 38.0164M301.246 31.4696C294.936 31.4696 289.614 27.7687 287.975 22.708H322.982L327.805 16.1473H287.975C289.61 11.076 294.936 7.38559 301.246 7.38559H325.285L330.088 0.810839H300.699C288.943 0.810839 279.406 9.13792 279.406 19.4276C279.406 29.7033 288.943 38.0164 300.699 38.0164H325.98L330.783 31.4696H301.246ZM334.481 4.78513C334.481 2.96971 336.157 1.49425 338.271 1.49425C340.369 1.49425 342.029 2.96971 342.029 4.78513C342.029 6.59003 340.369 8.06199 338.271 8.06199C336.157 8.06199 334.481 6.59003 334.481 4.78513ZM338.271 8.96269C340.911 8.96269 343.033 7.11223 343.033 4.80265C343.033 2.48957 340.911 0.600558 338.271 0.600558C335.598 0.600558 333.472 2.48957 333.472 4.80265C333.472 7.11223 335.598 8.96269 338.271 8.96269ZM337.804 2.31434C338.524 2.31434 338.857 2.34238 339.227 2.4335C340.16 2.69985 340.244 3.47438 340.244 3.74074C340.244 3.80382 340.22 3.95803 340.184 4.12975C340.14 4.312 340.031 4.69401 339.529 4.94284C339.46 4.97788 339.428 5.00592 339.32 5.05148L340.55 6.99307H339.352L338.251 5.18816H337.527V6.99307H336.458V2.31434H337.804ZM338.186 4.43116C338.512 4.43116 338.857 4.40312 339.05 4.12975C339.195 4.02812 339.215 3.89144 339.215 3.73723C339.215 3.47438 339.046 3.27112 338.805 3.16247C338.524 3.06434 338.315 3.06434 337.804 3.06434H337.527V4.43116H338.186Z" fill="#ED1C24"/>
</svg>
