<svg width="71" height="49" viewBox="0 0 71 49" fill="none" xmlns="http://www.w3.org/2000/svg">
<rect x="0.5" y="0.5" width="70" height="48" rx="5.5" fill="white"/>
<path d="M50 48L69 42.25V45C69 46.6569 67.6569 48 66 48H50Z" fill="#FD6020"/>
<path fill-rule="evenodd" clip-rule="evenodd" d="M59.9703 18.6013C62.1029 18.6013 63.2758 19.5885 63.2758 21.4533C63.3825 22.8793 62.4228 24.0859 61.1432 24.3053L64.0223 28.3639H61.783L59.3305 24.415H59.1172V28.3639H57.3045V18.6013H59.9703ZM59.1172 23.0987H59.6503C60.8233 23.0987 61.3564 22.5503 61.3564 21.563C61.3564 20.6855 60.8233 20.137 59.6503 20.137H59.1172V23.0987ZM51.0132 28.3639H56.1315V26.7185H52.8259V24.0859H56.0249V22.4405H52.8259V20.2467H56.1315V18.6013H51.0132V28.3639ZM45.6816 25.1828L43.229 18.6013H41.3097L45.255 28.5833H46.2147L50.1601 18.6013H48.2407L45.6816 25.1828ZM24.0353 23.5375C24.0353 26.2798 26.1679 28.5833 28.8337 28.5833C29.6868 28.5833 30.4332 28.364 31.1796 28.0349V25.841C30.6465 26.4992 29.9 26.9379 29.047 26.9379C27.3409 26.9379 25.9547 25.6216 25.9547 23.8666V23.6472C25.848 21.8921 27.2342 20.3564 28.9404 20.2467C29.7934 20.2467 30.6465 20.6855 31.1796 21.3436V19.1498C30.5398 18.711 29.6868 18.6013 28.9404 18.6013C26.1679 18.3819 24.0353 20.6855 24.0353 23.5375ZM20.7297 22.3309C19.6634 21.8921 19.3435 21.6727 19.3435 21.1242C19.4501 20.4661 19.9833 19.9176 20.623 20.0273C21.1562 20.0273 21.6894 20.3564 22.1159 20.7952L23.0756 19.4789C22.3292 18.8207 21.3695 18.3819 20.4098 18.3819C18.9169 18.2722 17.6373 19.4789 17.5307 21.0145V21.1242C17.5307 22.4406 18.0639 23.2084 19.77 23.7569C20.1965 23.8666 20.623 24.0859 21.0496 24.3053C21.3695 24.5247 21.5827 24.8538 21.5827 25.2926C21.5827 26.0604 20.9429 26.7186 20.3032 26.7186H20.1965C19.3435 26.7186 18.597 26.1701 18.2771 25.4023L17.1042 26.6089C17.744 27.8155 19.0236 28.4736 20.3032 28.4736C22.0093 28.5833 23.3955 27.267 23.5021 25.5119V25.1829C23.3955 23.8666 22.8623 23.2084 20.7297 22.3309ZM14.545 28.3639H16.3578V18.6013H14.545V28.3639ZM6.12109 18.6013H8.78689H9.32005C11.8792 18.711 13.9052 20.9049 13.7986 23.5375C13.7986 24.9635 13.1588 26.2798 12.0925 27.267C11.1328 28.0349 9.95985 28.4737 8.78689 28.364H6.12109V18.6013ZM8.467 26.7185C9.32006 26.8282 10.2797 26.4992 10.9195 25.9507C11.5593 25.2925 11.8792 24.415 11.8792 23.4278C11.8792 22.5502 11.5593 21.6727 10.9195 21.0145C10.2797 20.4661 9.32006 20.137 8.467 20.2467H7.93384V26.7185H8.467Z" fill="black"/>
<path fill-rule="evenodd" clip-rule="evenodd" d="M36.618 18.375C33.9522 18.375 31.7129 20.5689 31.7129 23.4209C31.7129 26.1632 33.8455 28.4667 36.618 28.5764C39.3904 28.6861 41.523 26.3826 41.6297 23.5305C41.523 20.6785 39.3904 18.375 36.618 18.375V18.375Z" fill="#FD6020"/>
<rect x="0.5" y="0.5" width="70" height="48" rx="5.5" stroke="#F9F7F6"/>
</svg>
