<svg width="294" height="68" viewBox="0 0 294 68" fill="none" xmlns="http://www.w3.org/2000/svg">
<path d="M171.326 19.1668L188.23 13.6868L171.326 7.92799V0.300815L200.278 10.4672V16.7935L171.326 27.0176V19.1668Z" fill="#A100FF"/>
<path d="M11.3221 67.7939C5.23346 67.7939 0.181641 65.084 0.181641 59.0968V58.7577C0.181641 51.472 7.43398 49.1011 16.1781 49.1011H20.3889V47.6896C20.3889 44.7513 18.8998 42.9431 15.4033 42.9431C12.2293 42.9431 10.5445 44.5253 10.2853 46.7855H1.21848C1.86374 40.2332 7.82279 37.0135 15.8555 37.0135C24.0151 37.0135 29.8473 40.0649 29.8473 47.4059V67.1736H20.5847V63.7832C18.9633 65.9304 15.8555 67.7939 11.3221 67.7939ZM20.3889 57.3463V54.5233H16.6331C11.9674 54.5233 9.57383 55.6511 9.57383 58.3057V58.587C9.57383 60.6212 10.9995 62.0351 14.1734 62.0351C17.4108 62.0351 20.3889 60.4529 20.3889 57.3463M51.2899 67.7939C41.8977 67.7939 35.0976 62.7108 35.0976 52.7151V52.3184C35.0976 42.3227 42.3527 37.0135 51.3533 37.0135C59.0607 37.0135 65.4113 40.4039 66.1862 48.1393H57.1194C56.5348 45.2611 54.8527 43.3952 51.5491 43.3952C47.5314 43.3952 44.749 46.1628 44.749 51.9817V52.8834C44.749 58.8707 47.2088 61.583 51.6153 61.583C54.8527 61.583 57.2462 59.4911 57.7646 56.2714H66.382C65.7339 62.9921 60.4863 67.7939 51.2899 67.7939ZM86.5286 67.7939C77.1364 67.7939 70.3363 62.7108 70.3363 52.7151V52.3184C70.3363 42.3227 77.5914 37.0135 86.5947 37.0135C94.3021 37.0135 100.65 40.4039 101.428 48.1393H92.358C91.7762 45.2611 90.0913 43.3952 86.7878 43.3952C82.7728 43.3952 79.9877 46.1628 79.9877 51.9817V52.8834C79.9877 58.8707 82.4474 61.583 86.8539 61.583C90.0913 61.583 92.4876 59.4911 93.006 56.2714H101.621C100.973 62.9921 95.725 67.7939 86.5286 67.7939ZM122.029 67.7939C112.248 67.7939 105.578 62.7108 105.578 52.8834V52.3184C105.578 42.4357 112.637 37.0135 121.704 37.0135C130.125 37.0135 137.185 41.1373 137.185 50.9069V54.4656H115.163C115.552 59.7748 118.141 61.8067 122.222 61.8067C125.848 61.8067 127.792 60.1139 128.44 57.9666H137.185C136.148 63.5596 130.903 67.7939 122.029 67.7939ZM115.292 48.9857H127.988C127.792 44.6383 125.526 42.7748 121.767 42.7748C118.789 42.7748 116.07 44.1862 115.292 48.9857M143.017 37.6363H152.472V42.0414C154.157 39.2714 157.524 37.0135 162.706 37.0135C168.86 37.0135 172.942 40.2332 172.942 47.4059V67.1736H163.483V48.6491C163.483 45.2034 161.865 43.6765 158.431 43.6765C155.131 43.6765 152.472 45.4294 152.472 49.1564V67.1736H143.017V37.6363ZM190.629 28.7107V37.6363H197.106V43.7895H190.629V57.7983C190.629 60.0009 191.792 61.0156 193.995 61.0156C195.355 61.0156 196.392 60.8473 197.299 60.5082V66.9475C196.199 67.2289 194.318 67.5679 191.988 67.5679C184.603 67.5679 181.107 64.632 181.107 58.6447V43.7895H177.155V37.6363H181.107V32.0987L190.629 28.7107ZM232.733 67.1736H223.275V62.8238C221.656 65.6491 218.482 67.7939 213.431 67.7939C207.342 67.7939 202.872 64.5743 202.872 57.6276V37.6363H212.394V56.3868C212.394 59.7748 213.949 61.3546 217.316 61.3546C220.62 61.3546 223.275 59.5488 223.275 55.8771V37.6363H232.733V67.1736ZM239.602 37.6363H249.058V43.0561C251.066 39.1031 254.24 37.2395 259.228 37.2395V45.3717C252.814 45.3717 249.058 47.0669 249.058 51.9817V67.1736H239.602V37.6363ZM278.663 67.7939C268.882 67.7939 262.212 62.7108 262.212 52.8834V52.3184C262.212 42.4357 269.271 37.0135 278.338 37.0135C286.756 37.0135 293.819 41.1373 293.819 50.9069V54.4656H271.797C272.186 59.7748 274.775 61.8067 278.856 61.8067C282.482 61.8067 284.426 60.1139 285.074 57.9666H293.819C292.782 63.5596 287.537 67.7939 278.663 67.7939ZM271.924 48.9857H284.619C284.426 44.6383 282.16 42.7748 278.401 42.7748C275.423 42.7748 272.704 44.1862 271.924 48.9857" fill="#FFF9F9"/>
</svg>
