<svg width="231" height="71" viewBox="0 0 231 71" fill="none" xmlns="http://www.w3.org/2000/svg">
<path d="M154.604 2.27634C153.89 2.27663 153.183 2.39958 152.524 2.63817C151.865 2.87675 151.266 3.2263 150.762 3.66683C149.765 4.53588 149.167 5.76342 149.167 7.02355V64.3223C149.167 65.5825 149.74 66.7883 150.762 67.6791C151.266 68.1195 151.865 68.469 152.525 68.7074C153.184 68.9458 153.891 69.0685 154.605 69.0685C155.319 69.0685 156.026 68.9458 156.685 68.7074C157.345 68.469 157.944 68.1195 158.449 67.6791C159.445 66.81 160.043 65.5825 160.043 64.3223V7.02137C160.043 5.76124 159.47 4.55544 158.449 3.66466C157.944 3.22387 157.345 2.87417 156.685 2.63557C156.025 2.39698 155.318 2.27417 154.604 2.27417V2.27634ZM71.7784 22.4731C71.7784 19.8529 69.3441 17.7281 66.3467 17.7281C63.3493 17.7281 60.915 19.8529 60.915 22.4731V64.318C60.915 66.9382 63.3493 69.063 66.3467 69.063C69.3441 69.063 71.7784 66.9382 71.7784 64.318V22.4731Z" fill="#5A646E"/>
<path d="M73.3129 7.0299C73.2776 8.62178 72.5279 10.1381 71.2249 11.2535C69.9218 12.3681 68.1702 12.9916 66.3464 12.9916C64.5225 12.9916 62.7709 12.3659 61.4678 11.2535C60.1648 10.1381 59.4152 8.62178 59.3799 7.0299C59.3791 5.41676 60.1131 3.86939 61.4205 2.72809C62.7236 1.58746 64.4926 0.946533 66.3439 0.946533C68.1951 0.946533 69.9642 1.58746 71.2698 2.72809C72.5772 3.86939 73.3112 5.41676 73.3104 7.0299H73.3129Z" fill="#00AEEF"/>
<path d="M139.345 32.8712C134.123 22.5599 121.767 15.2729 107.67 16.533C102.917 16.9711 98.3448 18.3632 94.3122 20.6002C90.2781 22.8386 86.8926 25.8606 84.4206 29.4297C81.9475 33.0008 80.4544 37.022 80.0578 41.1793C79.6592 45.3377 80.3718 49.5222 82.1333 53.3982C83.8945 57.2753 86.66 60.7448 90.2136 63.5357C93.7662 66.3244 98.0103 68.3589 102.614 69.48C107.216 70.6011 112.082 70.7749 116.749 69.9906C121.416 69.2063 125.863 67.4855 129.668 64.9609C130.308 64.5331 130.829 63.9861 131.195 63.3597C131.562 62.734 131.763 62.0431 131.783 61.3392C131.824 60.0908 131.295 58.8793 130.313 57.9706C129.331 57.0618 127.975 56.5301 126.543 56.492C125.313 56.4576 124.107 56.792 123.125 57.4393C119.362 59.9735 114.683 61.2511 109.935 61.0415C106.073 60.8677 102.345 59.7314 99.2207 57.7717C96.069 55.8113 93.6239 53.1078 92.172 49.9785C91.9739 49.5566 91.9619 49.0858 92.138 48.6566C92.3142 48.2274 92.6662 47.8702 93.1262 47.6538C93.4311 47.511 93.7718 47.4363 94.1179 47.4365H131.853C133.059 47.4408 134.255 47.2366 135.371 46.8368C136.487 46.4371 137.502 45.8483 138.356 45.1053C139.211 44.3622 139.891 43.4801 140.354 42.5068C140.818 41.5345 141.058 40.4921 141.06 39.439C140.985 37.1795 140.412 34.9504 139.38 32.8777L139.345 32.8712ZM110.879 25.8058C114.919 25.8066 118.865 26.8647 122.208 28.8431C125.553 30.8238 128.139 33.6339 129.633 36.9101C129.759 37.1895 129.806 37.4914 129.77 37.79C129.733 38.0884 129.612 38.3744 129.42 38.6231C129.227 38.8718 128.967 39.0758 128.664 39.2174C128.36 39.3586 128.021 39.4347 127.677 39.4347H94.078C93.7335 39.4351 93.3943 39.3604 93.0913 39.2174C92.7874 39.074 92.5282 38.8698 92.3339 38.6243C92.1396 38.3788 92.02 38.0898 91.9851 37.79C91.949 37.4914 91.996 37.1895 92.1221 36.9101C93.6158 33.6339 96.2023 30.8238 99.5471 28.8431C102.891 26.8878 106.837 25.8058 110.876 25.8058H110.879ZM199.139 61.0589C195.265 61.0597 191.474 60.0874 188.218 58.2584C184.961 56.429 182.375 53.8197 180.743 50.7411C179.137 47.6636 178.579 44.2485 179.136 40.9025C179.693 37.5564 181.34 34.4203 183.883 31.8674L175.66 25.7471C172.998 28.443 170.974 31.5716 169.705 34.9526C168.433 38.3337 167.938 41.9003 168.248 45.4485C168.557 48.9964 169.668 52.4574 171.487 55.6317C173.331 58.8044 175.876 61.6285 178.974 63.942C182.071 66.2558 185.662 68.0113 189.538 69.1128C193.415 70.2134 197.502 70.6343 201.565 70.3512C205.627 70.0688 209.588 69.0868 213.216 67.4616C216.845 65.8385 220.07 63.6066 222.707 60.8938L214.484 54.7756C212.592 56.7444 210.228 58.3271 207.558 59.412C204.887 60.4984 201.982 61.0589 199.036 61.0567L199.139 61.0589Z" fill="#5A646E"/>
<path d="M199.139 16.3723C194.691 16.368 190.294 17.2023 186.257 18.8165C182.213 20.4321 178.616 22.7903 175.713 25.7299L183.91 31.8502C187.403 28.337 192.344 26.1731 197.656 25.832C202.968 25.4909 208.221 26.99 212.27 30.0143C216.318 33.0386 218.832 37.336 219.271 41.9703C219.705 46.6048 218.024 51.2015 214.592 54.7605L222.789 60.8787C226.601 56.9419 229.05 52.136 229.84 47.026C230.63 41.916 229.729 36.7158 227.244 32.037C224.76 27.3604 220.795 23.4005 215.815 20.6242C210.824 17.8671 205.044 16.3723 199.139 16.3723V16.3723Z" fill="#00AEEF"/>
<path d="M50.8982 57.6521C49.9613 56.9439 48.7753 56.5354 47.5345 56.4963C46.2937 56.4572 45.0803 56.7896 44.0886 57.437C41.0987 59.4315 37.5308 60.6569 33.7859 60.9741C30.041 61.2913 26.2688 60.6916 22.8976 59.236C19.5265 57.7803 16.6836 55.5338 14.6928 52.7463C12.7028 49.9575 11.6452 46.7397 11.639 43.4551C11.6329 40.1705 12.6784 36.9496 14.6579 34.1551C16.6359 31.3627 19.4689 29.1075 22.8378 27.6438C26.2065 26.1816 29.9763 25.5689 33.7211 25.8752C37.466 26.1816 41.0389 27.3961 44.0363 29.384C45.0177 30.0436 46.229 30.3893 47.4677 30.3632C48.7064 30.3371 49.8972 29.9408 50.8409 29.2406C51.4513 28.7844 51.9372 28.2195 52.2611 27.5829C52.585 26.9463 52.7494 26.2511 52.7345 25.5515C52.7195 24.8519 52.5202 24.1654 52.1614 23.5418C51.8026 22.9183 51.2844 22.3686 50.654 21.9428C46.0638 18.8788 40.5812 16.9972 34.8274 16.5112C29.0718 16.0245 23.2813 16.9544 18.1013 19.1944C12.9213 21.4344 8.56599 24.9019 5.52126 29.1907C2.47653 33.4794 0.86945 38.4309 0.881908 43.4757C0.894365 48.5206 2.51888 53.4655 5.57856 57.7456C8.63824 62.0256 13.0085 65.4736 18.196 67.6962C23.3835 69.9188 29.1839 70.8335 34.932 70.3316C40.6833 69.8287 46.1582 67.9313 50.7362 64.8544C51.3584 64.4289 51.8643 63.8881 52.2173 63.2711C52.5702 62.6541 52.7613 61.9763 52.7768 61.2869C52.7927 60.5977 52.6326 59.914 52.3081 59.2853C51.9836 58.6567 51.5029 58.0988 50.9007 57.6521H50.8982Z" fill="#5A646E"/>
</svg>
