<svg width="257" height="50" viewBox="0 0 257 50" fill="none" xmlns="http://www.w3.org/2000/svg">
<path d="M0.462891 0.105117V49.3228L58.7837 0.105117H0.462891Z" fill="#44C8F5"/>
<path d="M0.461914 0.104862V24.7236L29.6187 0.104862H0.461914Z" fill="black"/>
<path d="M140.229 10.7895L132.613 38.6304H146.066L153.673 10.7895H140.229Z" fill="#00A1E4"/>
<path d="M109.506 26.9252H106.421L111.396 18.8918L113.006 26.9252H109.506ZM107.59 10.7855L90.2939 38.625H99.1886L102.06 33.9849H109.506H114.411L115.33 38.625H128.463L122.881 10.7855H107.59Z" fill="#00A1E4"/>
<path d="M201.656 10.7895L194.063 38.6304H207.511L215.104 10.7895H201.656Z" fill="#00A1E4"/>
<path d="M195.645 10.7895H181.86L170.327 19.896L172.843 10.7895H159.952L152.359 38.6304H165.21L167.834 29.0171L174.708 38.6304H190.263L178.743 24.0493L195.645 10.7895Z" fill="#00A1E4"/>
<path d="M79.7372 23.4403C79.7372 23.4403 78.8641 32.4832 70.4379 32.4832H67.8665H65.6722L69.8694 17.4657H74.1971C75.7445 17.4763 80.2245 17.8438 79.7372 23.4403ZM79.0541 10.8013L75.5763 10.7907H58.7471L51.1533 38.6223H67.8665L74.477 38.6289C83.7864 38.6289 92.948 32.2922 92.948 22.5821C92.948 11.1608 79.0541 10.8013 79.0541 10.8013" fill="#00A1E4"/>
<path d="M247.229 10.7845L242.742 27.1776L236.768 10.7845H221.808L214.21 38.6294H223.512L228.039 22.0904L234.036 38.6294H248.93L256.538 10.7845H247.229Z" fill="#00A1E4"/>
</svg>
