<svg width="294" height="55" viewBox="0 0 294 55" fill="none" xmlns="http://www.w3.org/2000/svg">
<g clip-path="url(#clip0_140_7555)">
<path d="M294 25.3165V20.8653H287.579V13.9454L287.363 14.0027L281.332 15.5912L281.213 15.6223V20.8656H271.695V17.9446C271.695 16.5845 272.048 15.5437 272.744 14.8496C273.436 14.1638 274.424 13.8151 275.686 13.8151C276.592 13.8151 277.531 13.999 278.476 14.3616L278.713 14.4527V9.76495L278.601 9.72969C277.72 9.45694 276.521 9.31958 275.035 9.31958C273.163 9.31958 271.461 9.67044 269.977 10.3658C268.492 11.0621 267.324 12.0562 266.506 13.32C265.69 14.5824 265.277 16.0405 265.277 17.654V20.8653H260.806V25.3165H265.277V44.0687H271.695V25.3165H281.213V37.2332C281.213 42.1411 283.902 44.6282 289.206 44.6282C290.077 44.6282 290.994 44.5403 291.931 44.3682C292.884 44.1914 293.533 44.0149 293.916 43.8263L294 43.7832V39.2909L293.739 39.4395C293.391 39.6393 292.957 39.8026 292.448 39.924C291.938 40.0477 291.511 40.1096 291.181 40.1096C289.938 40.1096 289.019 39.8215 288.449 39.2527C287.872 38.6788 287.579 37.6752 287.579 36.2712V25.3165H294ZM246.473 40.1104C244.144 40.1104 242.307 39.4454 241.013 38.1355C239.71 36.819 239.05 34.942 239.05 32.5572C239.05 30.0968 239.71 28.1712 241.013 26.8314C242.308 25.5004 244.127 24.8249 246.421 24.8249C248.646 24.8249 250.418 25.4701 251.687 26.7435C252.962 28.0235 253.609 29.9338 253.609 32.4228C253.609 34.9425 253.001 36.878 251.8 38.1727C250.609 39.4576 248.816 40.1104 246.473 40.1104ZM246.758 20.3064C242.314 20.3064 238.784 21.4275 236.267 23.6386C233.752 25.8501 232.476 28.9103 232.476 32.7352C232.476 36.3682 233.721 39.2904 236.177 41.4193C238.632 43.5489 241.974 44.6277 246.108 44.6277C250.417 44.6277 253.876 43.4909 256.392 41.2491C258.908 39.0098 260.182 35.9784 260.182 32.2429C260.182 28.5531 258.986 25.6091 256.626 23.4944C254.266 21.3788 250.945 20.3064 246.758 20.3064ZM222.128 20.3064C219.105 20.3064 216.605 20.9721 214.694 22.2847C212.772 23.6051 211.797 25.3369 211.797 27.4325C211.797 28.5218 212.008 29.4894 212.422 30.3101C212.838 31.1335 213.483 31.8585 214.34 32.4669C215.19 33.0704 216.502 33.7026 218.241 34.3458C219.703 34.8637 220.793 35.3017 221.485 35.6469C222.162 35.9853 222.643 36.3254 222.914 36.6566C223.178 36.9808 223.311 37.4245 223.311 37.9719C223.311 39.5308 221.955 40.2893 219.165 40.2893C218.13 40.2893 216.949 40.1033 215.656 39.7365C214.372 39.3753 213.16 38.8463 212.063 38.168L211.797 38.0035V43.3232L211.895 43.3624C212.803 43.7232 213.948 44.0276 215.297 44.267C216.644 44.5067 217.868 44.6287 218.931 44.6287C222.212 44.6287 224.853 43.9598 226.781 42.6393C228.721 41.3098 229.704 39.5372 229.704 37.3691C229.704 35.8051 229.175 34.4638 228.132 33.3821C227.096 32.3092 225.297 31.3242 222.789 30.4536C220.791 29.7631 219.511 29.1899 218.983 28.75C218.474 28.3249 218.215 27.7238 218.215 26.9626C218.215 26.2878 218.534 25.7472 219.189 25.3094C219.849 24.8695 220.768 24.6457 221.921 24.6457C222.99 24.6457 224.084 24.7911 225.172 25.0761C226.259 25.3611 227.214 25.7428 228.012 26.2097L228.274 26.364V21.3178L228.173 21.2806C227.438 21.0091 226.468 20.7767 225.29 20.5882C224.117 20.4009 223.054 20.3064 222.128 20.3064ZM195.066 40.1104C192.737 40.1104 190.899 39.4454 189.605 38.1355C188.303 36.819 187.644 34.9425 187.644 32.5572C187.644 30.0968 188.304 28.1712 189.607 26.8314C190.901 25.5004 192.72 24.8249 195.014 24.8249C197.239 24.8249 199.01 25.4701 200.28 26.7435C201.555 28.0235 202.202 29.9338 202.202 32.4228C202.202 34.9425 201.593 36.878 200.393 38.1727C199.201 39.4576 197.41 40.1104 195.066 40.1104ZM195.352 20.3064C190.906 20.3064 187.376 21.4275 184.86 23.6386C182.345 25.8501 181.069 28.9103 181.069 32.7352C181.069 36.3697 182.315 39.2904 184.77 41.4193C187.226 43.5489 190.567 44.6277 194.702 44.6277C199.009 44.6277 202.47 43.4909 204.986 41.2491C207.501 39.0098 208.775 35.9784 208.775 32.2429C208.775 28.5531 207.579 25.6091 205.219 23.4944C202.858 21.3788 199.538 20.3064 195.352 20.3064ZM171.326 24.8837V20.8653H164.987V44.0682H171.326V32.199C171.326 30.1808 171.858 28.5227 172.907 27.2704C173.942 26.033 175.322 25.4059 177.007 25.4059C177.578 25.4059 178.219 25.487 178.914 25.6473C179.601 25.8067 180.098 25.9798 180.392 26.162L180.658 26.3282V20.8257L180.556 20.7877C179.965 20.5718 179.13 20.4628 178.073 20.4628C176.48 20.4628 175.054 20.9035 173.833 21.7712C172.761 22.5339 171.986 23.5796 171.394 24.8837H171.326ZM153.633 20.3064C150.724 20.3064 148.13 20.8433 145.923 21.9017C143.712 22.9626 142.002 24.4772 140.839 26.4032C139.68 28.3244 139.092 30.5686 139.092 33.0714C139.092 35.2637 139.662 37.2756 140.789 39.0487C141.917 40.8248 143.513 42.2143 145.533 43.178C147.551 44.1405 149.883 44.6284 152.465 44.6284C155.478 44.6284 158.05 44.1099 160.113 43.0872L160.196 43.046V38.0456L159.929 38.2131C158.995 38.799 157.951 39.2666 156.828 39.6035C155.707 39.9402 154.686 40.1104 153.79 40.1104C151.302 40.1104 149.305 39.4402 147.855 38.1191C146.403 36.7962 145.666 34.9386 145.666 32.6011C145.666 30.2489 146.434 28.3435 147.948 26.9376C149.457 25.5359 151.458 24.8249 153.894 24.8249C155.978 24.8249 158.009 25.4324 159.93 26.6321L160.196 26.7983V21.5296L160.11 21.488C159.387 21.1396 158.401 20.8519 157.177 20.6337C155.958 20.416 154.766 20.3064 153.633 20.3064ZM134.726 20.8656H128.386V44.0682H134.726V20.8656ZM131.62 10.9811C130.577 10.9811 129.667 11.2869 128.919 11.8929C128.168 12.5006 127.788 13.2657 127.788 14.1687C127.788 15.0574 128.164 15.8086 128.908 16.4002C129.646 16.99 130.559 17.2889 131.621 17.2889C132.682 17.2889 133.598 16.99 134.346 16.4011C135.098 15.8086 135.48 15.0577 135.48 14.1687C135.48 13.2973 135.109 12.54 134.377 11.9173C133.646 11.2959 132.718 10.9811 131.62 10.9811ZM115.802 19.1536V44.0682H122.272V11.6914H113.317L101.935 35.7399L90.8889 11.6914H81.5693V44.068H87.6496V19.1512H87.8583L99.5225 44.0682H104.111L115.593 19.1536H115.802Z" fill="#706D6E"/>
<path d="M29.8247 26.5481H0V0.87207H29.8247V26.5481Z" fill="#F1511B"/>
<path d="M62.7548 26.5481H32.9307V0.87207H62.7548V26.5481Z" fill="#80CC28"/>
<path d="M29.8239 54.9072H0V29.2314H29.8239V54.9072Z" fill="#00ADEF"/>
<path d="M62.7548 54.9072H32.9307V29.2314H62.7548V54.9072Z" fill="#FBBC09"/>
</g>
<defs>
<clipPath id="clip0_140_7555">
<rect width="294" height="54.063" fill="white" transform="translate(0 0.858154)"/>
</clipPath>
</defs>
</svg>
