<svg width="160" height="106" viewBox="0 0 160 106" fill="none" xmlns="http://www.w3.org/2000/svg">
<path d="M14.8086 79.8857C24.1732 79.8857 28.8555 85.2249 28.8555 90.25V101.556H22.7325V90.25C22.7325 87.1093 20.5714 81.7702 14.8086 81.7702C9.04577 81.7702 6.88471 87.1093 6.88471 90.25V101.556H0.761719V90.25C0.761719 85.2249 5.08383 79.8857 14.8086 79.8857" fill="#FF6C0E"/>
<path d="M97.6494 102.185C88.2848 102.185 83.6025 96.8457 83.6025 91.8206V80.5142H89.7255V91.8206C89.7255 94.9613 91.8866 100.3 97.6494 100.3C103.412 100.3 105.573 94.9613 105.573 91.8206V80.5142H111.696V91.8206C111.336 96.8457 107.014 102.185 97.6494 102.185Z" fill="#FF6C0E"/>
<path d="M52.9872 100.3C51.5465 101.242 50.1058 101.87 47.9447 102.184C41.8217 103.127 33.5376 99.3578 33.1775 91.5062C32.8173 83.6545 41.8217 80.1997 47.5845 80.1997C57.3093 80.5138 60.911 87.1092 60.911 90.878V101.87H54.788V90.878C54.788 88.3655 53.3473 82.3982 47.2243 82.3982C41.1013 82.3982 39.3005 87.4233 39.3005 90.878C39.3005 93.3906 40.0208 99.0438 46.8642 99.3578C49.0252 99.3578 51.9066 99.0438 52.9872 98.4156V100.3Z" fill="#FF6C0E"/>
<path d="M80.0005 105.011C79.2802 105.325 77.1191 105.639 74.5979 105.011C71.7165 104.383 67.0342 103.127 67.0342 94.647C67.0342 91.8204 67.0342 70.7778 67.0342 70.7778H72.797V80.1999H78.1996V83.6546H72.797C72.797 83.6546 72.797 90.25 72.797 95.9033C72.797 100.614 74.2377 102.499 75.6784 102.813C77.1191 103.441 79.6403 103.127 80.0005 103.127V105.011Z" fill="#FF6C0E"/>
<path d="M117.098 89.9358C117.098 84.5966 120.34 80.8278 125.743 80.5137C129.705 80.1997 130.785 80.8278 130.785 80.8278V83.0263C130.785 83.0263 128.624 82.3981 126.463 83.0263C123.942 83.6544 122.861 87.1091 122.861 88.0513V102.184H116.738L117.098 89.9358Z" fill="#FF6C0E"/>
<path d="M151.315 100.3C149.875 101.242 148.434 101.87 146.273 102.184C140.15 103.127 131.866 99.3578 131.506 91.5062C131.145 83.6545 140.15 80.1997 145.913 80.1997C155.637 80.5138 159.239 87.1092 159.239 90.878V101.87H153.116V90.878C153.116 88.3655 151.675 82.3982 145.552 82.3982C139.429 82.3982 137.629 87.4233 137.629 90.878C137.629 93.3906 138.349 99.0438 145.192 99.3578C147.353 99.3578 150.235 99.0438 151.315 98.4156V100.3Z" fill="#FF6C0E"/>
<path d="M80.7205 19.2704C78.9196 24.6096 78.5594 25.8659 77.4789 28.6925C76.7585 30.8909 75.3178 31.8332 73.5169 31.8332C72.0762 31.8332 70.6355 31.205 69.555 29.9487C66.3134 26.494 61.9913 21.4689 59.4701 18.6423C56.2285 15.5016 48.6648 12.675 44.7028 16.7579C39.3002 22.7252 45.7834 29.6347 49.7453 33.7176C50.1055 34.0316 50.4657 34.3457 50.4657 34.6598C51.186 35.602 52.2665 36.2301 52.9869 37.1723C54.7878 39.0567 56.5887 40.313 55.5081 41.5693C55.148 42.1974 54.0674 42.5115 52.9869 42.5115C50.1055 42.5115 40.7409 40.313 38.5799 39.9989C36.779 39.6848 35.3383 39.6849 34.6179 40.9411C33.8976 42.5115 36.4188 46.5943 42.5418 49.421C48.6648 52.2476 58.7497 53.5038 59.4701 53.8179C63.0718 54.446 62.3515 56.0164 61.6311 56.9586C61.271 57.2727 61.271 57.2727 60.9108 57.5867C60.1904 58.2149 59.8302 58.5289 59.8302 59.1571C60.1904 61.0415 65.2329 61.6696 68.1143 61.9837C70.9957 62.2977 74.5975 62.6118 77.1187 61.6696C79.6399 60.7274 79.6399 59.4711 81.4408 58.843C83.2417 58.2149 83.9621 58.5289 86.1231 58.843C86.8435 59.1571 87.924 59.1571 89.3647 59.4711C92.6063 60.0993 98.0089 59.4711 101.251 58.5289C107.013 56.9586 109.535 55.0742 109.535 54.446C109.535 53.8179 108.454 53.5038 107.373 53.5038C106.293 53.1898 101.971 52.5616 100.53 51.9335C99.0895 50.9913 100.17 49.735 103.051 48.7928C105.933 47.8506 115.297 44.3959 118.899 41.5693C122.501 38.7426 125.743 34.0316 122.861 31.5191C120.34 29.0065 116.018 30.891 113.136 32.1472C112.776 32.4613 112.416 32.4613 112.056 32.7754C108.454 34.3457 102.331 37.1723 100.17 37.4864C98.3691 37.8004 95.1275 37.8004 96.5682 34.0316C98.3691 29.6347 99.4496 26.8081 100.53 23.9815C101.971 20.5267 104.132 12.3609 94.7673 9.84841C87.924 7.64993 83.2417 12.675 80.7205 19.2704V19.2704ZM72.0762 21.783C72.0762 21.783 74.9576 13.3032 77.1187 9.53433C80.7205 3.25299 87.2036 0.112305 94.047 0.112305C95.1275 0.112305 96.208 0.112302 96.9284 0.426376C110.975 2.62484 111.335 15.1876 110.255 19.5845C109.174 23.6674 107.374 27.7503 107.013 29.0065C107.013 29.3206 107.013 29.3206 107.013 29.3206C108.094 29.0066 113.136 26.8081 118.539 24.6096C123.942 22.7252 133.666 22.7252 131.145 32.1472C128.624 41.8833 116.018 47.5366 114.577 47.8506C113.497 48.4788 111.696 49.1069 111.335 49.421C110.975 49.735 110.975 49.735 111.335 49.735C111.696 49.735 112.056 49.735 112.776 50.0491C114.577 50.0491 117.098 50.3632 117.098 51.6194C117.098 53.5038 113.857 56.3304 104.852 59.7852C95.4877 63.554 87.5638 61.6696 85.4028 61.3555C84.6824 61.9837 80.3603 65.7525 68.1143 63.554C59.1099 62.2977 56.9488 61.3555 54.7878 59.1571C54.0674 58.5289 53.7072 57.5867 54.4276 56.0164C54.7878 55.7023 54.7878 55.3882 54.4276 55.3882C40.7409 52.8757 32.4569 45.3381 29.5754 40.627C28.1347 38.1145 28.4949 36.5442 29.2153 35.602C30.2958 34.0316 33.8976 34.0316 37.4993 34.9738C41.8214 35.916 43.9825 36.5442 44.7028 36.5442C45.063 36.5442 45.063 36.5442 44.7028 36.2301C43.6223 34.9738 40.0206 30.891 38.2197 28.3784C34.9781 23.9815 31.0161 12.675 41.4613 7.964C52.6267 2.62485 62.7116 12.0469 64.8727 14.2454C66.6736 16.4438 70.6355 20.8408 70.9957 21.4689C71.7161 22.4111 72.0762 21.783 72.0762 21.783V21.783Z" fill="url(#paint0_linear_239_7772)"/>
<defs>
<linearGradient id="paint0_linear_239_7772" x1="86.1231" y1="58.843" x2="78.4497" y2="24.1027" gradientUnits="userSpaceOnUse">
<stop stop-color="#FF6C0E"/>
<stop offset="1" stop-color="#FFBF00"/>
</linearGradient>
</defs>
</svg>
