<svg width="73" height="50" viewBox="0 0 73 50" fill="none" xmlns="http://www.w3.org/2000/svg">
<rect width="73" height="50" rx="6" fill="white"/>
<path d="M7 8H7.67477V25.9165H7V8ZM8.34954 8H9.02431V25.9165H8.34954V8ZM12.401 8H13.0758V25.9165H12.401V8ZM25.5354 8H26.2102V25.9165H25.5354V8ZM29.9265 8H30.6012V25.9165H29.9265V8ZM34.1842 8H34.859V25.9165H34.1842V8ZM35.2816 8H35.9564V25.9165H35.2816V8ZM36.3805 8H37.0552V25.9165H36.3805V8ZM37.6154 8H38.2902V25.9165H37.6154V8ZM38.8503 8H39.5251V25.9165H38.8503V8ZM42.2829 8H42.9577V25.9165H42.2829V8ZM50.7942 8H51.469V25.9165H50.7942V8ZM59.6722 8H60.347V25.9165H59.6722V8ZM62.1006 8H62.7753V25.9165H62.1006V8ZM63.8555 8H64.5303V25.9165H63.8555V8ZM64.9357 8H65.6105V25.9165H64.9357V8ZM16.8565 8H17.5313V25.9165H16.8565V8ZM10.1045 8H11.3194V25.9165H10.1045V8ZM18.123 8H19.3379V25.9165H18.123V8ZM23.7532 8H24.9681V25.9165H23.7532V8ZM26.6357 8H27.8506V25.9165H26.6357V8ZM31.1657 8H32.3806V25.9165H31.1657V8ZM44.0809 8H45.9705V25.9165H44.0809V8ZM46.5493 8H48.035V25.9165H46.5493V8ZM49.1538 8H50.3687V25.9165H49.1538V8ZM52.5979 8H54.6236V25.9165H52.5979V8ZM56.5649 8H58.5906V25.9165H56.5649V8ZM13.7506 8H16.1803V25.9165H13.7506V8ZM20.0484 8H21.9381V25.9165H20.0484V8Z" fill="#010101"/>
<path d="M7.87402 41.8244V31.5696H11.7221C12.3651 31.5448 13.0064 31.6505 13.6074 31.8805C14.0681 32.0774 14.4565 32.4122 14.7192 32.8389C14.9794 33.2427 15.119 33.7124 15.1217 34.1928C15.1218 34.6307 14.9981 35.0598 14.765 35.4306C14.5025 35.8392 14.1287 36.1643 13.6877 36.3675C14.2538 36.5128 14.757 36.8393 15.1203 37.2973C15.4565 37.7441 15.6326 38.2911 15.6203 38.8502C15.6241 39.3143 15.5202 39.7728 15.3166 40.1898C15.1443 40.5637 14.8855 40.8913 14.5616 41.1453C14.2244 41.3869 13.8426 41.5593 13.4384 41.6525C12.8963 41.7769 12.3411 41.8346 11.7851 41.8244H7.87402ZM9.23216 35.879H11.4499C11.883 35.896 12.3165 35.856 12.7392 35.7601C13.0486 35.6816 13.3229 35.5021 13.5186 35.25C13.7008 34.9879 13.7928 34.6736 13.7808 34.3546C13.7871 34.0379 13.702 33.726 13.5358 33.4564C13.3771 33.2004 13.1306 33.0109 12.8424 32.9234C12.3311 32.8059 11.8064 32.7577 11.2823 32.7802H9.23216V35.879ZM9.23216 40.6153H11.7851C12.0939 40.6233 12.4029 40.6071 12.7092 40.5665C12.9862 40.5216 13.2521 40.4244 13.4928 40.28C13.7127 40.1379 13.8911 39.9402 14.01 39.707C14.1488 39.442 14.2187 39.1464 14.2134 38.8474C14.223 38.4906 14.1203 38.1398 13.9197 37.8445C13.7219 37.561 13.435 37.3517 13.1046 37.25C12.616 37.1179 12.1104 37.0599 11.6046 37.0781H9.23216V40.6153ZM17.603 36.8302C17.5172 35.3691 18.0097 33.9328 18.9741 32.8318C19.4285 32.3545 19.979 31.979 20.5892 31.7301C21.1995 31.4812 21.8555 31.3645 22.5141 31.3877C23.4136 31.3753 24.2992 31.6102 25.0742 32.0667C25.8277 32.5121 26.4324 33.1706 26.812 33.9592C27.2215 34.818 27.426 35.7601 27.4094 36.7113C27.4262 37.6785 27.2105 38.6356 26.7805 39.5021C26.3906 40.2908 25.768 40.9409 24.9969 41.3645C24.2346 41.7848 23.3774 42.0028 22.507 41.9977C21.5961 42.0128 20.6994 41.771 19.9196 41.3001C19.1693 40.8452 18.5682 40.1809 18.1904 39.3889C17.8012 38.5923 17.6003 37.7169 17.603 36.8302V36.8302ZM19.0027 36.8517C18.9444 37.9188 19.3041 38.9666 20.0056 39.7729C20.3219 40.1193 20.7089 40.3939 21.1404 40.578C21.5719 40.7622 22.0379 40.8516 22.507 40.8402C22.9788 40.8522 23.4477 40.7619 23.8814 40.5757C24.3151 40.3895 24.7035 40.1117 25.0198 39.7614C25.7274 38.9058 26.0815 37.8122 26.0097 36.7042C26.0285 35.954 25.8864 35.2086 25.5928 34.518C25.3341 33.9224 24.903 33.418 24.3551 33.0696C23.8075 32.7255 23.1722 32.5469 22.5256 32.5552C22.0673 32.5483 21.6122 32.6322 21.1866 32.8021C20.761 32.972 20.3732 33.2246 20.0457 33.5452C19.6582 33.9975 19.3661 34.5233 19.1869 35.0913C19.0076 35.6592 18.945 36.2575 19.0027 36.8503V36.8517ZM29.6343 41.8244V31.5696H30.991V40.6138H36.0411V41.8244H29.6343ZM38.2158 41.8244V31.5696H45.6311V32.7802H39.5725V35.9205H45.2457V37.1239H39.5725V40.6138H45.8689V41.8244H38.2158ZM50.8831 41.8244V32.7802H47.5036V31.5696H55.6323V32.7802H52.2399V41.8244H50.8831ZM56.883 36.8302C56.798 35.3687 57.2915 33.9324 58.2569 32.8318C58.7114 32.3545 59.2619 31.979 59.8721 31.7301C60.4823 31.4812 61.1383 31.3645 61.797 31.3877C62.6964 31.3753 63.582 31.6102 64.3571 32.0667C65.1105 32.5121 65.7152 33.1706 66.0949 33.9592C66.5043 34.818 66.7088 35.7601 66.6923 36.7113C66.709 37.6785 66.4933 38.6356 66.0633 39.5021C65.6722 40.2922 65.0475 40.9429 64.274 41.366C63.5117 41.7862 62.6545 42.0042 61.7841 41.9992C60.8726 42.0141 59.9754 41.7718 59.1953 41.3001C58.4465 40.8445 57.847 40.1803 57.4704 39.3889C57.0812 38.5923 56.8802 37.7169 56.883 36.8302V36.8302ZM58.2827 36.8517C58.2244 37.9188 58.5841 38.9666 59.2856 39.7729C59.6019 40.1193 59.9889 40.3939 60.4204 40.578C60.8519 40.7622 61.3179 40.8516 61.7869 40.8402C62.2601 40.8536 62.7306 40.7642 63.1659 40.5782C63.6012 40.3922 63.991 40.114 64.3084 39.7628C65.016 38.9072 65.3701 37.8136 65.2983 36.7056C65.313 35.9545 65.1665 35.209 64.8685 34.5194C64.6098 33.9238 64.1787 33.4194 63.6307 33.071C63.0832 32.7269 62.4479 32.5483 61.8013 32.5567C61.343 32.5497 60.8879 32.6337 60.4623 32.8036C60.0366 32.9735 59.6489 33.226 59.3214 33.5466C58.9346 33.9989 58.6431 34.5247 58.4643 35.0924C58.2856 35.66 58.2234 36.258 58.2813 36.8503L58.2827 36.8517Z" fill="black"/>
</svg>
