<svg width="73" height="50" viewBox="0 0 73 50" fill="none" xmlns="http://www.w3.org/2000/svg">
<rect width="73" height="50" rx="6" fill="white"/>
<path d="M25.4115 32.1449C25.1732 31.7476 24.9607 31.3353 24.7753 30.9106C23.8156 28.7424 23.7441 26.2838 24.5763 24.0633C25.4794 21.5994 27.2054 19.7163 29.4365 18.7529C32.2405 17.5428 35.3392 17.7811 38.0278 19.3775C39.7344 20.3567 40.9434 21.8693 41.8622 24.0112C41.9776 24.2905 42.0808 24.5772 42.184 24.8276L25.4115 32.1449ZM31.0119 22.3869C29.0189 23.2433 27.9931 25.1143 28.208 27.3036L36.6403 23.6733C35.1913 21.9652 33.3025 21.4002 31.0119 22.3869ZM37.6903 30.2935V30.2981L37.5145 30.178C37.0095 30.9944 36.2264 31.659 35.236 32.0891C33.3509 32.9091 31.6043 32.6978 30.3479 31.5957L30.2317 31.7707L28.0927 34.9756C28.6248 35.3442 29.194 35.6562 29.7908 35.9065C32.154 36.8904 34.572 36.842 36.9518 35.8069C38.6742 35.0622 40.0264 33.92 40.9508 32.4754L37.6903 30.2935ZM48.0356 14.0037V31.8117L50.8153 32.9343L49.2343 36.6046L46.1653 35.3312C45.5499 35.0643 45.025 34.6245 44.6541 34.0652C44.3137 33.543 44.0617 32.8226 44.0617 31.8591V14L48.0356 14.0037ZM55.2068 27.3148C55.2066 26.5941 55.361 25.8819 55.6594 25.226C55.9578 24.5702 56.3934 23.9861 56.9366 23.5132L54.0973 20.3483C53.112 21.2212 52.3229 22.2933 51.7823 23.4939C51.2416 24.6946 50.9616 25.9964 50.9608 27.3134C50.96 28.6303 51.2384 29.9325 51.7777 31.1338C52.3169 32.335 53.1047 33.4081 54.0889 34.2821L56.9254 31.1173C56.3849 30.6443 55.9519 30.061 55.6554 29.4066C55.359 28.7521 55.206 28.0417 55.2068 27.3232V27.3148ZM60.2502 32.3674C59.7067 32.3665 59.1668 32.2779 58.6515 32.1049L57.2947 36.1382C58.5421 36.5558 59.8638 36.7041 61.1727 36.5732C62.4815 36.4423 63.7478 36.0353 64.888 35.3789C66.0283 34.7225 67.0166 33.8317 67.7878 32.7651C68.559 31.6986 69.0957 30.4806 69.3623 29.1914L65.1941 28.3387C64.9604 29.4778 64.3406 30.5012 63.4397 31.2355C62.5388 31.9698 61.412 32.37 60.2502 32.3683V32.3674ZM60.2623 18.011C59.2609 18.0105 58.2659 18.1704 57.3151 18.4848L58.659 22.5219C59.3367 22.2959 60.0547 22.2165 60.7654 22.289C61.476 22.3615 62.1632 22.5843 62.7815 22.9425C63.3997 23.3007 63.9349 23.7863 64.3516 24.3671C64.7683 24.9478 65.0571 25.6105 65.1987 26.3113L69.367 25.468C68.9406 23.3651 67.8015 21.4743 66.1424 20.1155C64.4832 18.7566 62.4061 18.0132 60.2623 18.011V18.011Z" fill="black"/>
<path d="M11.2071 20.004C11.9381 19.7658 12.7124 19.6821 13.4788 19.7584C14.2453 19.8348 14.9865 20.0695 15.6536 20.4471C16.3208 20.8247 16.8987 21.3365 17.3492 21.9489C17.7998 22.5614 18.1128 23.2604 18.2675 24L22 23.2544C21.7378 21.997 21.2063 20.8085 20.4406 19.7674C19.675 18.7262 18.6926 17.8562 17.5584 17.2146C16.4242 16.5731 15.164 16.1748 13.8611 16.0459C12.5581 15.917 11.2421 16.0605 10 16.4669L11.2071 20.004Z" fill="#FFCB05"/>
<path d="M6.76436 31L9 28.5297C8.48892 28.0876 8.07971 27.5444 7.79945 26.936C7.51919 26.3277 7.37426 25.6682 7.37426 25.001C7.37426 24.3338 7.51919 23.6742 7.79945 23.0659C8.07971 22.4576 8.48892 21.9144 9 21.4723L6.76436 19C5.89534 19.7518 5.19953 20.6754 4.72298 21.7097C4.24643 22.7441 4 23.8656 4 25C4 26.1344 4.24643 27.2559 4.72298 28.2903C5.19953 29.3246 5.89534 30.2482 6.76436 31Z" fill="#00A4E0"/>
<path d="M18.268 26C18.0163 27.2048 17.3481 28.2875 16.3765 29.0649C15.4049 29.8423 14.1894 30.2668 12.9355 30.2667C12.3482 30.2676 11.7648 30.174 11.2084 29.9896L10 33.5359C11.2417 33.9407 12.5567 34.0831 13.8585 33.9536C15.1603 33.8241 16.4194 33.4258 17.553 32.7847C18.6866 32.1437 19.6689 31.2745 20.4354 30.2343C21.2019 29.1941 21.7351 28.0065 22 26.7497L18.268 26Z" fill="#EF4123"/>
</svg>
