<svg width="73" height="50" viewBox="0 0 73 50" fill="none" xmlns="http://www.w3.org/2000/svg">
<rect x="0.5" y="0.5" width="72" height="49" rx="5.5" fill="white"/>
<path fill-rule="evenodd" clip-rule="evenodd" d="M36.0361 35.0612C33.5523 37.1405 30.3304 38.3957 26.8098 38.3957C18.9542 38.3957 12.5859 32.1463 12.5859 24.4373C12.5859 16.7284 18.9542 10.479 26.8098 10.479C30.3304 10.479 33.5523 11.7342 36.0361 13.8135C38.5199 11.7342 41.7417 10.479 45.2624 10.479C53.118 10.479 59.4862 16.7284 59.4862 24.4373C59.4862 32.1463 53.118 38.3957 45.2624 38.3957C41.7417 38.3957 38.5199 37.1405 36.0361 35.0612Z" fill="#ED0006"/>
<path fill-rule="evenodd" clip-rule="evenodd" d="M36.0361 35.0612C39.0944 32.501 41.0337 28.6914 41.0337 24.4373C41.0337 20.1833 39.0944 16.3737 36.0361 13.8135C38.5199 11.7342 41.7418 10.479 45.2624 10.479C53.118 10.479 59.4863 16.7284 59.4863 24.4373C59.4863 32.1463 53.118 38.3957 45.2624 38.3957C41.7418 38.3957 38.5199 37.1405 36.0361 35.0612Z" fill="#F9A000"/>
<path fill-rule="evenodd" clip-rule="evenodd" d="M36.0366 35.0611C39.0949 32.5009 41.0341 28.6914 41.0341 24.4373C41.0341 20.1833 39.0949 16.3737 36.0366 13.8135C32.9783 16.3737 31.0391 20.1833 31.0391 24.4373C31.0391 28.6914 32.9783 32.5009 36.0366 35.0611Z" fill="#FF5E00"/>
<rect x="0.5" y="0.5" width="72" height="49" rx="5.5" stroke="#F9F7F6"/>
</svg>
