<svg width="73" height="50" viewBox="0 0 73 50" fill="none" xmlns="http://www.w3.org/2000/svg">
<rect width="73" height="50" rx="6" fill="white"/>
<g clip-path="url(#clip0_244_7889)">
<path d="M30.7148 36.2776V21.3654C30.7148 20.0479 31.23 18.7844 32.1471 17.8529C33.0642 16.9213 34.308 16.3979 35.6049 16.3979L39.9388 16.4041C41.2324 16.4067 42.472 16.9306 43.3857 17.8608C44.2994 18.7909 44.8125 20.0513 44.8123 21.3654V24.5388C44.8123 25.8563 44.2971 27.1198 43.38 28.0515C42.463 28.9832 41.2192 29.5068 39.9222 29.507H33.7966" stroke="#939598" stroke-width="3" stroke-linecap="round" stroke-linejoin="round"/>
<path d="M46.0244 16.397H47.9046C48.4369 16.397 48.9474 16.6118 49.3238 16.9941C49.7002 17.3765 49.9117 17.8951 49.9117 18.4358V29.5743" stroke="#939598" stroke-width="3" stroke-linecap="round" stroke-linejoin="round"/>
<path d="M49.5081 14.6715L48.6557 13.8048C48.6054 13.7538 48.5655 13.6931 48.5383 13.6264C48.5111 13.5597 48.4971 13.4882 48.4971 13.416C48.4971 13.3438 48.5111 13.2723 48.5383 13.2055C48.5655 13.1388 48.6054 13.0782 48.6557 13.0272L49.5081 12.1613C49.6099 12.058 49.7478 12 49.8916 12C50.0355 12 50.1734 12.058 50.2752 12.1613L51.1268 13.0272C51.1771 13.0782 51.217 13.1388 51.2442 13.2055C51.2714 13.2723 51.2855 13.3438 51.2855 13.416C51.2855 13.4882 51.2714 13.5597 51.2442 13.6264C51.217 13.6931 51.1771 13.7538 51.1268 13.8048L50.2714 14.6715C50.2211 14.7226 50.1613 14.7631 50.0956 14.7908C50.0299 14.8184 49.9594 14.8327 49.8882 14.8327C49.8171 14.8327 49.7466 14.8184 49.6809 14.7908C49.6152 14.7631 49.5554 14.7226 49.5051 14.6715" fill="#32BCAD"/>
<path d="M53.5205 16.3872H55.3848C56.3438 16.3868 57.2637 16.7734 57.9421 17.4619L62.3031 21.892C62.4374 22.0285 62.5969 22.1368 62.7724 22.2107C62.9479 22.2847 63.136 22.3227 63.326 22.3227C63.516 22.3227 63.7041 22.2847 63.8796 22.2107C64.0551 22.1368 64.2145 22.0285 64.3488 21.892L68.694 17.4788C69.0298 17.1378 69.4283 16.8674 69.867 16.683C70.3057 16.4986 70.7758 16.4038 71.2505 16.4041H72.7665" stroke="#939598" stroke-width="3" stroke-linecap="round" stroke-linejoin="round"/>
<path d="M53.1738 29.6799H55.0943C56.0822 29.6803 57.0298 29.2738 57.7287 28.55L62.2212 23.8922C62.5007 23.6026 62.8797 23.4399 63.2749 23.4399C63.67 23.4399 64.049 23.6026 64.3285 23.8922L68.8047 28.533C69.5034 29.2568 70.4507 29.6633 71.4383 29.663H72.9999" stroke="#939598" stroke-width="3" stroke-linecap="round" stroke-linejoin="round"/>
<path d="M19.5993 32.3062C19.1394 32.3079 18.6836 32.217 18.2584 32.0387C17.8333 31.8605 17.4471 31.5984 17.1222 31.2676L13.544 27.6305C13.4174 27.5076 13.2491 27.439 13.0739 27.439C12.8988 27.439 12.7305 27.5076 12.6039 27.6305L9.01362 31.2776C8.68893 31.6088 8.30285 31.8714 7.87766 32.0502C7.45248 32.229 6.99664 32.3205 6.53646 32.3193H5.83594L10.3701 36.9251C11.0501 37.6144 11.9716 38.0016 12.9323 38.0016C13.8929 38.0016 14.8144 37.6144 15.4944 36.9251L20.0376 32.3093L19.5993 32.3062Z" fill="#32BCAD"/>
<path d="M6.53722 19.4528C6.9974 19.4516 7.45326 19.543 7.87844 19.7218C8.30363 19.9006 8.68971 20.1632 9.01437 20.4945L12.6047 24.1423C12.7295 24.2687 12.8985 24.3397 13.0747 24.3397C13.2509 24.3397 13.4199 24.2687 13.5447 24.1423L17.1222 20.5083C17.4466 20.1766 17.8326 19.9137 18.2578 19.7347C18.6831 19.5558 19.1391 19.4644 19.5993 19.4659H20.0301L15.4869 14.8508C15.1504 14.5089 14.751 14.2377 14.3114 14.0527C13.8718 13.8677 13.4006 13.7725 12.9247 13.7725C12.4488 13.7725 11.9776 13.8677 11.538 14.0527C11.0984 14.2377 10.699 14.5089 10.3625 14.8508L5.83594 19.4528H6.53722Z" fill="#32BCAD"/>
<path d="M23.7884 23.2845L21.043 20.4957C20.981 20.5214 20.9149 20.5349 20.848 20.5356H19.5996C18.95 20.5372 18.3272 20.7993 17.8668 21.2649L14.2894 24.8966C13.9672 25.2232 13.5306 25.4067 13.0753 25.4067C12.6201 25.4067 12.1835 25.2232 11.8613 24.8966L8.27027 21.251C7.80996 20.7852 7.18721 20.5229 6.53747 20.521H5.00493C4.94177 20.5196 4.87936 20.5068 4.82054 20.4834L2.05774 23.2845C1.37915 23.9753 0.998047 24.9113 0.998047 25.8872C0.998047 26.8631 1.37915 27.7991 2.05774 28.4899L4.8145 31.2902C4.87318 31.2664 4.93568 31.2536 4.99889 31.2526H6.53747C7.1872 31.2507 7.80991 30.9883 8.27027 30.5226L11.8606 26.8755C12.5097 26.2169 13.641 26.2169 14.2894 26.8755L17.8668 30.5088C18.3272 30.9743 18.95 31.2364 19.5996 31.238H20.848C20.9149 31.2385 20.9811 31.2521 21.043 31.278L23.7884 28.4891C24.1249 28.1474 24.3919 27.7416 24.5741 27.2951C24.7562 26.8485 24.85 26.3698 24.85 25.8864C24.85 25.4031 24.7562 24.9244 24.5741 24.4778C24.3919 24.0312 24.1249 23.6255 23.7884 23.2838" fill="#32BCAD"/>
</g>
<defs>
<clipPath id="clip0_244_7889">
<rect width="72" height="26" fill="white" transform="translate(1 12)"/>
</clipPath>
</defs>
</svg>
