<svg width="70" height="49" viewBox="0 0 70 49" fill="none" xmlns="http://www.w3.org/2000/svg">
<rect x="0.5" y="0.5" width="69" height="48" rx="5.5" fill="white"/>
<path fill-rule="evenodd" clip-rule="evenodd" d="M21.8122 32.3774H17.633L14.4992 19.9929C14.3504 19.4232 14.0346 18.9195 13.57 18.6822C12.4106 18.0857 11.133 17.6109 9.73926 17.3715V16.8947H16.4716C17.4008 16.8947 18.0976 17.6109 18.2138 18.4427L19.8398 27.3761L24.0169 16.8947H28.08L21.8122 32.3774ZM30.4029 32.3774H26.456L29.706 16.8947H33.6529L30.4029 32.3774ZM38.7592 21.1838C38.8754 20.35 39.5722 19.8732 40.3853 19.8732C41.6629 19.7534 43.0546 19.9929 44.216 20.5873L44.9129 17.2538C43.7514 16.777 42.4738 16.5376 41.3144 16.5376C37.4837 16.5376 34.6962 18.6822 34.6962 21.6586C34.6962 23.9229 36.6707 25.1118 38.0644 25.828C39.5722 26.5422 40.153 27.019 40.0368 27.7332C40.0368 28.8044 38.8754 29.2812 37.716 29.2812C36.3222 29.2812 34.9285 28.9242 33.6529 28.3276L32.9561 31.6632C34.3498 32.2576 35.8576 32.4971 37.2514 32.4971C41.5467 32.6147 44.216 30.4722 44.216 27.2564C44.216 23.2066 38.7592 22.9693 38.7592 21.1838ZM58.0291 32.3774L54.8952 16.8947H51.5291C50.8322 16.8947 50.1353 17.3715 49.903 18.0857L44.0999 32.3774H48.1629L48.9739 30.1151H53.9661L54.4307 32.3774H58.0291ZM52.1098 21.0641L53.2692 26.8993H50.0192L52.1098 21.0641Z" fill="#172B85"/>
<rect x="0.5" y="0.5" width="69" height="48" rx="5.5" stroke="#F9F7F6"/>
</svg>
