<svg width="44" height="44" viewBox="0 0 44 44" fill="none" xmlns="http://www.w3.org/2000/svg">
<path d="M22 0C16.0233 0 15.2772 0.0275 12.9305 0.132C10.5875 0.242 8.9925 0.6105 7.59 1.155C6.1435 1.716 4.91517 2.4695 3.69233 3.69233C2.4695 4.91517 1.71417 6.14167 1.155 7.59C0.6105 8.9925 0.240167 10.5875 0.132 12.9305C0.022 15.2772 0 16.0233 0 22C0 27.9767 0.0275 28.7228 0.132 31.0695C0.242 33.4107 0.6105 35.0075 1.155 36.41C1.716 37.8547 2.4695 39.0848 3.69233 40.3077C4.91517 41.5287 6.14167 42.2858 7.59 42.845C8.99433 43.3877 10.5893 43.7598 12.9305 43.868C15.2772 43.978 16.0233 44 22 44C27.9767 44 28.7228 43.9725 31.0695 43.868C33.4107 43.758 35.0075 43.3877 36.41 42.845C37.8547 42.284 39.0848 41.5287 40.3077 40.3077C41.5287 39.0848 42.2858 37.8602 42.845 36.41C43.3877 35.0075 43.7598 33.4107 43.868 31.0695C43.978 28.7228 44 27.9767 44 22C44 16.0233 43.9725 15.2772 43.868 12.9305C43.758 10.5893 43.3877 8.99067 42.845 7.59C42.284 6.1435 41.5287 4.91517 40.3077 3.69233C39.0848 2.4695 37.8602 1.71417 36.41 1.155C35.0075 0.6105 33.4107 0.240167 31.0695 0.132C28.7228 0.022 27.9767 0 22 0ZM22 3.96C27.8722 3.96 28.5725 3.98933 30.8917 4.09017C33.0367 4.191 34.2008 4.54667 34.9745 4.851C36.0048 5.24883 36.7345 5.7255 37.5082 6.49367C38.2763 7.26367 38.753 7.99517 39.1508 9.0255C39.4515 9.79917 39.8108 10.9633 39.908 13.1083C40.0125 15.4293 40.0363 16.126 40.0363 22C40.0363 27.874 40.0088 28.5725 39.9007 30.8917C39.7888 33.0367 39.4313 34.2008 39.1288 34.9745C38.7182 36.0048 38.2507 36.7345 37.4807 37.5082C36.7125 38.2763 35.97 38.753 34.9507 39.1508C34.1807 39.4515 32.9982 39.8108 30.8532 39.908C28.5175 40.0125 27.83 40.0363 21.945 40.0363C16.0582 40.0363 15.3707 40.0088 13.0368 39.9007C10.89 39.7888 9.7075 39.4313 8.9375 39.1288C7.89433 38.7182 7.1775 38.2507 6.40933 37.4807C5.6375 36.7125 5.14433 35.97 4.75933 34.9507C4.45683 34.1807 4.10117 32.9982 3.98933 30.8532C3.90683 28.5432 3.8775 27.83 3.8775 21.9725C3.8775 16.1132 3.90683 15.3982 3.98933 13.0607C4.10117 10.9157 4.45683 9.735 4.75933 8.965C5.14433 7.92 5.6375 7.205 6.40933 6.43317C7.1775 5.665 7.89433 5.17 8.9375 4.78683C9.7075 4.4825 10.8643 4.125 13.0093 4.015C15.3468 3.9325 16.0343 3.905 21.9175 3.905L22 3.96ZM22 10.703C15.7575 10.703 10.703 15.763 10.703 22C10.703 28.2425 15.763 33.297 22 33.297C28.2425 33.297 33.297 28.237 33.297 22C33.297 15.7575 28.237 10.703 22 10.703ZM22 29.3333C17.9483 29.3333 14.6667 26.0517 14.6667 22C14.6667 17.9483 17.9483 14.6667 22 14.6667C26.0517 14.6667 29.3333 17.9483 29.3333 22C29.3333 26.0517 26.0517 29.3333 22 29.3333ZM36.3843 10.2575C36.3843 11.715 35.2 12.8975 33.7443 12.8975C32.2868 12.8975 31.1043 11.7132 31.1043 10.2575C31.1043 8.80183 32.2887 7.61933 33.7443 7.61933C35.1982 7.6175 36.3843 8.80183 36.3843 10.2575Z" fill="black"/>
</svg>
