<svg width="44" height="33" viewBox="0 0 44 33" fill="none" xmlns="http://www.w3.org/2000/svg">
<path d="M43.0797 5.15395C42.8311 4.15726 42.3409 3.24758 41.6581 2.51601C40.9754 1.78445 40.124 1.25666 39.1893 0.985522C35.7592 -2.61718e-07 22 0 22 0C22 0 8.24083 -2.61718e-07 4.80883 0.985522C3.87458 1.25714 3.02371 1.78512 2.34131 2.51663C1.65891 3.24815 1.16892 4.15758 0.920333 5.15395C0 8.83059 0 16.5 0 16.5C0 16.5 0 24.1695 0.920333 27.8461C1.16891 28.8428 1.65912 29.7525 2.34189 30.484C3.02464 31.2155 3.87599 31.7433 4.81067 32.0145C8.24083 33 22 33 22 33C22 33 35.7592 33 39.1912 32.0145C40.1259 31.7436 40.9773 31.2158 41.6602 30.4843C42.343 29.7526 42.833 28.8428 43.0815 27.8461C44 24.1695 44 16.5 44 16.5C44 16.5 44 8.83059 43.0797 5.15395ZM17.4992 23.463V9.53709L28.9997 16.5L17.4992 23.463Z" fill="black"/>
</svg>
