<svg width="41" height="41" viewBox="0 0 41 41" fill="none" xmlns="http://www.w3.org/2000/svg">
<path d="M37 31.3335H9.21257C8.19431 31.3335 7.3386 30.5684 7.22505 29.5565L4.50775 5.34134C4.45987 4.91469 4.27597 4.51477 3.98324 4.20071L1 1.00012" stroke="white" stroke-width="1.5" stroke-linecap="round"/>
<path d="M34.1558 26.6666H7.70093C7.36969 26.6666 7.09227 26.4158 7.05904 26.0862L5.01432 5.8086C5.00665 5.73261 5.06632 5.66663 5.1427 5.66663H40.1303C40.5632 5.66663 40.8733 6.08461 40.7477 6.49893L34.7732 26.2086C34.6907 26.4806 34.44 26.6666 34.1558 26.6666Z" fill="white"/>
<ellipse cx="13" cy="36.0001" rx="4" ry="4.66667" fill="white"/>
<ellipse cx="29" cy="36.0001" rx="4" ry="4.66667" fill="white"/>
</svg>
