<svg version="1.1" id="Layer_1" xmlns="http://www.w3.org/2000/svg" xmlns:xlink="http://www.w3.org/1999/xlink" x="0px" y="0px"
	 width="100%" viewBox="0 0 500 500" enable-background="new 0 0 500 500" xml:space="preserve">
<path fill="#000000" opacity="1.000000" stroke="none" 
	d="
M270.000000,501.000000 
	C180.000015,501.000000 90.500046,501.000000 1.000048,501.000000 
	C1.000032,334.333405 1.000032,167.666794 1.000016,1.000138 
	C167.666565,1.000092 334.333130,1.000092 500.999756,1.000046 
	C500.999847,167.666519 500.999847,334.333038 500.999939,500.999786 
	C424.166656,501.000000 347.333344,501.000000 270.000000,501.000000 
M315.805603,278.785492 
	C316.318207,277.460724 316.830780,276.135956 317.975983,274.995361 
	C318.859833,275.616089 319.743652,276.236847 320.679657,276.894226 
	C323.672516,269.382324 322.669037,267.528412 315.019318,265.973419 
	C306.430969,264.227692 299.028625,266.902954 294.794373,273.282776 
	C290.356781,279.968994 290.517883,289.819763 295.171143,296.319611 
	C299.586426,302.487030 307.302765,305.279877 315.634766,302.855499 
	C324.739594,300.206299 324.023712,298.797058 320.303223,292.224396 
	C312.751282,298.137665 305.359802,297.259857 302.726715,289.581696 
	C307.112427,284.879974 311.998840,287.370789 317.757080,289.274017 
	C316.924347,285.528046 316.273468,282.600037 315.805603,278.785492 
M334.794556,267.183228 
	C331.357269,266.651184 327.919983,266.119110 324.775177,265.632355 
	C324.775177,278.547943 324.775177,290.561127 324.775177,302.939606 
	C327.954132,302.939606 331.411072,302.939606 335.631805,302.984924 
	C336.141357,302.966370 336.650879,302.947815 338.052734,302.984161 
	C341.261169,302.984161 344.469604,302.984161 347.265320,302.984161 
	C347.265320,296.964386 347.265320,291.604523 347.265320,286.244690 
	C347.488922,286.165649 347.712555,286.086609 347.936157,286.007568 
	C349.881622,291.620087 351.827087,297.232605 353.753876,302.791260 
	C357.256714,302.791260 360.832764,302.791260 364.287262,302.791260 
	C362.124786,297.999054 360.026642,293.349396 357.948792,288.744720 
	C364.971313,284.005463 366.899475,280.006622 365.078522,274.296997 
	C363.357056,268.899261 358.610657,266.060760 351.175323,266.015747 
	C347.342499,265.992554 343.503784,265.903381 339.680847,266.099335 
	C338.865448,266.141144 338.106750,267.289490 336.456329,267.988464 
	C335.878387,268.009705 335.300476,268.030945 334.794556,267.183228 
M262.938843,303.003937 
	C266.031189,303.003937 269.123505,303.003937 271.363861,303.003937 
	C271.842773,297.834808 270.674316,291.759674 273.165253,289.055542 
	C275.448792,286.576630 281.681580,287.735687 286.410065,287.268494 
	C286.493164,285.921448 286.645020,283.459625 287.370941,280.584290 
	C287.628754,278.619476 287.886566,276.654663 288.896301,274.846283 
	C289.350800,272.962616 289.805298,271.078979 290.987213,269.177338 
	C295.275909,268.182617 296.989288,264.999451 296.732758,261.114349 
	C296.352081,255.348175 295.400635,249.613129 294.542694,243.887222 
	C293.906158,239.639053 291.513000,238.344254 287.364807,239.755173 
	C286.071320,240.195145 284.445862,239.659134 283.046234,238.695999 
	C284.084381,235.651520 284.879425,232.494766 286.220947,229.590393 
	C287.982300,225.777084 286.900940,223.054367 282.983643,221.925262 
	C281.162933,221.400467 279.326202,220.550415 277.812775,219.423401 
	C275.059814,217.373276 272.472351,216.559052 269.084503,218.109100 
	C267.474823,218.845566 265.226074,218.793930 263.428680,218.386032 
	C259.556183,217.507217 255.788391,216.166931 252.270447,214.354370 
	C257.492615,212.498993 262.754822,210.745285 267.908203,208.715347 
	C269.164307,208.220566 270.063110,206.818787 271.126160,205.834030 
	C269.811310,205.091385 268.119720,203.408401 267.243073,203.759613 
	C261.797852,205.941040 256.428894,208.380325 251.260773,211.155273 
	C248.943970,212.399261 248.921448,214.257736 251.779160,215.610977 
	C250.457581,215.431564 248.765671,215.712250 247.876053,214.996185 
	C243.020050,211.087448 241.288635,205.414261 239.502197,199.710327 
	C238.743393,197.287460 236.957397,195.186325 235.638214,192.938965 
	C234.995773,193.213028 234.353317,193.487091 233.710876,193.761139 
	C231.389908,199.392914 237.177322,203.202850 238.104111,208.021439 
	C236.585526,209.073898 235.319016,210.098251 233.919769,210.887177 
	C231.807281,212.078232 229.589630,213.081085 227.439941,214.208328 
	C225.255219,215.353928 222.545166,216.085220 221.061005,217.840134 
	C218.895981,220.400085 220.306396,223.132797 222.178238,225.961853 
	C221.220352,229.366440 219.139709,228.055649 217.182098,227.132416 
	C212.721054,225.028610 209.564285,226.264053 207.567062,230.754044 
	C206.222397,233.777100 204.649414,236.703049 203.396988,239.761856 
	C199.579987,249.084259 199.848145,250.046524 207.403625,256.823212 
	C207.615112,257.012909 207.650284,257.399200 207.776520,257.716064 
	C206.568954,260.425995 205.357437,263.144775 203.410889,265.990997 
	C202.649918,266.787262 201.236374,267.575256 201.226196,268.381012 
	C201.081940,279.806580 201.127975,291.234558 201.127975,302.730164 
	C204.369064,302.730164 207.579254,302.730164 210.818787,302.730164 
	C210.818787,297.326813 210.818787,292.251617 210.818787,287.176422 
	C211.140381,287.133057 211.461990,287.089722 211.783585,287.046356 
	C213.634811,292.282776 215.486023,297.519196 217.357468,302.812805 
	C220.736313,302.812805 224.315338,302.812805 227.730286,302.812805 
	C225.632584,298.019440 223.601486,293.378265 222.152451,290.067108 
	C224.951889,285.991638 227.036362,282.957031 229.836624,279.949188 
	C230.552246,279.966309 231.267853,279.983398 232.104141,280.826233 
	C230.423126,288.454071 231.212936,295.809967 234.069000,302.845825 
	C237.635635,302.845825 240.737579,302.845825 243.866241,302.845825 
	C242.634827,299.296173 241.450851,295.883301 240.178589,292.215942 
	C244.044037,292.215942 246.982376,292.215942 249.921997,292.215942 
	C249.921997,295.795074 249.921997,299.168945 249.921997,302.928375 
	C253.087219,302.928375 256.530487,302.928375 260.258698,303.399261 
	C260.842621,303.254547 261.426575,303.109833 262.938843,303.003937 
M168.171799,301.373413 
	C168.031372,291.730499 167.700287,282.084778 167.841995,272.446014 
	C167.900711,268.452148 166.210754,266.722412 162.650406,265.871338 
	C154.231735,263.858856 145.576218,268.572693 141.882278,277.462250 
	C138.363831,285.929535 139.653351,294.331085 142.326630,302.695007 
	C145.874908,302.695007 149.206833,302.695007 152.351227,302.695007 
	C151.061539,299.133026 149.853165,295.795624 148.574661,292.264526 
	C152.409241,292.264526 155.515305,292.264526 159.019104,292.264526 
	C158.794525,295.916840 158.586533,299.299225 158.334869,303.391785 
	C161.827118,302.931732 165.305588,302.473511 169.808212,301.990601 
	C173.429565,302.471527 177.050919,302.952454 180.414658,303.399170 
	C180.414658,296.925262 180.414658,291.360504 180.414658,285.795746 
	C180.642548,285.763611 180.870453,285.731476 181.098343,285.699341 
	C183.068741,291.427948 185.039139,297.156525 186.993057,302.837250 
	C190.580734,302.837250 194.165466,302.837250 197.522461,302.837250 
	C195.417999,298.074860 193.364578,293.428009 191.235931,288.610901 
	C196.694260,285.633789 200.014755,281.723785 198.706589,275.547821 
	C197.580765,270.232635 193.873260,266.886749 188.740555,266.338562 
	C182.733002,265.696930 176.604401,266.188507 171.095825,266.188507 
	C171.095825,277.464966 171.156235,288.271362 170.997437,299.074524 
	C170.982437,300.095154 169.590424,301.095520 168.171799,301.373413 
M368.041656,292.649231 
	C368.727905,296.021698 369.414154,299.394135 370.090637,302.718597 
	C373.875702,302.718597 377.213928,302.718597 380.406677,302.718597 
	C379.086884,299.166016 377.846252,295.826569 376.510284,292.230499 
	C380.335907,292.230499 383.440399,292.230499 387.018524,292.230499 
	C386.787201,295.862579 386.571899,299.242950 386.348083,302.757324 
	C389.598053,302.757324 393.013580,302.757324 395.749878,302.757324 
	C395.749878,292.413391 395.610016,282.315247 395.822510,272.224548 
	C395.901459,268.474884 394.252167,266.792389 390.919861,265.932861 
	C384.077881,264.168091 376.606995,267.073944 372.170227,273.283691 
	C368.169556,278.883118 367.429199,285.190460 368.041656,292.649231 
M130.266693,266.101044 
	C129.446960,265.961578 128.630463,265.798401 127.806999,265.686371 
	C119.046127,264.494049 111.767860,268.029907 108.160370,275.221863 
	C104.457329,282.604340 105.685860,292.254852 111.066818,298.052795 
	C116.235664,303.622223 125.917290,305.500214 133.174026,301.974152 
	C134.815872,301.176361 136.766373,299.226776 136.970734,297.605225 
	C137.504639,293.368652 137.150604,289.020172 137.150604,284.701599 
	C134.015442,284.701599 131.302017,284.701599 128.202438,284.701599 
	C128.202438,288.659332 128.202438,292.256439 128.202438,295.747467 
	C122.358986,297.053345 118.541939,295.406494 116.240303,290.846008 
	C113.698502,285.809692 114.563416,278.728973 118.517174,275.664368 
	C120.258774,274.314392 122.751762,273.000336 124.783272,273.163940 
	C128.346832,273.451019 131.817688,274.888885 135.462921,275.881653 
	C138.313110,269.313477 138.313110,269.313477 130.266693,266.101044 
z"/>
<path fill="#534012" opacity="1.000000" stroke="none" 
	d="
M251.977753,215.015503 
	C255.788391,216.166931 259.556183,217.507217 263.428680,218.386032 
	C265.226074,218.793930 267.474823,218.845566 269.084503,218.109100 
	C272.472351,216.559052 275.059814,217.373276 277.812775,219.423401 
	C279.326202,220.550415 281.162933,221.400467 282.983643,221.925262 
	C286.900940,223.054367 287.982300,225.777084 286.220947,229.590393 
	C284.879425,232.494766 284.084381,235.651520 282.794556,239.386322 
	C282.677795,242.667908 282.812714,245.259201 282.597809,247.921448 
	C281.774414,248.011978 281.300842,248.031525 280.783508,247.746140 
	C280.151794,246.966415 279.563812,246.491638 278.937836,245.605042 
	C279.231537,242.480667 279.563293,239.768097 279.895020,237.055527 
	C279.538605,237.013947 279.182190,236.972366 278.825775,236.930786 
	C278.285522,239.456680 277.745239,241.982574 277.204987,244.508453 
	C276.740082,244.422775 276.275208,244.337097 275.810303,244.251419 
	C276.087250,241.357956 276.684448,238.445465 276.514191,235.578568 
	C276.420563,234.002533 274.995544,231.155670 274.237854,231.177795 
	C266.662689,231.398895 259.101501,232.098007 251.045746,232.698944 
	C253.370865,237.282578 253.292389,237.603653 249.566925,240.736389 
	C247.155563,240.907593 245.188416,241.130615 243.215317,241.216431 
	C241.847351,241.275940 239.604263,241.653885 239.234299,241.021896 
	C235.951233,235.413635 232.772858,238.018097 229.351151,241.264297 
	C227.459503,238.581161 225.712967,236.103851 224.030563,233.717514 
	C222.188919,235.174500 221.013306,236.104553 219.880417,236.653259 
	C221.082062,233.233582 222.299713,230.215073 223.338364,227.136200 
	C223.499252,226.659302 222.840485,225.905899 222.560760,225.280380 
	C220.306396,223.132797 218.895981,220.400085 221.061005,217.840134 
	C222.545166,216.085220 225.255219,215.353928 227.439941,214.208328 
	C229.589630,213.081085 231.807281,212.078232 233.919769,210.887177 
	C235.319016,210.098251 236.585526,209.073898 238.104111,208.021439 
	C237.177322,203.202850 231.389908,199.392914 233.710876,193.761139 
	C234.353317,193.487091 234.995773,193.213028 235.638214,192.938965 
	C236.957397,195.186325 238.743393,197.287460 239.502197,199.710327 
	C241.288635,205.414261 243.020050,211.087448 247.876053,214.996185 
	C248.765671,215.712250 250.457581,215.431564 251.887695,215.306854 
	C251.996231,215.002731 251.977753,215.015503 251.977753,215.015503 
M244.365753,235.946136 
	C245.719788,235.779312 247.073822,235.612473 248.427856,235.445648 
	C248.365448,235.065979 248.303040,234.686310 248.240646,234.306641 
	C244.755463,234.306641 241.270294,234.306641 237.785110,234.306641 
	C237.739716,234.590469 237.694336,234.874298 237.648941,235.158127 
	C239.602371,235.421600 241.555801,235.685059 244.365753,235.946136 
M233.452499,230.135788 
	C234.041351,231.249435 234.630203,232.363068 235.654922,234.301025 
	C235.861847,231.932144 236.308701,230.446030 235.977127,229.160736 
	C235.797333,228.463806 234.291458,228.108994 233.383759,227.599854 
	C233.356125,228.223145 233.328476,228.846436 233.452499,230.135788 
M228.350983,225.967072 
	C228.614685,225.751511 228.878387,225.535934 229.142090,225.320374 
	C228.410751,225.318924 227.679398,225.317474 226.948059,225.316025 
	C227.221130,225.523224 227.494202,225.730423 228.350983,225.967072 
M231.237579,226.480362 
	C231.410980,226.499130 231.584396,226.517899 231.757797,226.536652 
	C231.679184,226.452942 231.600555,226.369247 231.237579,226.480362 
z"/>
<path fill="#878374" opacity="1.000000" stroke="none" 
	d="
M219.837692,237.034622 
	C221.013306,236.104553 222.188919,235.174500 224.030563,233.717514 
	C225.712967,236.103851 227.459503,238.581161 229.351151,241.264297 
	C232.772858,238.018097 235.951233,235.413635 239.234299,241.021896 
	C239.604263,241.653885 241.847351,241.275940 243.215317,241.216431 
	C245.188416,241.130615 247.155563,240.907593 249.564896,241.159271 
	C249.388260,243.604462 248.899200,245.682953 248.132660,247.653519 
	C245.481049,254.469986 242.732788,261.248871 240.009827,268.020813 
	C239.998291,267.999542 240.044846,268.012512 239.805206,268.151917 
	C239.403412,268.616302 239.241272,268.941315 238.936005,269.561646 
	C236.523056,273.238129 234.253250,276.619324 231.983459,280.000519 
	C231.267853,279.983398 230.552246,279.966309 229.435577,279.530273 
	C228.730637,270.877319 224.116043,266.241119 215.967255,266.007019 
	C213.307800,265.930603 210.647018,265.900391 207.942703,265.494263 
	C208.157471,262.983795 208.178040,260.764465 208.732117,258.687531 
	C209.527817,255.704971 210.712341,252.826141 211.801346,249.569031 
	C212.579147,247.824417 213.286484,246.413803 214.289062,244.969147 
	C214.699142,244.278122 214.813995,243.621109 215.003815,242.615051 
	C215.869522,240.512589 216.660263,238.759186 217.750443,237.003204 
	C218.645813,237.011948 219.241760,237.023285 219.837692,237.034622 
z"/>
<path fill="#DFA00C" opacity="1.000000" stroke="none" 
	d="
M207.986847,265.849060 
	C210.647018,265.900391 213.307800,265.930603 215.967255,266.007019 
	C224.116043,266.241119 228.730637,270.877319 229.077698,279.516907 
	C227.036362,282.957031 224.951889,285.991638 222.152451,290.067108 
	C223.601486,293.378265 225.632584,298.019440 227.730286,302.812805 
	C224.315338,302.812805 220.736313,302.812805 217.357468,302.812805 
	C215.486023,297.519196 213.634811,292.282776 211.783585,287.046356 
	C211.461990,287.089722 211.140381,287.133057 210.818787,287.176422 
	C210.818787,292.251617 210.818787,297.326813 210.818787,302.730164 
	C207.579254,302.730164 204.369064,302.730164 201.127975,302.730164 
	C201.127975,291.234558 201.081940,279.806580 201.226196,268.381012 
	C201.236374,267.575256 202.649918,266.787262 204.157501,265.982361 
	C205.931702,265.932190 206.959274,265.890625 207.986847,265.849060 
M213.278198,274.047668 
	C206.750412,274.845520 211.720718,279.284332 210.098022,282.114319 
	C212.604599,282.114319 214.500351,282.462341 216.178329,282.007294 
	C217.590485,281.624298 219.511627,280.498474 219.799957,279.348602 
	C220.072968,278.259888 218.750290,276.469025 217.688507,275.443298 
	C216.840881,274.624451 215.330383,274.491821 213.278198,274.047668 
z"/>
<path fill="#F7F7F7" opacity="1.000000" stroke="none" 
	d="
M368.019775,292.227386 
	C367.429199,285.190460 368.169556,278.883118 372.170227,273.283691 
	C376.606995,267.073944 384.077881,264.168091 390.919861,265.932861 
	C394.252167,266.792389 395.901459,268.474884 395.822510,272.224548 
	C395.610016,282.315247 395.749878,292.413391 395.749878,302.757324 
	C393.013580,302.757324 389.598053,302.757324 386.348083,302.757324 
	C386.571899,299.242950 386.787201,295.862579 387.018524,292.230499 
	C383.440399,292.230499 380.335907,292.230499 376.510284,292.230499 
	C377.846252,295.826569 379.086884,299.166016 380.406677,302.718597 
	C377.213928,302.718597 373.875702,302.718597 370.090637,302.718597 
	C369.414154,299.394135 368.727905,296.021698 368.019775,292.227386 
M386.955139,280.342682 
	C386.955139,278.215912 386.955139,276.089142 386.955139,273.944000 
	C380.704193,274.333649 378.019775,277.354523 377.327393,284.713989 
	C379.654877,284.713989 382.043488,285.086304 384.213867,284.559601 
	C385.327698,284.289276 386.051941,282.413574 386.955139,280.342682 
z"/>
<path fill="#F7F7F7" opacity="1.000000" stroke="none" 
	d="
M168.784058,302.015259 
	C165.305588,302.473511 161.827118,302.931732 158.334869,303.391785 
	C158.586533,299.299225 158.794525,295.916840 159.019104,292.264526 
	C155.515305,292.264526 152.409241,292.264526 148.574661,292.264526 
	C149.853165,295.795624 151.061539,299.133026 152.351227,302.695007 
	C149.206833,302.695007 145.874908,302.695007 142.326630,302.695007 
	C139.653351,294.331085 138.363831,285.929535 141.882278,277.462250 
	C145.576218,268.572693 154.231735,263.858856 162.650406,265.871338 
	C166.210754,266.722412 167.900711,268.452148 167.841995,272.446014 
	C167.700287,282.084778 168.031372,291.730499 168.547562,301.733032 
	C168.923325,302.092651 168.784058,302.015289 168.784058,302.015259 
M158.952225,281.256592 
	C158.952225,278.806488 158.952225,276.356384 158.952225,273.880035 
	C152.614883,274.426392 149.931778,277.492828 149.358337,284.713501 
	C151.693604,284.713501 154.051895,284.962860 156.310974,284.597931 
	C157.295212,284.438965 158.075851,283.019653 158.952225,281.256592 
z"/>
<path fill="#DC9E0B" opacity="1.000000" stroke="none" 
	d="
M169.296143,302.002930 
	C168.784058,302.015289 168.923325,302.092651 168.880524,302.098999 
	C169.590424,301.095520 170.982437,300.095154 170.997437,299.074524 
	C171.156235,288.271362 171.095825,277.464966 171.095825,266.188507 
	C176.604401,266.188507 182.733002,265.696930 188.740555,266.338562 
	C193.873260,266.886749 197.580765,270.232635 198.706589,275.547821 
	C200.014755,281.723785 196.694260,285.633789 191.235931,288.610901 
	C193.364578,293.428009 195.417999,298.074860 197.522461,302.837250 
	C194.165466,302.837250 190.580734,302.837250 186.993057,302.837250 
	C185.039139,297.156525 183.068741,291.427948 181.098343,285.699341 
	C180.870453,285.731476 180.642548,285.763611 180.414658,285.795746 
	C180.414658,291.360504 180.414658,296.925262 180.414658,303.399170 
	C177.050919,302.952454 173.429565,302.471527 169.296143,302.002930 
M182.450836,282.210480 
	C183.276840,282.192291 184.316467,282.487854 184.889282,282.097839 
	C186.698288,280.866058 189.401138,279.633698 189.808502,277.934204 
	C190.619690,274.550049 187.615189,273.633484 184.799957,273.360321 
	C183.376862,273.222290 181.929337,273.336212 179.314331,273.336212 
	C180.174530,276.757599 180.856964,279.471954 182.450836,282.210480 
z"/>
<path fill="#F7F7F7" opacity="1.000000" stroke="none" 
	d="
M337.321899,267.928040 
	C338.106750,267.289490 338.865448,266.141144 339.680847,266.099335 
	C343.503784,265.903381 347.342499,265.992554 351.175323,266.015747 
	C358.610657,266.060760 363.357056,268.899261 365.078522,274.296997 
	C366.899475,280.006622 364.971313,284.005463 357.948792,288.744720 
	C360.026642,293.349396 362.124786,297.999054 364.287262,302.791260 
	C360.832764,302.791260 357.256714,302.791260 353.753876,302.791260 
	C351.827087,297.232605 349.881622,291.620087 347.936157,286.007568 
	C347.712555,286.086609 347.488922,286.165649 347.265320,286.244690 
	C347.265320,291.604523 347.265320,296.964386 347.265320,302.984161 
	C344.469604,302.984161 341.261169,302.984161 337.638672,302.546448 
	C337.257050,290.715149 337.289459,279.321594 337.321899,267.928040 
M346.843079,275.856537 
	C346.843079,277.944305 346.843079,280.032074 346.843079,283.948700 
	C350.942261,281.986023 353.930573,280.795715 356.549042,279.050507 
	C356.956604,278.778870 355.855957,274.671509 355.144775,274.573547 
	C352.451630,274.202545 349.631683,274.751617 346.843079,275.856537 
z"/>
<path fill="#F9F9F9" opacity="1.000000" stroke="none" 
	d="
M232.043793,280.413391 
	C234.253250,276.619324 236.523056,273.238129 239.160431,269.407318 
	C239.700272,268.642609 239.872543,268.327545 240.044830,268.012512 
	C240.044846,268.012512 239.998291,267.999542 240.326828,267.981812 
	C241.103516,267.631287 241.551682,267.298492 242.389923,266.957520 
	C245.588562,266.363647 248.397125,265.777954 251.471588,265.322693 
	C252.127563,265.400879 252.517624,265.348663 253.195312,265.507324 
	C257.829163,266.407745 259.539154,268.818085 259.148254,273.293854 
	C258.806122,277.211914 259.166168,281.191284 259.148193,285.596771 
	C259.378174,291.676086 259.675934,297.302246 259.973724,302.928375 
	C256.530487,302.928375 253.087219,302.928375 249.921997,302.928375 
	C249.921997,299.168945 249.921997,295.795074 249.921997,292.215942 
	C246.982376,292.215942 244.044037,292.215942 240.178589,292.215942 
	C241.450851,295.883301 242.634827,299.296173 243.866241,302.845825 
	C240.737579,302.845825 237.635635,302.845825 234.069000,302.845825 
	C231.212936,295.809967 230.423126,288.454071 232.043793,280.413391 
M242.434845,284.677368 
	C244.902863,284.677368 247.370895,284.677368 249.918427,284.677368 
	C249.918427,280.764191 249.918427,277.249817 249.918427,273.648254 
	C243.295456,275.179810 240.204086,279.486633 242.434845,284.677368 
z"/>
<path fill="#F5F5F5" opacity="1.000000" stroke="none" 
	d="
M130.656662,266.178284 
	C138.313110,269.313477 138.313110,269.313477 135.462921,275.881653 
	C131.817688,274.888885 128.346832,273.451019 124.783272,273.163940 
	C122.751762,273.000336 120.258774,274.314392 118.517174,275.664368 
	C114.563416,278.728973 113.698502,285.809692 116.240303,290.846008 
	C118.541939,295.406494 122.358986,297.053345 128.202438,295.747467 
	C128.202438,292.256439 128.202438,288.659332 128.202438,284.701599 
	C131.302017,284.701599 134.015442,284.701599 137.150604,284.701599 
	C137.150604,289.020172 137.504639,293.368652 136.970734,297.605225 
	C136.766373,299.226776 134.815872,301.176361 133.174026,301.974152 
	C125.917290,305.500214 116.235664,303.622223 111.066818,298.052795 
	C105.685860,292.254852 104.457329,282.604340 108.160370,275.221863 
	C111.767860,268.029907 119.046127,264.494049 127.806999,265.686371 
	C128.630463,265.798401 129.446960,265.961578 130.656662,266.178284 
z"/>
<path fill="#F7F7F7" opacity="1.000000" stroke="none" 
	d="
M302.199188,290.074402 
	C305.359802,297.259857 312.751282,298.137665 320.303223,292.224396 
	C324.023712,298.797058 324.739594,300.206299 315.634766,302.855499 
	C307.302765,305.279877 299.586426,302.487030 295.171143,296.319611 
	C290.517883,289.819763 290.356781,279.968994 294.794373,273.282776 
	C299.028625,266.902954 306.430969,264.227692 315.019318,265.973419 
	C322.669037,267.528412 323.672516,269.382324 320.679657,276.894226 
	C319.743652,276.236847 318.859833,275.616089 317.413574,274.595245 
	C312.298553,272.116669 307.803406,272.130005 303.994995,275.540558 
	C300.243988,278.899658 299.408417,283.289764 301.028656,288.403931 
	C301.438782,289.167511 301.819000,289.620941 302.199188,290.074402 
z"/>
<path fill="#F9F9F9" opacity="1.000000" stroke="none" 
	d="
M286.796906,280.997772 
	C286.645020,283.459625 286.493164,285.921448 286.410065,287.268494 
	C281.681580,287.735687 275.448792,286.576630 273.165253,289.055542 
	C270.674316,291.759674 271.842773,297.834808 271.363861,303.003937 
	C269.123505,303.003937 266.031189,303.003937 262.486938,302.569214 
	C262.112854,296.546692 262.190674,290.958893 262.476196,284.918732 
	C262.683868,278.498383 262.683868,272.530396 262.683868,265.782257 
	C270.249695,265.782257 278.199188,265.782257 286.471954,265.807983 
	C287.424683,265.686707 288.054169,265.539734 288.947266,265.721497 
	C289.560547,267.098572 289.910156,268.146942 290.259766,269.195312 
	C289.805298,271.078979 289.350800,272.962616 288.277527,274.462463 
	C285.185120,273.823212 282.713745,273.376312 280.237427,273.346710 
	C271.135925,273.237762 271.131378,273.290009 271.465393,282.379791 
	C271.472717,282.579224 271.863647,282.764587 272.076050,282.956055 
	C278.103851,278.097076 281.729706,277.614838 286.796906,280.997772 
z"/>
<path fill="#F7F7F7" opacity="1.000000" stroke="none" 
	d="
M334.868011,302.939606 
	C331.411072,302.939606 327.954132,302.939606 324.775177,302.939606 
	C324.775177,290.561127 324.775177,278.547943 324.775177,265.632355 
	C327.919983,266.119110 331.357269,266.651184 334.519897,267.956848 
	C334.452820,280.133545 334.660431,291.536560 334.868011,302.939606 
z"/>
<path fill="#838382" opacity="1.000000" stroke="none" 
	d="
M207.942703,265.494263 
	C206.959274,265.890625 205.931702,265.932190 204.525024,265.918671 
	C205.357437,263.144775 206.568954,260.425995 207.776520,257.716064 
	C207.650284,257.399200 207.615112,257.012909 207.403625,256.823212 
	C199.848145,250.046524 199.579987,249.084259 203.396988,239.761856 
	C204.649414,236.703049 206.222397,233.777100 207.567062,230.754044 
	C209.564285,226.264053 212.721054,225.028610 217.182098,227.132416 
	C219.139709,228.055649 221.220352,229.366440 222.369507,225.621124 
	C222.840485,225.905899 223.499252,226.659302 223.338364,227.136200 
	C222.299713,230.215073 221.082062,233.233582 219.880417,236.653259 
	C219.241760,237.023285 218.645813,237.011948 217.691788,236.608612 
	C215.467331,235.649490 212.208496,234.231033 211.953079,234.648788 
	C209.746948,238.257294 207.665649,242.074112 206.480560,246.103378 
	C206.064743,247.517044 208.246017,249.694580 209.241394,251.523315 
	C210.071228,250.983231 210.901062,250.443130 211.730881,249.903030 
	C210.712341,252.826141 209.527817,255.704971 208.732117,258.687531 
	C208.178040,260.764465 208.157471,262.983795 207.942703,265.494263 
z"/>
<path fill="#807E79" opacity="1.000000" stroke="none" 
	d="
M290.623474,269.186340 
	C289.910156,268.146942 289.560547,267.098572 289.035553,265.382690 
	C291.729218,262.669495 292.768036,259.941040 292.101135,256.469482 
	C291.763336,254.710938 291.872437,252.848694 291.397308,251.139542 
	C290.945007,249.512344 289.995483,248.023346 289.264526,246.473602 
	C287.335358,247.439178 283.854065,246.048553 283.666870,249.807159 
	C283.273285,249.020416 283.110474,248.435455 282.947632,247.850479 
	C282.812714,245.259201 282.677795,242.667908 282.757629,239.823273 
	C284.445862,239.659134 286.071320,240.195145 287.364807,239.755173 
	C291.513000,238.344254 293.906158,239.639053 294.542694,243.887222 
	C295.400635,249.613129 296.352081,255.348175 296.732758,261.114349 
	C296.989288,264.999451 295.275909,268.182617 290.623474,269.186340 
z"/>
<path fill="#191919" opacity="1.000000" stroke="none" 
	d="
M335.249908,302.962280 
	C334.660431,291.536560 334.452820,280.133545 334.483887,268.391357 
	C335.300476,268.030945 335.878387,268.009705 336.889099,267.958252 
	C337.289459,279.321594 337.257050,290.715149 337.192505,302.518982 
	C336.650879,302.947815 336.141357,302.966370 335.249908,302.962280 
z"/>
<path fill="#F5F5F5" opacity="1.000000" stroke="none" 
	d="
M302.462952,289.828064 
	C301.819000,289.620941 301.438782,289.167511 301.168823,288.075439 
	C304.245392,279.618225 307.566101,277.820557 315.622589,279.672028 
	C316.273468,282.600037 316.924347,285.528046 317.757080,289.274017 
	C311.998840,287.370789 307.112427,284.879974 302.462952,289.828064 
z"/>
<path fill="#888477" opacity="1.000000" stroke="none" 
	d="
M287.083923,280.791016 
	C281.729706,277.614838 278.103851,278.097076 272.076050,282.956055 
	C271.863647,282.764587 271.472717,282.579224 271.465393,282.379791 
	C271.131378,273.290009 271.135925,273.237762 280.237427,273.346710 
	C282.713745,273.376312 285.185120,273.823212 287.901550,274.384247 
	C287.886566,276.654663 287.628754,278.619476 287.083923,280.791016 
z"/>
<path fill="#534012" opacity="1.000000" stroke="none" 
	d="
M252.004471,214.996429 
	C248.921448,214.257736 248.943970,212.399261 251.260773,211.155273 
	C256.428894,208.380325 261.797852,205.941040 267.243073,203.759613 
	C268.119720,203.408401 269.811310,205.091385 271.126160,205.834045 
	C270.063110,206.818787 269.164307,208.220566 267.908203,208.715347 
	C262.754822,210.745285 257.492615,212.498993 252.124100,214.684937 
	C251.977753,215.015503 251.996231,215.002731 252.004471,214.996429 
z"/>
<path fill="#191919" opacity="1.000000" stroke="none" 
	d="
M315.714111,279.228760 
	C307.566101,277.820557 304.245392,279.618225 301.138885,287.765320 
	C299.408417,283.289764 300.243988,278.899658 303.994995,275.540558 
	C307.803406,272.130005 312.298553,272.116669 317.097260,274.503174 
	C316.830780,276.135956 316.318207,277.460724 315.714111,279.228760 
z"/>
<path fill="#191919" opacity="1.000000" stroke="none" 
	d="
M262.268494,285.371094 
	C262.190674,290.958893 262.112854,296.546692 262.022766,302.549805 
	C261.426575,303.109833 260.842621,303.254547 260.116211,303.163818 
	C259.675934,297.302246 259.378174,291.676086 259.455322,285.618469 
	C260.643036,285.248352 261.455750,285.309723 262.268494,285.371094 
z"/>
<path fill="#888477" opacity="1.000000" stroke="none" 
	d="
M262.476196,284.918732 
	C261.455750,285.309723 260.643036,285.248352 259.523132,285.165283 
	C259.166168,281.191284 258.806122,277.211914 259.148254,273.293854 
	C259.539154,268.818085 257.829163,266.407745 253.220978,265.061768 
	C252.333786,261.608673 251.708572,258.812012 250.999863,255.619720 
	C250.932693,254.150696 250.949020,253.077301 251.217773,251.814575 
	C254.398972,247.505844 257.718292,246.413559 260.989471,248.571320 
	C260.989471,247.694534 260.989471,246.870102 261.365479,246.035400 
	C265.521027,242.425690 269.021942,242.223633 272.172638,246.842255 
	C272.300690,247.029968 272.787689,246.972824 273.437256,247.060425 
	C275.041595,247.412750 276.316193,247.734421 277.967896,248.055008 
	C278.593597,248.044388 278.842224,248.034866 279.380829,248.021835 
	C280.056274,248.029266 280.441772,248.040192 280.827271,248.051086 
	C281.300842,248.031525 281.774414,248.011978 282.597839,247.921448 
	C283.110474,248.435455 283.273285,249.020416 283.864441,250.169128 
	C284.911438,255.749344 285.530090,260.765808 286.148712,265.782257 
	C278.199188,265.782257 270.249695,265.782257 262.683868,265.782257 
	C262.683868,272.530396 262.683868,278.498383 262.476196,284.918732 
z"/>
<path fill="#807E79" opacity="1.000000" stroke="none" 
	d="
M260.989471,246.045670 
	C260.989471,246.870102 260.989471,247.694534 260.989471,248.571320 
	C257.718292,246.413559 254.398972,247.505844 251.095520,251.518845 
	C250.393509,250.741547 250.066208,250.070633 249.485764,248.880890 
	C246.813812,255.335938 244.406830,261.150818 241.999847,266.965698 
	C241.551682,267.298492 241.103516,267.631287 240.338348,268.003052 
	C242.732788,261.248871 245.481049,254.469986 248.132660,247.653519 
	C248.899200,245.682953 249.388260,243.604462 250.006577,241.152588 
	C253.292389,237.603653 253.370865,237.282578 251.045746,232.698944 
	C259.101501,232.098007 266.662689,231.398895 274.237854,231.177795 
	C274.995544,231.155670 276.420563,234.002533 276.514191,235.578568 
	C276.684448,238.445465 276.087250,241.357956 275.810303,244.251419 
	C276.275208,244.337097 276.740082,244.422775 277.204987,244.508453 
	C277.745239,241.982574 278.285522,239.456680 278.825775,236.930786 
	C279.182190,236.972366 279.538605,237.013947 279.895020,237.055527 
	C279.563293,239.768097 279.231537,242.480667 278.949768,245.595032 
	C278.999695,245.996826 279.018921,245.972153 278.688690,246.073929 
	C278.102570,246.802505 277.846649,247.429291 277.590759,248.056091 
	C276.316193,247.734421 275.041595,247.412750 273.478271,246.656616 
	C273.746185,243.464172 274.320068,240.709534 274.855469,237.947433 
	C275.604309,234.084625 273.817810,232.823410 270.149750,233.184052 
	C265.561066,233.635178 260.953094,233.889923 256.008179,234.254944 
	C254.580902,237.876144 253.034500,241.799530 251.488098,245.722931 
	C251.931931,246.009064 252.375748,246.295181 252.819580,246.581314 
	C255.504532,244.153076 258.192139,241.880356 260.989471,246.045670 
z"/>
<path fill="#807E79" opacity="1.000000" stroke="none" 
	d="
M243.937500,235.947327 
	C241.555801,235.685059 239.602371,235.421600 237.648941,235.158127 
	C237.694336,234.874298 237.739716,234.590469 237.785110,234.306641 
	C241.270294,234.306641 244.755463,234.306641 248.240646,234.306641 
	C248.303040,234.686310 248.365448,235.065979 248.427856,235.445648 
	C247.073822,235.612473 245.719788,235.779312 243.937500,235.947327 
z"/>
<path fill="#807E79" opacity="1.000000" stroke="none" 
	d="
M233.376678,229.802765 
	C233.328476,228.846436 233.356125,228.223145 233.383759,227.599854 
	C234.291458,228.108994 235.797333,228.463806 235.977127,229.160736 
	C236.308701,230.446030 235.861847,231.932144 235.654922,234.301025 
	C234.630203,232.363068 234.041351,231.249435 233.376678,229.802765 
z"/>
<path fill="#807E79" opacity="1.000000" stroke="none" 
	d="
M228.059128,225.952362 
	C227.494202,225.730423 227.221130,225.523224 226.948059,225.316025 
	C227.679398,225.317474 228.410751,225.318924 229.142090,225.320374 
	C228.878387,225.535934 228.614685,225.751511 228.059128,225.952362 
z"/>
<path fill="#807E79" opacity="1.000000" stroke="none" 
	d="
M280.783508,247.746155 
	C280.441772,248.040192 280.056274,248.029266 279.396545,247.679016 
	C279.087860,246.883850 279.053406,246.428009 279.018921,245.972153 
	C279.018921,245.972153 278.999695,245.996826 278.987793,246.006836 
	C279.563812,246.491638 280.151794,246.966415 280.783508,247.746155 
z"/>
<path fill="#807E79" opacity="1.000000" stroke="none" 
	d="
M231.379761,226.382950 
	C231.600555,226.369247 231.679184,226.452942 231.757797,226.536652 
	C231.584396,226.517899 231.410980,226.499130 231.379761,226.382950 
z"/>
<path fill="#0D0D0D" opacity="1.000000" stroke="none" 
	d="
M211.801346,249.569031 
	C210.901062,250.443130 210.071228,250.983231 209.241394,251.523315 
	C208.246017,249.694580 206.064743,247.517044 206.480560,246.103378 
	C207.665649,242.074112 209.746948,238.257294 211.953079,234.648788 
	C212.208496,234.231033 215.467331,235.649490 217.392349,236.611206 
	C216.660263,238.759186 215.869522,240.512589 214.771576,242.796234 
	C214.307541,243.885345 214.150681,244.444260 213.993805,245.003174 
	C213.286484,246.413803 212.579147,247.824417 211.801346,249.569031 
z"/>
<path fill="#838382" opacity="1.000000" stroke="none" 
	d="
M214.289062,244.969147 
	C214.150681,244.444260 214.307541,243.885345 214.696625,243.145264 
	C214.813995,243.621109 214.699142,244.278122 214.289062,244.969147 
z"/>
<path fill="#807E79" opacity="1.000000" stroke="none" 
	d="
M239.805191,268.151917 
	C239.872543,268.327545 239.700272,268.642609 239.303558,269.112000 
	C239.241272,268.941315 239.403412,268.616302 239.805191,268.151917 
z"/>
<path fill="#0D0D0D" opacity="1.000000" stroke="none" 
	d="
M213.696152,274.051147 
	C215.330383,274.491821 216.840881,274.624451 217.688507,275.443298 
	C218.750290,276.469025 220.072968,278.259888 219.799957,279.348602 
	C219.511627,280.498474 217.590485,281.624298 216.178329,282.007294 
	C214.500351,282.462341 212.604599,282.114319 210.098022,282.114319 
	C211.720718,279.284332 206.750412,274.845520 213.696152,274.051147 
z"/>
<path fill="#191919" opacity="1.000000" stroke="none" 
	d="
M386.953674,280.803040 
	C386.051941,282.413574 385.327698,284.289276 384.213867,284.559601 
	C382.043488,285.086304 379.654877,284.713989 377.327393,284.713989 
	C378.019775,277.354523 380.704193,274.333649 386.955139,273.944000 
	C386.955139,276.089142 386.955139,278.215912 386.953674,280.803040 
z"/>
<path fill="#191919" opacity="1.000000" stroke="none" 
	d="
M158.950592,281.714661 
	C158.075851,283.019653 157.295212,284.438965 156.310974,284.597931 
	C154.051895,284.962860 151.693604,284.713501 149.358337,284.713501 
	C149.931778,277.492828 152.614883,274.426392 158.952225,273.880035 
	C158.952225,276.356384 158.952225,278.806488 158.950592,281.714661 
z"/>
<path fill="#0D0D0D" opacity="1.000000" stroke="none" 
	d="
M181.995117,282.198364 
	C180.856964,279.471954 180.174530,276.757599 179.314331,273.336212 
	C181.929337,273.336212 183.376862,273.222290 184.799957,273.360321 
	C187.615189,273.633484 190.619690,274.550049 189.808502,277.934204 
	C189.401138,279.633698 186.698288,280.866058 184.889282,282.097839 
	C184.316467,282.487854 183.276840,282.192291 181.995117,282.198364 
z"/>
<path fill="#0D0D0D" opacity="1.000000" stroke="none" 
	d="
M346.851135,275.406494 
	C349.631683,274.751617 352.451630,274.202545 355.144775,274.573547 
	C355.855957,274.671509 356.956604,278.778870 356.549042,279.050507 
	C353.930573,280.795715 350.942261,281.986023 346.843079,283.948700 
	C346.843079,280.032074 346.843079,277.944305 346.851135,275.406494 
z"/>
<path fill="#0D0D0D" opacity="1.000000" stroke="none" 
	d="
M242.054321,284.662903 
	C240.204086,279.486633 243.295456,275.179810 249.918427,273.648254 
	C249.918427,277.249817 249.918427,280.764191 249.918427,284.677368 
	C247.370895,284.677368 244.902863,284.677368 242.054321,284.662903 
z"/>
<path fill="#0D0D0D" opacity="1.000000" stroke="none" 
	d="
M242.389938,266.957520 
	C244.406830,261.150818 246.813812,255.335938 249.485764,248.880890 
	C250.066208,250.070633 250.393509,250.741547 250.843079,251.708191 
	C250.949020,253.077301 250.932693,254.150696 250.941833,256.072083 
	C251.046768,259.677460 251.126221,262.434875 251.205673,265.192261 
	C248.397125,265.777954 245.588562,266.363647 242.389938,266.957520 
z"/>
<path fill="#807E79" opacity="1.000000" stroke="none" 
	d="
M251.471588,265.322693 
	C251.126221,262.434875 251.046768,259.677460 251.025330,256.467712 
	C251.708572,258.812012 252.333786,261.608673 252.933350,264.850891 
	C252.517624,265.348663 252.127563,265.400879 251.471588,265.322693 
z"/>
<path fill="#0D0D0D" opacity="1.000000" stroke="none" 
	d="
M286.471954,265.807983 
	C285.530090,260.765808 284.911438,255.749344 284.095215,250.370911 
	C283.854065,246.048553 287.335358,247.439178 289.264526,246.473602 
	C289.995483,248.023346 290.945007,249.512344 291.397308,251.139542 
	C291.872437,252.848694 291.763336,254.710938 292.101135,256.469482 
	C292.768036,259.941040 291.729218,262.669495 288.771912,265.053955 
	C288.054169,265.539734 287.424683,265.686707 286.471954,265.807983 
z"/>
<path fill="#534012" opacity="1.000000" stroke="none" 
	d="
M261.365479,246.035400 
	C258.192139,241.880356 255.504532,244.153076 252.819580,246.581314 
	C252.375748,246.295181 251.931931,246.009064 251.488098,245.722931 
	C253.034500,241.799530 254.580902,237.876144 256.008179,234.254944 
	C260.953094,233.889923 265.561066,233.635178 270.149750,233.184052 
	C273.817810,232.823410 275.604309,234.084625 274.855469,237.947433 
	C274.320068,240.709534 273.746185,243.464172 273.148468,246.625946 
	C272.787689,246.972824 272.300690,247.029968 272.172638,246.842255 
	C269.021942,242.223633 265.521027,242.425690 261.365479,246.035400 
z"/>
<path fill="#534012" opacity="1.000000" stroke="none" 
	d="
M278.688690,246.073929 
	C279.053406,246.428009 279.087860,246.883850 279.106598,247.682526 
	C278.842224,248.034866 278.593597,248.044388 277.967896,248.055008 
	C277.846649,247.429291 278.102570,246.802505 278.688690,246.073929 
z"/>
</svg>