<svg width="267" height="47" viewBox="0 0 267 47" fill="none" xmlns="http://www.w3.org/2000/svg">
<path d="M13.25 46.625C10.9375 46.625 8.85417 46.0521 7 44.9062C5.125 43.7604 3.61458 42.2188 2.46875 40.2812C1.34375 38.3438 0.78125 36.1771 0.78125 33.7812V13.5C0.78125 11.1667 1.35417 9.04167 2.5 7.125C3.625 5.1875 5.13542 3.64583 7.03125 2.5C8.92708 1.33333 11 0.75 13.25 0.75C15.6042 0.75 17.7292 1.3125 19.625 2.4375C21.5208 3.58333 23.0208 5.11458 24.125 7.03125C25.25 8.94792 25.8125 11.1042 25.8125 13.5V16.4375C25.8125 16.6042 25.7083 16.6875 25.5 16.6875H18.3125C18.1458 16.6875 18.0625 16.6042 18.0625 16.4375V14C18.0625 12.375 17.6042 11.0312 16.6875 9.96875C15.7708 8.90625 14.625 8.375 13.25 8.375C12.0208 8.375 10.9271 8.88542 9.96875 9.90625C9.01042 10.9271 8.53125 12.125 8.53125 13.5V33.7812C8.53125 35.1771 9 36.3854 9.9375 37.4062C10.875 38.4062 11.9792 38.9062 13.25 38.9062C14.625 38.9062 15.7708 38.4167 16.6875 37.4375C17.6042 36.4375 18.0625 35.2188 18.0625 33.7812V30.625H13.5938C13.3646 30.625 13.25 30.5208 13.25 30.3125V23.1562C13.25 22.9479 13.3646 22.8438 13.5938 22.8438H25.5625C25.7292 22.8438 25.8125 22.9479 25.8125 23.1562V33.7812C25.8125 36.1771 25.25 38.3438 24.125 40.2812C22.9792 42.2188 21.4688 43.7604 19.5938 44.9062C17.7188 46.0521 15.6042 46.625 13.25 46.625ZM28.1875 45.6875L36.125 1.71875C36.1667 1.55208 36.2708 1.46875 36.4375 1.46875H45.7188C45.8854 1.46875 45.9896 1.55208 46.0312 1.71875L53.6562 45.6875C53.6771 45.8958 53.5938 46 53.4062 46H46.3125C46.1042 46 45.9896 45.8958 45.9688 45.6875L45.2812 41H36.5625L35.875 45.6875C35.8542 45.8958 35.75 46 35.5625 46H28.4375C28.2708 46 28.1875 45.8958 28.1875 45.6875ZM41.375 16.1875L41 13.8125L40.7188 16.1875L37.8438 34.1562H44L41.375 16.1875ZM65.1562 46H57.9062C57.7396 46 57.6562 45.8958 57.6562 45.6875L57.7812 1.71875C57.7812 1.55208 57.8646 1.46875 58.0312 1.46875H70.9688C73.2812 1.46875 75.4062 2.03125 77.3438 3.15625C79.2812 4.28125 80.8229 5.79167 81.9688 7.6875C83.1354 9.58333 83.7188 11.7292 83.7188 14.125C83.7188 15.6875 83.4792 17.1042 83 18.375C82.5208 19.6458 81.9583 20.7188 81.3125 21.5938C80.6875 22.4688 80.1146 23.1146 79.5938 23.5312C81.9062 26.0938 83.0625 29.1042 83.0625 32.5625L83.125 45.6875C83.125 45.8958 83.0208 46 82.8125 46H75.5625C75.3958 46 75.3125 45.9375 75.3125 45.8125V32.5625C75.3125 31.0208 74.7708 29.6875 73.6875 28.5625C72.6042 27.4375 71.2708 26.875 69.6875 26.875H65.4688L65.4062 45.6875C65.4062 45.8958 65.3229 46 65.1562 46ZM70.9688 9.125H65.4688V19.1875H70.9688C72.2812 19.1875 73.4479 18.6979 74.4688 17.7188C75.5104 16.7396 76.0312 15.5417 76.0312 14.125C76.0312 12.7708 75.5312 11.6042 74.5312 10.625C73.5312 9.625 72.3438 9.125 70.9688 9.125ZM96.0312 46H88.7812C88.6146 46 88.5312 45.8958 88.5312 45.6875L88.6562 1.71875C88.6562 1.55208 88.7396 1.46875 88.9062 1.46875H101.844C104.156 1.46875 106.281 2.03125 108.219 3.15625C110.156 4.28125 111.698 5.79167 112.844 7.6875C114.01 9.58333 114.594 11.7292 114.594 14.125C114.594 15.6875 114.354 17.1042 113.875 18.375C113.396 19.6458 112.833 20.7188 112.188 21.5938C111.562 22.4688 110.99 23.1146 110.469 23.5312C112.781 26.0938 113.938 29.1042 113.938 32.5625L114 45.6875C114 45.8958 113.896 46 113.688 46H106.438C106.271 46 106.188 45.9375 106.188 45.8125V32.5625C106.188 31.0208 105.646 29.6875 104.562 28.5625C103.479 27.4375 102.146 26.875 100.562 26.875H96.3438L96.2812 45.6875C96.2812 45.8958 96.1979 46 96.0312 46ZM101.844 9.125H96.3438V19.1875H101.844C103.156 19.1875 104.323 18.6979 105.344 17.7188C106.385 16.7396 106.906 15.5417 106.906 14.125C106.906 12.7708 106.406 11.6042 105.406 10.625C104.406 9.625 103.219 9.125 101.844 9.125ZM117.25 45.6875L125.188 1.71875C125.229 1.55208 125.333 1.46875 125.5 1.46875H134.781C134.948 1.46875 135.052 1.55208 135.094 1.71875L142.719 45.6875C142.74 45.8958 142.656 46 142.469 46H135.375C135.167 46 135.052 45.8958 135.031 45.6875L134.344 41H125.625L124.938 45.6875C124.917 45.8958 124.812 46 124.625 46H117.5C117.333 46 117.25 45.8958 117.25 45.6875ZM130.438 16.1875L130.062 13.8125L129.781 16.1875L126.906 34.1562H133.062L130.438 16.1875Z" fill="#E4A30B"/>
<path d="M154.219 46H147.031C146.823 46 146.719 45.8958 146.719 45.6875L146.844 1.71875C146.844 1.55208 146.927 1.46875 147.094 1.46875H167.594C167.802 1.46875 167.906 1.55208 167.906 1.71875V8.9375C167.906 9.10417 167.823 9.1875 167.656 9.1875H154.531V19.125H167.656C167.823 19.125 167.906 19.2292 167.906 19.4375L167.969 26.6875C167.969 26.8542 167.865 26.9375 167.656 26.9375H154.531V45.6875C154.531 45.8958 154.427 46 154.219 46ZM194.594 46H173.906C173.74 46 173.656 45.8958 173.656 45.6875L173.719 1.71875C173.719 1.55208 173.802 1.46875 173.969 1.46875H194.531C194.698 1.46875 194.781 1.57292 194.781 1.78125V8.9375C194.781 9.10417 194.698 9.1875 194.531 9.1875H181.406V19.1875H194.531C194.698 19.1875 194.781 19.2708 194.781 19.4375L194.844 26.6875C194.844 26.8542 194.76 26.9375 194.594 26.9375H181.406V38.125H194.594C194.76 38.125 194.844 38.2292 194.844 38.4375V45.75C194.844 45.9167 194.76 46 194.594 46ZM208.094 46H200.844C200.635 46 200.531 45.8958 200.531 45.6875L200.594 1.71875C200.594 1.55208 200.677 1.46875 200.844 1.46875H208.031C208.198 1.46875 208.281 1.55208 208.281 1.71875L208.344 45.6875C208.344 45.8958 208.26 46 208.094 46ZM221.469 46H214.219C214.052 46 213.969 45.8958 213.969 45.6875L214.094 1.71875C214.094 1.55208 214.177 1.46875 214.344 1.46875H227.281C229.594 1.46875 231.719 2.03125 233.656 3.15625C235.594 4.28125 237.135 5.79167 238.281 7.6875C239.448 9.58333 240.031 11.7292 240.031 14.125C240.031 15.6875 239.792 17.1042 239.312 18.375C238.833 19.6458 238.271 20.7188 237.625 21.5938C237 22.4688 236.427 23.1146 235.906 23.5312C238.219 26.0938 239.375 29.1042 239.375 32.5625L239.438 45.6875C239.438 45.8958 239.333 46 239.125 46H231.875C231.708 46 231.625 45.9375 231.625 45.8125V32.5625C231.625 31.0208 231.083 29.6875 230 28.5625C228.917 27.4375 227.583 26.875 226 26.875H221.781L221.719 45.6875C221.719 45.8958 221.635 46 221.469 46ZM227.281 9.125H221.781V19.1875H227.281C228.594 19.1875 229.76 18.6979 230.781 17.7188C231.823 16.7396 232.344 15.5417 232.344 14.125C232.344 12.7708 231.844 11.6042 230.844 10.625C229.844 9.625 228.656 9.125 227.281 9.125ZM241.375 45.6875L249.312 1.71875C249.354 1.55208 249.458 1.46875 249.625 1.46875H258.906C259.073 1.46875 259.177 1.55208 259.219 1.71875L266.844 45.6875C266.865 45.8958 266.781 46 266.594 46H259.5C259.292 46 259.177 45.8958 259.156 45.6875L258.469 41H249.75L249.062 45.6875C249.042 45.8958 248.938 46 248.75 46H241.625C241.458 46 241.375 45.8958 241.375 45.6875ZM254.562 16.1875L254.188 13.8125L253.906 16.1875L251.031 34.1562H257.188L254.562 16.1875Z" fill="white"/>
</svg>
